<svg xmlns="http://www.w3.org/2000/svg" xmlns:xlink="http://www.w3.org/1999/xlink" enable-background="new 0 0 6000 4000" viewBox="0 0 6000 4000"><path fill="#91b9ec" d="M1141.4,2824.8c1.2,27.8,4.8,55.5,6.7,83.3c3.9,90.6,82.8,145.8,134,216.8c7.9,7.9,15.8,23.6,31.5,27.6
			c7.9,0,7.9-3.9,27.6,15.8c15.8,19.7,39.4,19.7,63.1,35.5c7.9,3.9,23.6-3.9,27.6,0c23.6,31.5,59.1,35.5,90.6,47.3
			c19.7,7.9,47.3,0,67,7.9c47.3,15.8,98.5,23.6,145.8,23.6c930.1-3.9,1844.4,90.6,2786.4-141.9c47.3-11.8,94.6-15.8,145.8-31.5
			c19.7-7.9,47.3,3.9,67-7.9c55.2-31.5,114.3-31.5,173.4-63.1c25.5-11.3,55.1-24.6,85.8-35.7c-8.7-33.9-22.3-70.5-40.4-110
			C4728.2,2403.5,1729.2,2642,1141.4,2824.8"/><g opacity=".38"><defs><rect id="a" width="4138.2" height="981.3" x="998.3" y="2458.8"/></defs><clipPath id="b"><use overflow="visible" xlink:href="#a"/></clipPath><g clip-path="url(#b)"><defs><rect id="c" width="4138.2" height="981.3" x="998.3" y="2458.8"/></defs><clipPath id="d"><use overflow="visible" xlink:href="#c"/></clipPath></g></g><path fill="#9bc6ee" d="M4734.5,3101.1c-19.7,11.8-47.3,0-67,7.9c-51.2,15.8-98.5,19.7-145.8,31.5
			c-941.9,232.5-1856.3,137.9-2786.4,141.9c-47.3,0-98.5-7.9-145.8-23.6c-19.7-7.9-47.3,0-67-7.9c-31.5-11.8-67-15.8-90.6-47.3
			c-3.9-3.9-19.7,3.9-27.6,0c-23.6-15.8-47.3-15.8-63.1-35.5c-19.7-19.7-19.7-15.8-27.6-15.8c-15.8-3.9-23.6-19.7-31.5-27.6
			c-51.2-70.9-130.1-126.1-134-216.8c-1.9-27.8-5.4-55.5-6.7-83.3c-40.2,12.5-69.1,24.7-85.1,36.4c0,0-560.9,604.6,1507.9,587.7
			c1912.3-15.6,2535.9-31.6,2429.5-446.5c-30.7,11-60.3,24.3-85.8,35.7C4848.8,3069.6,4789.7,3069.6,4734.5,3101.1"/><g opacity=".38"><defs><rect id="e" width="4335.2" height="918.2" x="832.8" y="2726.8"/></defs><clipPath id="f"><use overflow="visible" xlink:href="#e"/></clipPath><g clip-path="url(#f)"><defs><rect id="g" width="4335.2" height="918.2" x="832.8" y="2726.8"/></defs><clipPath id="h"><use overflow="visible" xlink:href="#g"/></clipPath></g></g><path fill="#fe0000" d="M2620.8,850.5c-47.8,13.4-80.9,21.9-114.2,28.1c-5.9,1.1-11.8,2-17.9,2.4c-18.6,1.3-35.5-7.3-49.1-24.6
			c-13.5-17.2-25.1-35.3-36-53.6c-15.4-25.9-29.7-52.3-41.1-79.7c-9.1-21.9-6.5-40.6,15.4-52.2c37.3-19.7,78.4-35.9,121.2-52.3
			c27-10.3,55-20.2,84.3-28.6c7.7-2.2,15.4-4.4,23.7-5.4c20.4-2.6,38.1,4.6,52.3,21.5c18.3,21.7,32.2,45.6,45.6,69.4
			c16.1,28.4,30.7,57.1,40.6,86.6c9.8,29.1,1.8,44.8-25.4,55.7C2682.6,832.8,2644.1,843.9,2620.8,850.5 M2539.8,799.8
			c18.1-24.7,36.1-49.3,55-75.3c-37.7-7.3-73.6-14.3-109.3-21.2C2503.9,736.1,2521.6,767.6,2539.8,799.8"/><path fill="#292929" d="M3454 385.7c6.9-14.4 15.4-26.7 31.2-35.8 26.3-15.1 52.9-14 72.4 4 16.7 15.4 26.3 34.1 35.1 53 13.3 28.5 28 56.4 34.6 86.4 1.8 8.2 2.6 16.5 1.8 24.9-3.5 34.9-54.5 55.2-92.5 37.7-2.5-1.2-4.9-2.4-7.3-3.5-.7.6-1 .8-1 .9 0 6.2 5 13.2.6 18.1-4.5 5-15 5.4-22.8 7.6-7.8 2.2-16.7 7.7-23.2 5.5-7.1-2.4-7.2-11.2-10-17.3-39.4-84.2-79.2-169.8-120-256.6-3.1-6.6-2.6-9.8 6.4-12.7 12.1-3.8 24.1-8.4 35.6-13.7 9-4.1 11.8-1.8 14.8 4.8 13.3 29.8 27.1 59.3 40.6 88.6C3451.5 380.3 3452.7 383 3454 385.7M3493.6 471.7c8.1 17.7 16.5 35.2 24.2 52.9 2.6 5.9 7.4 8.8 14.9 9.9 17.2 2.6 30.5-5.7 30.6-19.2 0-2.9-.3-5.8-1.1-8.7-9.9-35.6-26.8-69.3-45.6-102.6-2.6-4.5-6.4-8.8-10.6-12.4-9-7.9-21.4-7-30.2 2-7.8 8.1-10.4 16.9-6.1 26.2C3477.7 437.2 3485.7 454.5 3493.6 471.7M3129.4 662.7c-2 6-2.6 10.8-4.9 15.3-7.9 15.4-22.8 22.6-42.6 23.6-12.9.6-23-5-31.1-13.3-6.2-6.4-10.8-13.5-14.6-21-21-41.3-42.2-82.9-63.9-124.8-2.8-5.3-1.9-7.4 4.1-9.2 10.4-3.1 20.6-6.9 30.8-10.9 5-2 7.1-1 9.4 3.5 20.6 41.2 41.4 82 61.9 122.6 2.4 4.8 4.9 9.7 9 13.8 5.1 5.1 11.7 6 17.9 2.6 9.1-4.9 11.6-12.3 7.1-21.2-21.3-42.5-42.8-85.3-64.7-128.4-2.5-4.8-2-6.9 3.8-8.7 11.4-3.6 22.7-7.7 34-12 4.6-1.8 7-1.7 9.4 3 28.1 56.9 56.1 113.2 84 168.8 2.2 4.3 1.1 6-4 7.2-8.9 2.2-17.6 4.7-26.1 7.4-3.8 1.2-5.9.6-7.9-2.4C3137.7 673.8 3134 669 3129.4 662.7M3388.1 586.7c-1.9 5.4-3 9.3-4.5 13-7.6 17.9-29.2 30.5-52.8 31.1-18.2.4-30-7.6-39.4-18.8-6.1-7.3-10.4-15.3-14.3-23.4-21.1-43.2-42.1-86.9-63.7-130.7-2.9-5.8-1.7-8.2 5.3-10.3 11.9-3.7 23.7-7.9 35.4-12.5 6.8-2.7 9.7-2 12.5 4 21.5 45.6 43.3 90.6 64.7 135.4 2.2 4.6 4.4 9.2 8.5 13 5.8 5.4 13.4 6.2 20.7 2.3 10.6-5.7 14-14.2 9.5-23.7-22-46.2-44-92.9-66.7-139.8-2.9-5.9-1.9-8.4 5.6-10.7 12.6-3.9 25.1-8.4 37.5-13.2 6.8-2.7 9.7-2 12.4 3.9 25 54 50.3 107.4 75.1 160.3 3.8 8 7.2 16.1 11.4 24 2.4 4.4.9 6.1-4.7 7.5-10.1 2.5-20.2 5.3-29.8 8.6-6 2.1-8.6.3-11.1-3.5C3396.3 598.1 3392.7 593.2 3388.1 586.7M2877.3 666.3c-8.4-14.4-16.1-29-20.8-44.6-11.5-37.5 7.1-55 42.2-63.7 26.2-6.5 46.5 1 64.8 25.5 22.2 29.7 38.6 61.6 48.5 94.8 10 33.4-7.1 49.7-43.5 57.1-30.2 6.1-51.1-3.5-69.2-30-2.2-3.2-4.6-6.3-6.4-9.6C2887.6 686 2882.5 676.2 2877.3 666.3M2949.6 645.9c-6.2-12-11.2-22.1-16.6-32-4.5-8.1-9-16.2-16.4-22.8-4.4-3.8-9.4-5.4-15-3.5-5.6 1.9-7.7 5.7-7.6 10.9.1 3.7.9 7.3 2.4 10.9 10.9 26.4 25.7 51.4 38.9 76.7 3.3 6.4 7.4 12.5 13.1 17.7 4.3 3.9 9.1 5.6 14.8 4 6-1.6 8.6-5.3 8.4-10.7-.1-4.2-1.5-8.4-3-12.6C2963.3 670.7 2955.2 657.5 2949.6 645.9M2806.3 651.4c-4.1-13.8-8.4-27.6-12.3-41.6-6.6-23.5-13.1-47.2-19.7-71.1-.6-2.2-1.9-4.5 1.6-5.8 11.7-4.3 23.4-8.9 36-13.7 2.9 13.8 5.7 26.9 8.4 40 8.6 41.3 17 82 25.2 122.1.8 3.7 2.1 7.3 4 10.8 10.6 19.8 20.8 39.6 31.5 59.1 2.6 4.7 1.5 6.2-3.4 7.4-9 2.2-17.7 4.7-26.2 7.5-4.1 1.3-6.1.7-8.2-3.4-9.9-19.1-20.4-38-30.3-57.2-5.3-10.3-14.4-18.2-22.2-26.8-32.5-36-65.2-71.9-98-107.6-3.8-4.2-3.4-5.4 1.2-7 8.6-2.9 17-6.2 25.4-9.7 3.9-1.6 6.2-1.5 9.4 2.5C2754.1 588.6 2780.6 619.6 2806.3 651.4M3760.7 403.1c-16.3 5.1-32.5 10.2-48.6 15.2-4.1 1.3-8.2 2.3-6 6.7 7 13.8 11.9 28.4 21.7 41.1 7.1 9.2 15.7 11.6 27.9 8.3 13-3.5 19-10.2 18.1-21.1-.5-6.5-1.8-12.9-4.8-18.9-1.8-3.8-.2-5.4 5.3-6.8 15.7-3.7 31.5-7.6 47.3-12.1 6.9-2 8.7-.6 10.8 3.7 21.9 46.4-11.5 76-69.8 90.5-45.7 11.3-74.9 3.8-96.7-25.2-28.5-37.9-47.3-79.5-55.2-124.6-6.6-37.7 13.9-65.1 78.9-82.9 45.9-12.6 74.3-1.7 95.7 33.6 13.4 22.1 21.3 46 32.1 68.7 2.1 4.5-.1 6.1-5.8 7.8C3794.5 392.4 3777.5 397.8 3760.7 403.1M3680.7 367.1c2.9 6.6 5.9 13.1 8.6 19.8 1.3 3.1 2.6 4.7 7.8 2.9 12.6-4.3 25.4-8.4 38.4-12.4 3.5-1.1 5.3-2.3 3.9-5.2-8-16.6-13.6-34.1-26.1-49-7.5-9-16-10.7-27.7-6.4-11.4 4.2-15.6 10.8-14.1 21.7C3673 348.5 3677.5 357.6 3680.7 367.1"/><path fill="#292929" d="M3164,554.7c-16.8-34-33.8-68.1-50.5-102.6c-2.4-5-4.5-6.2-10.4-3.7c-11.1,4.6-22.7,8.3-33.7,12.7
			c-4.3,1.7-6.7,1.8-8.7-2.7c-3.6-8.1-7.7-16.1-11.9-24.1c-1.9-3.5-0.9-5,3-6.5c43.7-16.5,88.6-33.7,134.8-51.4
			c3.8-1.5,5.8-1.2,7.4,2.3c4.1,9,8.4,18,13,26.8c1.7,3.4,0.9,4.8-3.1,6.2c-12.2,4.3-24.1,9.2-36.3,13.1c-7.2,2.3-8.4,4.6-5.3,10.8
			c34,68.8,67,137,100.2,204.1c3.4,6.9,2,9.3-6.4,11.2c-11.1,2.5-21.8,5.8-32.2,9.2c-5.4,1.8-7.6,0.9-9.9-3.7
			C3197.6,622.5,3180.8,588.7,3164,554.7"/><path fill="#fefefe" d="M2539.8,799.8c-18.2-32.3-35.9-63.8-54.3-96.5c35.7,6.9,71.6,13.9,109.3,21.2
			C2575.9,750.5,2557.9,775.1,2539.8,799.8"/><defs><path id="i" d="M3769.9,1057.1c-13.8,18,10.3,81.4-30.8,55.2c-41.1-26.2-38.7,71.8,0.7,85.9c18.6,6.7,24.2,3,32.4-0.7
				c9.2-4.1,21.8-8.3,59.8,2.2c71.9,19.9,147,147.8,99.9,207c-47.1,59.2-297.3-155.7-297.3-155.7s-220.1,70.2-158.8,140.5
				c293.3,264.7,488.4,144.9,516.5,77.8c28.1-67.1,10.3-193.7-87-262.9c-97.3-69.3-87.5-44.7-107.5-67.7c-20-23-7.3-38.1,0.4-69.1
				c4.3-17.4-0.8-24.9-8.5-24.9C3783.6,1044.7,3776,1049.3,3769.9,1057.1"/></defs><clipPath id="j"><use overflow="visible" xlink:href="#i"/></clipPath><linearGradient id="k" x1="1828.628" x2="1832.569" y1="2785.19" y2="2785.19" gradientTransform="rotate(180 127130.25 191258.281) scale(136.8546)" gradientUnits="userSpaceOnUse"><stop offset="0" stop-color="#ffc7d0"/><stop offset="1" stop-color="#e65e75"/></linearGradient><rect width="605.9" height="611.5" x="3414.5" y="1044.7" fill="url(#k)" clip-path="url(#j)"/><g><defs><path id="l" d="M2565.5,1041.6c16.5,30.1,33.1,42.3,20.5,71.6c-12.6,29.3-190.1,164.1-93.9,349.5
				c44.2,77.9,223.2,201.3,516.5-83.8c61.3-75.7-114.6-133.7-114.6-133.7s-257.7,228.8-330.3,154.8c-62.4-63.7-32.3-190.8,7-214.2
				c35.3-21,48.3-19.3,58.3-17.7c8.3,1.4,14.7,2.7,30-8.7c33.9-25.3,7.7-127.6-24.2-89.3c-32,38.3-27.1-34-45.7-49
				c-6.6-5.3-13.5-8-19-8C2560.1,1013,2554.9,1022.2,2565.5,1041.6"/></defs><clipPath id="m"><use overflow="visible" xlink:href="#l"/></clipPath><linearGradient id="n" x1="1825.171" x2="1829.112" y1="2785.109" y2="2785.109" gradientTransform="matrix(141.5704 0 0 -141.5704 -255926.531 395627.375)" gradientUnits="userSpaceOnUse"><stop offset="0" stop-color="#ffc7d0"/><stop offset="1" stop-color="#e65e75"/></linearGradient><rect width="674.1" height="651" x="2395.8" y="1013" fill="url(#n)" clip-path="url(#m)"/></g><g><path fill="#635cd6" d="M2782.3,1297.5c-43.7,47.9,37.3,221.1,86.5,232.5c49.2,11.4,100.1-96.3,111.7-86.9
			c11.6,9.4-289.1,879.2-251.3,1018.7c37.8,139.5,1024,358.7,1058.9,198.9c34.9-159.8-320.1-1258.8-299.3-1230
			c19.6,27.1,39.6,60.6,60.6,57c21-3.6,172.6-186.9,152.5-218.6c-20-31.7-214.9-141.4-397.6-155.9
			c-182.7-14.5-284.4,26.1-330.9,55.2C2926.9,1197.2,2826.1,1249.6,2782.3,1297.5"/><g opacity=".9"><defs><rect id="o" width="1391.2" height="1935" x="2562.9" y="945.4"/></defs><clipPath id="p"><use overflow="visible" xlink:href="#o"/></clipPath><g clip-path="url(#p)"><defs><rect id="q" width="1391.2" height="1935" x="2562.9" y="945.4"/></defs><clipPath id="r"><use overflow="visible" xlink:href="#q"/></clipPath></g></g><g opacity=".9"><defs><rect id="s" width="1391.2" height="1935" x="2562.9" y="945.4"/></defs><clipPath id="t"><use overflow="visible" xlink:href="#s"/></clipPath><g clip-path="url(#t)"><defs><rect id="u" width="1391.2" height="1935" x="2562.9" y="945.4"/></defs><clipPath id="v"><use overflow="visible" xlink:href="#u"/></clipPath></g></g><rect width="837.6" height="1123.7" x="2163.4" y="1561.5" fill="#ffc261"/><rect width="715.8" height="1014.8" x="2224.3" y="1616" fill="#4a627c"/><g opacity=".38"><defs><rect id="w" width="1001" height="1300.5" x="2082.1" y="1473.5"/></defs><clipPath id="x"><use overflow="visible" xlink:href="#w"/></clipPath><g clip-path="url(#x)"><defs><rect id="y" width="1001" height="1300.5" x="2082.1" y="1473.5"/></defs><clipPath id="z"><use overflow="visible" xlink:href="#y"/></clipPath></g></g><path fill="#fbe486" d="M2714.2,2236.8h-264c-51.2,0-92.7-41.5-92.7-92.7v-123.7c0-51.2,41.5-92.7,92.7-92.7h264
			c51.2,0,92.7,41.5,92.7,92.7v123.7C2806.9,2195.3,2765.4,2236.8,2714.2,2236.8"/><polygon fill="#ffa730" points="2495.5 2201.1 2701.5 2082.2 2495.5 1963.2"/><rect width="294.2" height="26.3" x="2435.1" y="2393.1" fill="#ffd08c"/><rect width="91.2" height="9.5" x="2536.5" y="2437.2" fill="#ffd08c"/><rect width="518.9" height="19.1" x="2322.7" y="2493" fill="#ffd08c"/><path fill="#d12d34" d="M2390.4,2461.7H2339c-2.8,0-5-2.2-5-5V2439c0-2.8,2.2-5,5-5h51.3c2.8,0,5,2.2,5,5v17.7
			C2395.3,2459.4,2393.1,2461.7,2390.4,2461.7"/><path fill="#9696ed" d="M2835.4,2461.7h-49c-3.4,0-6.2-2.8-6.2-6.2v-29.9c0-3.4,2.8-6.2,6.2-6.2h49c3.4,0,6.2,2.8,6.2,6.2v29.9
			C2841.6,2458.9,2838.8,2461.7,2835.4,2461.7"/></g><g><defs><path id="A" d="M4439.8,1310.2c7.5,49.6-70.1,275.4-153.4,305.4c-83.3,29.9-128.5,94.4-124.4,149.8
				c4.1,55.4,18.1,75.2,18.1,75.2s-47.3-50.3-110.3,26.1c-63,76.4,74.6,128.4-13.1,215.8c-87.7,87.3-206.9-19.7-209.2,161.2
				c-2.3,180.9,310.3,227.4,468.1,51.8c157.8-175.6,338-333.5,351.3-462.2c7.3-71-25.9-70.8-58.7-70.6c-26.6,0.1-53,0.3-56.8-37.9
				c-8.6-85.1,83.1-391.1-13.2-488.8c-26-26.4-45.7-36.7-60.5-36.7C4438,1199,4434.4,1274,4439.8,1310.2"/></defs><clipPath id="B"><use overflow="visible" xlink:href="#A"/></clipPath><linearGradient id="C" x1="1826.708" x2="1830.649" y1="2778.392" y2="2778.392" gradientTransform="scale(-177.5837 177.5837) rotate(-32.542 -3838.903 4570.584)" gradientUnits="userSpaceOnUse"><stop offset="0" stop-color="#b6f2f0"/><stop offset=".304" stop-color="#b6f2f0"/><stop offset=".406" stop-color="#90dbd9"/><stop offset=".522" stop-color="#6dc6c4"/><stop offset=".639" stop-color="#52b5b4"/><stop offset=".757" stop-color="#3ea9a8"/><stop offset=".876" stop-color="#33a2a1"/><stop offset="1" stop-color="#2fa09f"/></linearGradient><polygon fill="url(#C)" points="4434.4 2846.8 3268.5 2102.9 4085.1 823.1 5251 1567.1" clip-path="url(#B)"/></g><g><g opacity=".38"><defs><rect id="D" width="1111.4" height="1493.6" x="3701.9" y="1055.8"/></defs><clipPath id="E"><use overflow="visible" xlink:href="#D"/></clipPath><g clip-path="url(#E)"><defs><rect id="F" width="1111.4" height="1493.6" x="3701.9" y="1055.8"/></defs><clipPath id="G"><use overflow="visible" xlink:href="#F"/></clipPath></g></g></g><g><defs><path id="H" d="M4439.8,1310.2c7.5,49.6-70.1,275.4-153.4,305.4c-83.3,29.9-128.5,94.4-124.4,149.8
				c4.1,55.4,18.1,75.2,18.1,75.2s-47.3-50.3-110.3,26.1c-63,76.4,74.6,128.4-13.1,215.8c-87.7,87.3-206.9-19.7-209.2,161.2
				c-2.3,180.9,310.3,227.4,468.1,51.8c157.8-175.6,338-333.5,351.3-462.2c7.3-71-25.9-70.8-58.7-70.6c-26.6,0.1-53,0.3-56.8-37.9
				c-8.6-85.1,83.1-391.1-13.2-488.8c-26-26.4-45.7-36.7-60.5-36.7C4438,1199,4434.4,1274,4439.8,1310.2"/></defs><clipPath id="I"><use overflow="visible" xlink:href="#H"/></clipPath><path fill="#2d65af" d="M4000.3,2277.9c71.9,5.7,127-56.5,167.9-107c41.8-51.5,80.2-105.7,115.2-162
			c35.8-57.6,68.1-117.3,96.7-178.7c28.9-62,54.3-125.6,75.9-190.5c21.9-65.8,40.1-132.8,54.3-200.7c1.8-8.4,3.4-16.8,5.1-25.2
			c0.7-3.7-5-5.3-5.7-1.6c-13,67-29.9,133.3-50.4,198.4c-20.5,64.8-44.6,128.5-72.4,190.6c-27.3,61-58.1,120.5-92.3,177.9
			c-33.8,56.7-70.9,111.4-111.4,163.5c-21,27.1-42.5,54.3-67.4,77.9c-25.1,23.9-55.3,44.8-90.1,50.5c-8.4,1.4-16.9,1.7-25.4,1
			C3996.5,2271.7,3996.5,2277.6,4000.3,2277.9" clip-path="url(#I)"/><path fill="#2d65af" d="M4476.6 1833.4c-23.7 20-46.6 41-68.4 63-10.8 10.9-20.8 22.5-31.6 33.3-3.2 3.2-6 5-10.7 4.8-3.9-.1-7.9-1-11.7-1.6-8.2-1.1-16.3-2.3-24.5-3.4-3.7-.5-5.3 5.2-1.6 5.7 8.8 1.2 17.6 2.4 26.4 3.7 6.1.8 13 2.9 18.9.3 6.7-2.9 11.6-9.9 16.4-15.2 5.7-6.1 11.5-12.2 17.3-18.2 23.4-24 48-46.8 73.6-68.3C4483.7 1835.2 4479.5 1831 4476.6 1833.4M4269.1 2026.2c1-14.5-3-29.3-4.5-43.7-1.6-15.3-2.5-30.6-2.7-46-.4-30.9 2.2-61.9 7.6-92.3.7-3.7-5-5.3-5.7-1.6-5.4 30.4-8.1 61.2-7.8 92 .1 15.4.9 30.7 2.5 46 .7 7.1 1.6 14.2 2.6 21.2 1.2 8.1 2.7 16.1 2.1 24.3C4263 2029.9 4268.9 2029.9 4269.1 2026.2M4360.3 2049c-26.5 10.5-52 23.5-75.9 38.9-6.1 3.9-12.1 8-18 12.2-5.8 4.2-11.5 9-18.2 11.8-12.6 5.4-26.8-.3-39.5 5.7-3.4 1.6-.4 6.7 3 5.1 12.3-5.8 26.6 0 39.2-5.5 6.2-2.7 11.6-7 17-11 5.9-4.2 11.9-8.4 18-12.3 24-15.6 49.4-28.8 76.1-39.3C4365.3 2053.3 4363.8 2047.6 4360.3 2049M4137.6 2167.8c5.9-51 22.7-99.9 39.4-148.2 1.2-3.6-4.4-5.1-5.7-1.6-16.9 48.9-33.7 98.1-39.6 149.7C4131.3 2171.5 4137.2 2171.5 4137.6 2167.8M4253.5 2249.7c-19.9 3.7-39.4 9.3-58.3 16.6-18.4 7.1-37 15.4-57 15.9-3.8.1-3.8 6 0 5.9 20-.5 38.5-8.3 56.9-15.4 19.5-7.5 39.4-13.4 59.9-17.2C4258.8 2254.7 4257.2 2249.1 4253.5 2249.7M4404.5 1720.9c-5.9-3.7-6.4-14.7-7.6-20.9-1.7-9-3-18.1-4-27.2-1.9-17.7-2.5-35.4-1.9-53.2.1-3.8-5.8-3.8-5.9 0-.7 20.3.2 40.6 2.8 60.7 1.2 9.6 2.8 19.2 4.8 28.6 1.4 6.4 2.9 13.3 8.8 17C4404.8 1728 4407.7 1722.9 4404.5 1720.9" clip-path="url(#I)"/></g><g><path fill="#80dbda" d="M4505.6,1009.8c11.1-24.2,6.8-103.8,35.5-112.6c22-6.7,31.2,21.7,35.2,38.4
			C4608,1022.5,4469.1,1096.2,4505.6,1009.8"/></g><g><defs><path id="J" d="M4439.8,1310.2c7.5,49.6-70.1,275.4-153.4,305.4c-83.3,29.9-128.5,94.4-124.4,149.8
				c4.1,55.4,18.1,75.2,18.1,75.2s-47.3-50.3-110.3,26.1c-63,76.4,74.6,128.4-13.1,215.8c-87.7,87.3-206.9-19.7-209.2,161.2
				c-2.3,180.9,310.3,227.4,468.1,51.8c157.8-175.6,338-333.5,351.3-462.2c7.3-71-25.9-70.8-58.7-70.6c-26.6,0.1-53,0.3-56.8-37.9
				c-8.6-85.1,83.1-391.1-13.2-488.8c-26-26.4-45.7-36.7-60.5-36.7C4438,1199,4434.4,1274,4439.8,1310.2"/></defs><clipPath id="K"><use overflow="visible" xlink:href="#J"/></clipPath><path fill="#2d65af" d="M4000.3,2277.9c71.9,5.7,127-56.5,167.9-107c41.8-51.5,80.2-105.7,115.2-162
			c35.8-57.6,68.1-117.3,96.7-178.7c28.9-62,54.3-125.6,75.9-190.5c21.9-65.8,40.1-132.8,54.3-200.7c1.8-8.4,3.4-16.8,5.1-25.2
			c0.7-3.7-5-5.3-5.7-1.6c-13,67-29.9,133.3-50.4,198.4c-20.5,64.8-44.6,128.5-72.4,190.6c-27.3,61-58.1,120.5-92.3,177.9
			c-33.8,56.7-70.9,111.4-111.4,163.5c-21,27.1-42.5,54.3-67.4,77.9c-25.1,23.9-55.3,44.8-90.1,50.5c-8.4,1.4-16.9,1.7-25.4,1
			C3996.5,2271.7,3996.5,2277.6,4000.3,2277.9" clip-path="url(#K)"/><path fill="#2d65af" d="M4476.6 1833.4c-23.7 20-46.6 41-68.4 63-10.8 10.9-20.8 22.5-31.6 33.3-3.2 3.2-6 5-10.7 4.8-3.9-.1-7.9-1-11.7-1.6-8.2-1.1-16.3-2.3-24.5-3.4-3.7-.5-5.3 5.2-1.6 5.7 8.8 1.2 17.6 2.4 26.4 3.7 6.1.8 13 2.9 18.9.3 6.7-2.9 11.6-9.9 16.4-15.2 5.7-6.1 11.5-12.2 17.3-18.2 23.4-24 48-46.8 73.6-68.3C4483.7 1835.2 4479.5 1831 4476.6 1833.4M4269.1 2026.2c1-14.5-3-29.3-4.5-43.7-1.6-15.3-2.5-30.6-2.7-46-.4-30.9 2.2-61.9 7.6-92.3.7-3.7-5-5.3-5.7-1.6-5.4 30.4-8.1 61.2-7.8 92 .1 15.4.9 30.7 2.5 46 .7 7.1 1.6 14.2 2.6 21.2 1.2 8.1 2.7 16.1 2.1 24.3C4263 2029.9 4268.9 2029.9 4269.1 2026.2M4360.3 2049c-26.5 10.5-52 23.5-75.9 38.9-6.1 3.9-12.1 8-18 12.2-5.8 4.2-11.5 9-18.2 11.8-12.6 5.4-26.8-.3-39.5 5.7-3.4 1.6-.4 6.7 3 5.1 12.3-5.8 26.6 0 39.2-5.5 6.2-2.7 11.6-7 17-11 5.9-4.2 11.9-8.4 18-12.3 24-15.6 49.4-28.8 76.1-39.3C4365.3 2053.3 4363.8 2047.6 4360.3 2049M4137.6 2167.8c5.9-51 22.7-99.9 39.4-148.2 1.2-3.6-4.4-5.1-5.7-1.6-16.9 48.9-33.7 98.1-39.6 149.7C4131.3 2171.5 4137.2 2171.5 4137.6 2167.8M4253.5 2249.7c-19.9 3.7-39.4 9.3-58.3 16.6-18.4 7.1-37 15.4-57 15.9-3.8.1-3.8 6 0 5.9 20-.5 38.5-8.3 56.9-15.4 19.5-7.5 39.4-13.4 59.9-17.2C4258.8 2254.7 4257.2 2249.1 4253.5 2249.7M4404.5 1720.9c-5.9-3.7-6.4-14.7-7.6-20.9-1.7-9-3-18.1-4-27.2-1.9-17.7-2.5-35.4-1.9-53.2.1-3.8-5.8-3.8-5.9 0-.7 20.3.2 40.6 2.8 60.7 1.2 9.6 2.8 19.2 4.8 28.6 1.4 6.4 2.9 13.3 8.8 17C4404.8 1728 4407.7 1722.9 4404.5 1720.9" clip-path="url(#K)"/></g><g><path fill="#6f93c9" d="M4343,1367.4l-163.2-91.7l-185.4,283.7l110.9,80.3L4343,1367.4z M4004.6,1563.9c-4.9-3.5-6.3-10.4-3-15.5
			c3.3-5.1,10-6.5,15-3.1l152.4-227.8c-5.6-4.4-6.2-13.6-1-21.7c5.7-8.7,16.1-12.8,23.2-8.8c6.7,3.7,7.9,13.2,3.1,21.6l103.2,59
			c0.3-0.4,0.5-0.7,0.8-1.1c7.1-8.6,19.2-12.2,27.1-7.8c7.9,4.4,8.3,15,0.9,23.6c-6.4,7.4-16.5,10.8-24,8.5l-191,224
			c4.6,4,5.3,10.5,1.3,15.1c-4.1,4.8-11.8,5.5-17.1,1.7c-5.3-3.8-6.4-10.7-2.4-15.6c0.2-0.2,0.3-0.4,0.5-0.5l-74.5-53.5
			C4015.5,1566.4,4009.3,1567.3,4004.6,1563.9"/><path fill="#fff" d="M4110.3,1614.1c0.3,0.2,0.7,0.5,1,0.7l191-224c-1-0.3-2-0.7-2.9-1.2c-7.2-4.1-8-13.7-2-21.9l-103.2-59
			c-0.3,0.5-0.6,1-0.9,1.5c-5.8,8.6-16.1,12.2-23,8.3c-0.5-0.3-0.9-0.6-1.3-0.9l-152.4,227.8c0.1,0,0.1,0.1,0.2,0.1
			c5.1,3.6,6.4,10.7,2.9,15.8c-0.2,0.3-0.4,0.6-0.6,0.8l74.5,53.5C4097.8,1611.1,4105.1,1610.4,4110.3,1614.1 M4025,1554.2
			l159.3-232.2l103.9,60.2L4100.5,1608L4025,1554.2z"/><path fill="#aecff1" d="M4184.4,1322L4025,1554.2l75.5,53.8l187.7-225.8L4184.4,1322z M4091.6,1561.6c-4.1,5.4-11.8,6.6-17.2,2.9
			c-5.4-3.7-6.6-11.1-2.6-16.5c4-5.5,11.7-6.9,17.2-3.1C4094.7,1548.7,4095.8,1556.2,4091.6,1561.6 M4175,1503.3
			c-16.4,20.3-44.9,25.7-64,13c-18.8-12.5-22.6-38.7-8.3-59.5c15.1-21.8,44.5-29.9,65.4-16.9C4189.4,1453.1,4192.3,1482,4175,1503.3
			 M4217.3,1397.3c-5.9,7.7-16.1,10.5-22.9,6.5c-6.7-4-7.7-13.5-2-21.2c5.7-7.9,16-11,23-6.9
			C4222.5,1379.7,4223.3,1389.5,4217.3,1397.3"/><path fill="#6f93c9" d="M4117.9 1480.1c.6 1.1 1.4 2 2.4 2.7 1.6 1 3.5 1.4 5.4 1.2 2-.2 4-1 5.9-2.3.6-.4 1.1-.9 1.7-1.4l-15-9.8c-.7 1.3-1.1 2.7-1.3 4C4116.7 1476.6 4117 1478.5 4117.9 1480.1M4158.6 1480.6c-.6-1.1-1.4-2-2.5-2.8-1.7-1.1-3.6-1.4-5.7-1.2-2 .2-4.2 1-6.1 2.4-.6.4-1.2.9-1.7 1.4l15.3 10c.7-1.3 1.2-2.7 1.4-4C4159.7 1484.3 4159.4 1482.3 4158.6 1480.6"/><path fill="#6f93c9" d="M4102.8,1456.8c-14.4,20.8-10.5,47,8.3,59.5c19.1,12.7,47.6,7.3,64-13c17.2-21.3,14.3-50.2-6.9-63.4
			C4147.2,1427,4117.8,1435.1,4102.8,1456.8 M4144.4,1470.5c0.5-0.2,1-0.5,1.5-0.7c3.1-1.3,6.4-1.9,9.4-1.6c2.4,0.2,4.6,0.9,6.5,2.2
			c2.9,1.9,4.8,4.7,5.6,8c0.8,3.3,0.6,7.1-0.8,10.8c-0.6,1.7-1.5,3.5-2.6,5.2l6.8,4.4l-3.2,4l-6.7-4.4c-2.4,2.5-5.1,4.4-8,5.7
			c-3.5,1.6-7.2,2.3-10.6,1.9c-2.3-0.3-4.4-1-6.3-2.2l2.7-3.5l2.7-3.5c1.6,1.1,3.5,1.5,5.5,1.3c2-0.2,4.1-1,6-2.2
			c0.6-0.4,1.2-0.9,1.7-1.4l-15.5-10.1c-2.3,2.5-5,4.5-7.7,5.8c-0.5,0.2-0.9,0.4-1.4,0.6c-3,1.2-6.1,1.7-9,1.4
			c-2.2-0.2-4.3-0.9-6.1-2.2c-2.7-1.8-4.6-4.5-5.4-7.7c-0.8-3.2-0.7-6.8,0.4-10.4c0.5-1.7,1.3-3.4,2.3-5.1l-6.4-4.2l2.9-4l6.5,4.2
			c2.2-2.6,4.8-4.6,7.6-6.1c3.5-1.8,7.1-2.6,10.6-2.4c2.3,0.2,4.5,0.9,6.4,2.1l-5.5,7.5c-1.6-1-3.6-1.4-5.6-1.2
			c-2,0.2-4.1,1.1-5.9,2.4c-0.6,0.4-1.1,0.9-1.7,1.4l15.4,10C4138.8,1474,4141.5,1471.9,4144.4,1470.5"/><path fill="#2d65af" d="M4144.3 1479c1.9-1.3 4-2.1 6.1-2.4 2.1-.2 4 .2 5.7 1.2 1.1.7 1.9 1.7 2.5 2.8.9 1.6 1.1 3.6.8 5.7-.2 1.3-.7 2.7-1.4 4l6.2 4c1.1-1.7 2-3.4 2.6-5.2 1.3-3.7 1.6-7.5.8-10.8-.8-3.3-2.7-6.2-5.6-8-1.9-1.3-4.2-2-6.5-2.2-3.1-.3-6.3.3-9.4 1.6-.5.2-1 .4-1.5.7-2.8 1.4-5.5 3.4-7.9 6l6.1 3.9C4143.1 1479.9 4143.7 1479.5 4144.3 1479M4153.1 1495.8c-1.9 1.3-4 2-6 2.2-2 .2-3.9-.2-5.6-1.3l-2.7 3.5-2.7 3.5c1.9 1.2 4 2 6.3 2.2 3.4.4 7.1-.3 10.6-1.9 2.8-1.3 5.6-3.2 8-5.7l-6.1-4C4154.2 1494.9 4153.7 1495.4 4153.1 1495.8M4122.8 1465.1c1.8-1.3 3.9-2.2 5.9-2.4 2-.2 3.9.1 5.6 1.2l5.5-7.5c-1.9-1.2-4.1-1.9-6.4-2.1-3.4-.3-7.1.6-10.6 2.4-2.8 1.4-5.4 3.5-7.6 6.1l6 3.9C4121.7 1466 4122.3 1465.5 4122.8 1465.1M4131.6 1481.7c-1.8 1.3-3.9 2.1-5.9 2.3-2 .2-3.8-.2-5.4-1.2-1.1-.7-1.9-1.6-2.4-2.7-.8-1.6-1.1-3.6-.9-5.6.2-1.3.6-2.7 1.3-4l-5.9-3.9c-1 1.7-1.7 3.4-2.3 5.1-1.1 3.6-1.2 7.3-.4 10.4.8 3.2 2.7 5.9 5.4 7.7 1.8 1.2 3.9 1.9 6.1 2.2 2.9.3 6-.2 9-1.4.5-.2.9-.4 1.4-.6 2.8-1.3 5.4-3.3 7.7-5.8l-6-3.9C4132.7 1480.8 4132.2 1481.3 4131.6 1481.7"/><polygon fill="#2d65af" points="4115.2 1462.6 4108.7 1458.4 4105.9 1462.5 4112.3 1466.7 4118.3 1470.5 4133.2 1480.3 4139.3 1484.3 4154.8 1494.4 4160.9 1498.4 4167.6 1502.8 4170.8 1498.8 4164.1 1494.4 4157.9 1490.4 4142.6 1480.4 4136.5 1476.5 4121.2 1466.5"/><path fill="#6f93c9" d="M4071.9 1548c-3.9 5.4-2.8 12.7 2.6 16.5 5.4 3.7 13.1 2.5 17.2-2.9 4.1-5.4 3-13-2.5-16.7C4083.6 1541.1 4075.8 1542.6 4071.9 1548M4016.8 1545.5c-.1 0-.1-.1-.2-.1-5-3.4-11.7-2-15 3.1-3.3 5.1-1.9 12 3 15.5 4.7 3.3 10.9 2.5 14.5-1.9.2-.3.4-.5.6-.8C4023.2 1556.1 4021.9 1549 4016.8 1545.5M4093.6 1615.6c-.2.2-.3.3-.5.5-4 4.8-2.9 11.8 2.4 15.6 5.3 3.8 13 3.1 17.1-1.7 3.9-4.6 3.3-11.1-1.3-15.1-.3-.3-.6-.5-1-.7C4105.1 1610.4 4097.8 1611.1 4093.6 1615.6M4299.4 1389.6c.9.5 1.9.9 2.9 1.2 7.5 2.3 17.6-1.1 24-8.5 7.4-8.6 7-19.2-.9-23.6-7.9-4.4-20-.8-27.1 7.8-.3.4-.6.7-.8 1.1C4291.4 1375.9 4292.2 1385.5 4299.4 1389.6M4193.3 1310.2c.3-.5.6-1 .9-1.5 4.9-8.4 3.7-17.9-3.1-21.6-7.1-3.9-17.5.1-23.2 8.8-5.2 8-4.6 17.3 1 21.7.4.3.9.6 1.3.9C4177.2 1322.4 4187.5 1318.7 4193.3 1310.2M4192.4 1382.6c-5.6 7.7-4.7 17.2 2 21.2 6.8 4.1 17 1.2 22.8-6.5 6-7.8 5.2-17.6-1.8-21.7C4208.5 1371.6 4198.1 1374.7 4192.4 1382.6"/><rect width="837.6" height="1123.7" x="3414.9" y="1561.5" fill="#ffc261"/><rect width="715.8" height="1014.8" x="3475.8" y="1616" fill="#4a627c"/><g opacity=".38"><defs><rect id="L" width="1005" height="1300.5" x="3331.4" y="1473.5"/></defs><clipPath id="M"><use overflow="visible" xlink:href="#L"/></clipPath><g clip-path="url(#M)"><defs><rect id="N" width="1005" height="1300.5" x="3331.4" y="1473.5"/></defs><clipPath id="O"><use overflow="visible" xlink:href="#N"/></clipPath></g></g><path fill="#fbe486" d="M3965.7,2236.8h-264c-51.2,0-92.7-41.5-92.7-92.7v-123.7c0-51.2,41.5-92.7,92.7-92.7h264
			c51.2,0,92.7,41.5,92.7,92.7v123.7C4058.4,2195.3,4016.9,2236.8,3965.7,2236.8"/><polygon fill="#ffa730" points="3747 2201.1 3953.1 2082.2 3747 1963.2"/><rect width="294.2" height="26.3" x="3686.6" y="2393.1" fill="#f7f7f7"/><rect width="91.2" height="9.5" x="3788.1" y="2437.2" fill="#ffd08c"/><rect width="518.9" height="19.1" x="3574.3" y="2493" fill="#f7f7f7"/><path fill="#d12d34" d="M3641.9,2461.7h-51.3c-2.8,0-5-2.2-5-5V2439c0-2.8,2.2-5,5-5h51.3c2.8,0,5,2.2,5,5v17.7
			C3646.9,2459.4,3644.7,2461.7,3641.9,2461.7"/><path fill="#9696ed" d="M4087,2461.7h-49c-3.4,0-6.2-2.8-6.2-6.2v-29.9c0-3.4,2.8-6.2,6.2-6.2h49c3.4,0,6.2,2.8,6.2,6.2v29.9
			C4093.2,2458.9,4090.4,2461.7,4087,2461.7"/><path fill="#6f93c9" d="M1888.3,2014.6l-54.9,179.1l315.9,121.7l61.6-208.7L1888.3,2014.6z M2151.1,2296.5
			c-2.8,9.6-12,14.8-20.6,11.6c-8.4-3.2-12.9-13.2-10.4-22.6l-256.3-96.6c-2.9,7.3-9.8,11.3-15.8,9c-6.5-2.4-9.7-11.1-7.2-19.4
			c2.4-7.8,9-12.5,15.2-11.1l35.7-116.7c-0.3-0.1-0.6-0.1-0.8-0.2c-6.6-1.9-9.9-10.2-7.4-18.4c2.5-8.2,9.8-13.3,16.4-11.5
			c5.9,1.6,9.2,8.2,8.2,15.4l265.4,77.8c3.3-8.4,11.9-13.2,20-10.9c8.7,2.4,13.6,12.1,10.9,21.7c-2.8,9.5-12.1,15.2-20.8,12.6
			c-0.3-0.1-0.7-0.2-1-0.3l-40.6,137.1C2149.7,2277.7,2153.7,2287.4,2151.1,2296.5"/><path fill="#fff" d="M2172.9,2115.7c0.2-0.6,0.4-1.1,0.6-1.7l-265.4-77.8c-0.1,1-0.3,2-0.6,3c-2.4,7.9-9.3,13-15.7,11.6
			l-35.7,116.7c0.4,0.1,0.7,0.2,1.1,0.3c6.6,2.4,9.9,11.1,7.3,19.4c-0.2,0.6-0.4,1.1-0.6,1.7l256.3,96.6c0-0.1,0-0.2,0.1-0.3
			c2.8-9.5,11.8-14.7,20.3-11.6c0.5,0.2,0.9,0.4,1.4,0.6l40.6-137.1C2174.6,2134,2170.3,2124.7,2172.9,2115.7 M2128.7,2268.5
			l-262.4-96.5l36.7-120l266,80.3L2128.7,2268.5z"/><path fill="#aecff1" d="M1866.3,2172l262.4,96.5l40.4-136.2l-266-80.3L1866.3,2172z M2112.6,2169.6c8.2,2.6,12.8,12.3,10,21.7
			c-2.7,9.3-11.6,14.7-19.9,11.9c-8.2-2.7-12.5-12.4-9.8-21.6C2095.6,2172.4,2104.4,2167,2112.6,2169.6 M2023.4,2100.7
			c24.9,7.5,38.5,37.6,29.8,67.2c-8.7,29.6-36.2,46.5-60.9,37.8c-24.1-8.5-36.3-38.4-27.9-66.8
			C1972.9,2110.5,1999.1,2093.3,2023.4,2100.7 M1921.6,2108.6c6.9,2.2,10.4,10.9,7.9,19.4c-2.5,8.5-10.2,13.5-17.1,11.2
			c-6.8-2.3-10.3-11-7.7-19.4C1907.2,2111.5,1914.7,2106.5,1921.6,2108.6"/><path fill="#6f93c9" d="M2012.8 2176.9c1-1.2 1.7-2.5 2.2-4.1.7-2.4.7-4.8 0-7-.7-2.2-1.9-4.2-3.6-5.8-.5-.5-1.1-.9-1.8-1.3l-6.7 22.1c1.5.2 2.9.1 4.3-.3C2009.4 2179.9 2011.3 2178.6 2012.8 2176.9M2004.5 2129.9c-1 1.2-1.7 2.5-2.2 4.1-.7 2.3-.7 4.7 0 6.9.6 2.2 1.9 4.2 3.6 5.7.5.5 1.1.9 1.8 1.3l6.6-22c-1.5-.1-2.9 0-4.3.4C2007.9 2126.9 2006 2128.2 2004.5 2129.9"/><path fill="#6f93c9" d="M1992.3,2205.6c24.6,8.7,52.1-8.1,60.9-37.8c8.7-29.6-4.9-59.7-29.8-67.2c-24.3-7.3-50.5,9.8-59,38.2
			C1956,2167.2,1968.2,2197.1,1992.3,2205.6 M1997.5,2150.6c-0.3-0.4-0.6-0.9-0.9-1.3c-1.9-2.9-3.1-6.2-3.4-9.7
			c-0.3-2.7,0-5.5,0.8-8.2c1.2-4.1,3.6-7.5,6.6-10c3-2.5,6.7-4.1,10.7-4.5c1.9-0.2,3.8-0.1,5.7,0.3l2.9-9.6l4.7,1.5l-2.9,9.6
			c3.1,1.4,5.7,3.5,7.7,6c2.5,3.2,4.1,7,4.5,11.1c0.3,2.7,0,5.6-0.8,8.4l-4.3-1.4l-4.3-1.4c0.7-2.4,0.7-4.8,0-7
			c-0.7-2.2-1.9-4.2-3.7-5.7c-0.5-0.5-1.1-0.9-1.8-1.3l-6.8,22.5c3,1.4,5.6,3.6,7.6,6.2c0.3,0.4,0.7,0.9,1,1.3
			c1.9,2.9,3.2,6.3,3.5,9.9c0.3,2.8,0,5.6-0.8,8.4c-1.3,4.2-3.7,7.7-6.8,10.1c-3.1,2.5-6.9,4-10.8,4.3c-1.9,0.1-3.8,0-5.7-0.4
			l-2.9,9.7l-4.6-1.7l2.9-9.6c-3-1.5-5.6-3.7-7.5-6.3c-2.4-3.2-3.9-7.1-4.3-11.2c-0.3-2.7,0-5.5,0.8-8.3l8.4,2.9
			c-0.7,2.3-0.7,4.7,0,6.9c0.6,2.2,1.9,4.2,3.6,5.8c0.5,0.5,1.1,0.9,1.8,1.3l6.8-22.5C2002,2155.3,1999.5,2153.1,1997.5,2150.6"/><path fill="#2d65af" d="M2005.9 2146.6c-1.7-1.5-3-3.5-3.6-5.7-.6-2.2-.7-4.6 0-6.9.5-1.6 1.2-2.9 2.2-4.1 1.4-1.7 3.4-3 5.5-3.7 1.4-.4 2.8-.6 4.3-.4l2.7-8.8c-1.9-.4-3.8-.4-5.7-.3-3.9.4-7.6 2-10.7 4.5-3 2.5-5.4 5.9-6.6 10-.8 2.7-1.1 5.5-.8 8.2.3 3.5 1.5 6.8 3.4 9.7.3.4.6.9.9 1.3 2 2.6 4.5 4.7 7.5 6.1l2.7-8.8C2007.1 2147.5 2006.5 2147.1 2005.9 2146.6M2020.8 2128.6c1.7 1.5 3 3.5 3.7 5.7.7 2.2.7 4.6 0 7l4.3 1.4 4.3 1.4c.8-2.8 1.1-5.6.8-8.4-.4-4.1-2-8-4.5-11.1-2-2.5-4.6-4.6-7.7-6l-2.7 8.8C2019.7 2127.7 2020.3 2128.1 2020.8 2128.6M1996.5 2177.9c-1.7-1.5-2.9-3.6-3.6-5.8-.6-2.2-.7-4.6 0-6.9l-8.4-2.9c-.8 2.7-1.1 5.5-.8 8.3.4 4.1 1.9 8 4.3 11.2 1.9 2.6 4.5 4.8 7.5 6.3l2.7-8.8C1997.6 2178.8 1997 2178.4 1996.5 2177.9M2011.4 2160c1.7 1.5 3 3.5 3.6 5.8.7 2.2.7 4.6 0 7-.5 1.6-1.2 3-2.2 4.1-1.5 1.7-3.4 3-5.5 3.6-1.4.4-2.8.5-4.3.3l-2.7 8.9c1.9.4 3.8.6 5.7.4 4-.3 7.7-1.8 10.8-4.3 3.1-2.5 5.5-6 6.8-10.1.8-2.8 1.1-5.6.8-8.4-.4-3.6-1.6-7-3.5-9.9-.3-.5-.6-.9-1-1.3-2-2.6-4.6-4.7-7.6-6.1l-2.7 8.8C2010.2 2159.1 2010.8 2159.5 2011.4 2160"/><polygon fill="#2d65af" points="1995.6 2188 1992.7 2197.7 1997.3 2199.3 2000.2 2189.7 2002.9 2180.8 2009.6 2158.7 2012.2 2149.9 2019 2127.3 2021.7 2118.5 2024.6 2108.9 2019.9 2107.5 2017 2117.1 2014.3 2125.9 2007.7 2147.9 2005 2156.7 1998.2 2179.2"/><path fill="#6f93c9" d="M2102.7 2203.2c8.2 2.8 17.1-2.6 19.9-11.9 2.7-9.3-1.8-19-10-21.7-8.2-2.6-17 2.7-19.7 12C2090.2 2190.8 2094.6 2200.5 2102.7 2203.2M2120.3 2285.1c0 .1-.1.2-.1.3-2.6 9.4 2 19.5 10.4 22.6 8.5 3.2 17.8-1.9 20.6-11.6 2.6-9.1-1.4-18.8-9.1-22.4-.5-.2-.9-.4-1.4-.6C2132.1 2270.4 2123 2275.6 2120.3 2285.1M2182.6 2137c.3.1.6.2 1 .4 8.7 2.6 18-3.1 20.8-12.6 2.8-9.5-2.1-19.2-10.9-21.7-8.1-2.3-16.7 2.6-20 10.9-.2.6-.4 1.1-.6 1.7C2170.3 2124.7 2174.6 2134 2182.6 2137M1907.5 2039.1c.3-1 .5-2 .6-3 1-7.2-2.4-13.8-8.2-15.4-6.6-1.8-13.9 3.3-16.4 11.5-2.5 8.2.8 16.4 7.4 18.3.3.1.6.1.8.2C1898.2 2052.1 1905.1 2047.1 1907.5 2039.1M1857.2 2167.8c-.4-.1-.7-.2-1.1-.3-6.2-1.5-12.8 3.3-15.2 11.1-2.5 8.3.7 17 7.2 19.4 6.1 2.3 12.9-1.7 15.8-9 .2-.5.4-1.1.6-1.7C1867 2178.8 1863.7 2170.1 1857.2 2167.8M1912.4 2139.3c6.9 2.3 14.5-2.7 17.1-11.2 2.5-8.5-1-17.2-7.9-19.4-6.8-2.2-14.4 2.9-16.9 11.3C1902.1 2128.3 1905.6 2137 1912.4 2139.3"/></g><g><defs><path id="P" d="M1294.1,2299.6c-26.3,85.6,119.2,235.1,139.9,287c20.7,51.9-80.7,27.2-34.1,97.7
				c46.5,70.5,107.3,215.6,251.7,269.6c144.3,54.1,402.5-175.2,346.6-279.3c-34.8-64.9-62.2-51.2-96.6-37.6
				c-20.8,8.2-44.1,16.5-73.2,7.4c-77.2-24.1-13.2-95.7-72.7-121c-59.6-25.2-71.7,18.2-71.7,18.2s2.1-15.7-12.2-49
				c-14.4-33.3-59.9-57-117.2-49.2c-57.3,7.8-90.1-133.6-112-157.9c-18.7-20.9-52.5-39.9-83.8-39.9
				C1331.6,2245.6,1306.3,2259.9,1294.1,2299.6"/></defs><clipPath id="Q"><use overflow="visible" xlink:href="#P"/></clipPath><linearGradient id="R" x1="1822.035" x2="1825.976" y1="2786.53" y2="2786.53" gradientTransform="scale(164.0367 -164.0367) rotate(53.428 3701.858 -417.607)" gradientUnits="userSpaceOnUse"><stop offset="0" stop-color="#b6f2f0"/><stop offset=".14" stop-color="#b6f2f0"/><stop offset=".155" stop-color="#acecea"/><stop offset=".209" stop-color="#8bd8d6"/><stop offset=".27" stop-color="#6ec6c5"/><stop offset=".338" stop-color="#57b8b7"/><stop offset=".415" stop-color="#45adac"/><stop offset=".508" stop-color="#38a6a5"/><stop offset=".632" stop-color="#31a1a0"/><stop offset=".918" stop-color="#2fa09f"/><stop offset=".997" stop-color="#237877"/><stop offset="1" stop-color="#237877"/></linearGradient><polygon fill="url(#R)" points="903 2737.3 1547 1869.4 2418.9 2516.3 1775 3384.2" clip-path="url(#Q)"/></g><g><g opacity=".38"><defs><rect id="S" width="1001" height="1004.9" x="1148.3" y="2101.4"/></defs><clipPath id="T"><use overflow="visible" xlink:href="#S"/></clipPath><g clip-path="url(#T)"><defs><rect id="U" width="1001" height="1004.9" x="1148.3" y="2101.4"/></defs><clipPath id="V"><use overflow="visible" xlink:href="#U"/></clipPath></g></g></g><g><defs><path id="W" d="M1294.1,2299.6c-26.3,85.6,119.2,235.1,139.9,287c20.7,51.9-80.7,27.2-34.1,97.7
				c46.5,70.5,107.3,215.6,251.7,269.6c144.3,54.1,402.5-175.2,346.6-279.3c-34.8-64.9-62.2-51.2-96.6-37.6
				c-20.8,8.2-44.1,16.5-73.2,7.4c-77.2-24.1-13.2-95.7-72.7-121c-59.6-25.2-71.7,18.2-71.7,18.2s2.1-15.7-12.2-49
				c-14.4-33.3-59.9-57-117.2-49.2c-57.3,7.8-64.4-138.1-89.6-171.2c-10.1-13.3-47.6-28.2-85.4-28.2
				C1343.4,2244.1,1307,2257.7,1294.1,2299.6"/></defs><clipPath id="X"><use overflow="visible" xlink:href="#W"/></clipPath><path fill="#2d65af" d="M1918.2,2737.3c-41.9,26-95.2,2.4-135.4-15.5c-38.7-17.3-76.3-37-112.7-58.8
			c-74.7-44.9-144-98.8-206.5-159.5c-35.6-34.6-69-71.5-100-110.4c-1.5-1.9-4.2,0.8-2.7,2.7c56.1,70.4,120.3,134.4,191,190.2
			c68.6,54.1,143.4,100.5,223,136.5c42.8,19.4,100,46.1,145.1,18.1C1922.3,2739.3,1920.3,2735.9,1918.2,2737.3" clip-path="url(#X)"/><path fill="#2d65af" d="M1509.1 2630.7c21.8 4.8 43.3 10.8 64.4 17.7 5.2 1.7 10.4 3.5 15.5 5.3 3.9 1.4 8.2 3.6 12.5 3.4 4.4-.2 8-3.6 11.4-6l13.7-9.7c2-1.4.1-4.8-1.9-3.3-4.1 2.9-8.1 5.8-12.2 8.6-4.6 3.3-8.8 7.6-14.9 6-9.6-2.5-19-6.7-28.5-9.8-19.4-6.2-39.1-11.5-59-15.9C1507.7 2626.5 1506.7 2630.2 1509.1 2630.7M1691.8 2674.2c-5.2-8.6-7.5-19.2-11.3-28.6-3.6-9-7.6-17.8-12.1-26.5-9.1-17.8-19.9-34.8-32.1-50.6-1.5-1.9-4.8 0-3.3 1.9 12.2 15.9 23 32.8 32.1 50.6 4.7 9.1 8.9 18.4 12.6 27.9 3.5 8.9 5.8 18.8 10.7 27.1C1689.8 2678.2 1693.1 2676.3 1691.8 2674.2M1643 2720.5c19.9-2.1 39.9-2 59.8.1 8.5.9 18.1 3.9 26.6 2.2 7.7-1.5 13.6-7.9 21.6-8.3 2.5-.1 2.5-4 0-3.8-7.6.4-13 5.3-19.9 7.7-8.7 3-19.4-.7-28.3-1.6-19.9-2.1-39.9-2.2-59.8-.1C1640.6 2717 1640.5 2720.8 1643 2720.5M1810.7 2716.4c-19-28.1-43.6-51.5-68.1-74.7-1.8-1.7-4.5 1-2.7 2.7 24.3 22.9 48.7 46.1 67.5 73.9C1808.8 2720.4 1812.1 2718.5 1810.7 2716.4M1765.9 2804.5c13.6-4.1 27.4-6.7 41.5-8.3 12.3-1.3 24.8-2.6 36-8.1 2.2-1.1.3-4.4-1.9-3.3-11.9 5.8-25.2 6.5-38.1 8-13 1.5-25.9 4.1-38.4 8C1762.5 2801.5 1763.5 2805.2 1765.9 2804.5M1521.2 2542.1c2.6-4.6.7-10.1-.7-14.8-1.8-6-3.8-12-6-17.9-4.4-11.7-9.8-23-15.9-33.8-1.2-2.2-4.5-.2-3.3 1.9 5.6 9.9 10.5 20.1 14.7 30.7 2 5.1 3.9 10.3 5.5 15.6 1.4 4.4 5 12 2.5 16.3C1516.7 2542.3 1520 2544.3 1521.2 2542.1" clip-path="url(#X)"/></g><g><path fill="#80dbda" d="M1244.8,2158.9c-13.7-10.7-35.3-58-54.5-54.5c-14.8,2.7-11.5,22-8.8,32.9
			C1189.4,2197.2,1292,2197.9,1244.8,2158.9"/><polygon fill="#6f93c9" points="2369 2922.5 1803.6 3020.1 1783 2271.1 2332.7 2238.7"/><polygon fill="#4a627c" points="2329.4 2894.7 1847.2 2975.2 1827.3 2303.5 2297.5 2273.3"/><g opacity=".38"><defs><rect id="Y" width="788.2" height="993.1" x="1684.1" y="2127.7"/></defs><clipPath id="Z"><use overflow="visible" xlink:href="#Y"/></clipPath><g clip-path="url(#Z)"><defs><rect id="aa" width="788.2" height="993.1" x="1684.1" y="2127.7"/></defs><clipPath id="ab"><use overflow="visible" xlink:href="#aa"/></clipPath></g></g><path fill="#e6edf4" d="M2173.8,2667.3l-175.9,22.2c-35.3,4.5-65.1-19.1-66.2-52.6l-2.7-80.5c-1.1-33.1,26.6-62.6,61.6-66
			l174.6-16.6c32.8-3.1,60.3,19.9,61.8,51.5l3.6,76.6C2232.1,2633.9,2206.8,2663.1,2173.8,2667.3"/><polygon fill="#4a627c" points="2027.9 2662.6 2161.3 2571.1 2022.1 2510.2"/><polygon fill="#e6edf4" points="2188.8 2781.8 1991.9 2810.3 1991.3 2793 2188 2765"/><polygon fill="#e6edf4" points="2123 2809 2061.9 2818 2061.7 2811.8 2122.7 2802.8"/><polygon fill="#e6edf4" points="2263.7 2829.7 1915.4 2883.6 1915 2870.8 2263.1 2817.7"/><path fill="#d12d34" d="M1961.8,2842.7l-36,5.4c-1.9,0.3-3.6-1-3.6-2.8l-0.4-11.8c-0.1-1.8,1.5-3.6,3.4-3.8l36-5.3
			c1.9-0.3,3.5,1,3.6,2.8l0.4,11.7C1965.3,2840.7,1963.8,2842.5,1961.8,2842.7"/><path fill="#9696ed" d="M2258.2,2798.5l-31.3,4.7c-2.2,0.3-4-1.2-4.1-3.3l-0.9-19c-0.1-2.2,1.6-4.2,3.8-4.5l31.2-4.5
			c2.2-0.3,4,1.2,4.1,3.3l0.9,18.8C2262.1,2796.2,2260.4,2798.2,2258.2,2798.5"/><polygon fill="#aecff1" points="3397.3 2925.9 2868.6 2979.5 2840.2 2282.8 3352.6 2282.8"/><polygon fill="#4a627c" points="3359.4 2897.1 2908.5 2940.5 2881.6 2315.2 3320 2313.1"/><g opacity=".38"><defs><rect id="ac" width="768.5" height="914.3" x="2736.3" y="2171.1"/></defs><clipPath id="ad"><use overflow="visible" xlink:href="#ac"/></clipPath><g clip-path="url(#ad)"><defs><rect id="ae" width="768.5" height="914.3" x="2736.3" y="2171.1"/></defs><clipPath id="af"><use overflow="visible" xlink:href="#ae"/></clipPath></g></g><path fill="#e6edf4" d="M3209.5,2674l-164.3,9.8c-32.8,2-60.9-21.8-62.4-53l-3.6-75c-1.5-30.9,23.9-56.7,56.5-57.7l162.9-5.2
			c30.7-1,56.9,22.1,58.7,51.7l4.5,71.9C3263.7,2646.3,3240.4,2672.1,3209.5,2674"/><polygon fill="#4a627c" points="3072.8 2660.6 3196.3 2583.3 3065.3 2518.2"/><polygon fill="#e6edf4" points="3225.2 2782 3041.2 2796.1 3040.3 2779.9 3224.2 2766.3"/><polygon fill="#e6edf4" points="3163.8 2803.3 3106.7 2807.8 3106.4 2802 3163.5 2797.5"/><polygon fill="#e6edf4" points="3296.4 2831.8 2970.8 2859.5 2970.2 2847.6 3295.7 2820.5"/><path fill="#d12d34" d="M3013.6,2824.5l-33.5,2.7c-1.8,0.1-3.3-1.1-3.4-2.9l-0.5-11c-0.1-1.7,1.3-3.2,3.1-3.4l33.5-2.6
			c1.8-0.1,3.3,1.1,3.4,2.8l0.5,11C3016.7,2822.8,3015.3,2824.3,3013.6,2824.5"/><path fill="#9696ed" d="M3290.8,2802.2l-29.4,2.4c-2.1,0.2-3.8-1.3-3.9-3.4l-1.1-17.8c-0.1-2,1.4-3.8,3.5-4l29.3-2.2
			c2-0.2,3.8,1.4,3.9,3.4l1.1,17.7C3294.4,2800.2,3292.8,2802,3290.8,2802.2"/><polygon fill="#6f93c9" points="4594 3033.4 3994.4 2945.8 4022.7 2158.7 4587.7 2120.8"/><polygon fill="#4a627c" points="4543.8 2979.5 4033.6 2910.6 4057.5 2192.7 4541 2165"/><g opacity=".38"><defs><rect id="ag" width="796.1" height="1103.5" x="3891.1" y="2021.3"/></defs><clipPath id="ah"><use overflow="visible" xlink:href="#ag"/></clipPath><g clip-path="url(#ah)"><defs><rect id="ai" width="796.1" height="1103.5" x="3891.1" y="2021.3"/></defs><clipPath id="aj"><use overflow="visible" xlink:href="#ai"/></clipPath></g></g><path fill="#e6edf4" d="M4371.2,2641.7l-183.6-10.6c-33.7-1.9-59.8-33.8-58.8-71l2.4-89c1-36.5,28.3-66,61.5-66l180.7-0.1
			c37,0,67.4,31.8,67.2,71.3l-0.4,96.3C4440,2612.8,4408.8,2643.9,4371.2,2641.7"/><polygon fill="#4a627c" points="4218.5 2606.2 4363.2 2522 4222 2430.9"/><polygon fill="#e6edf4" points="4381 2786.6 4174.4 2767.4 4174.9 2747.5 4381.2 2765.6"/><polygon fill="#e6edf4" points="4307 2801.1 4242.9 2794.8 4243 2787.4 4307.1 2793.6"/><polygon fill="#e6edf4" points="4465.7 2870.4 4098.9 2829.6 4099.4 2815.3 4465.7 2854.7"/><path fill="#d12d34" d="M4144,2796.4l-33.4-3.4c-1.8-0.2-3.2-2-3.1-4.1l0.4-13.2c0.1-2.1,1.5-3.6,3.3-3.4l33.4,3.2
			c1.8,0.2,3.2,2,3.2,4.1l-0.3,13.3C4147.3,2795,4145.8,2796.6,4144,2796.4"/><path fill="#9696ed" d="M4461,2828.5l-37.4-3.8c-2.6-0.3-4.7-2.7-4.6-5.5l0.1-24.1c0-2.7,2.1-4.8,4.7-4.5l37.3,3.5
			c2.6,0.2,4.7,2.7,4.7,5.5l-0.1,24.4C4465.8,2826.7,4463.7,2828.8,4461,2828.5"/></g><g><defs><path id="ak" d="M3157.7,1183.7c3.8,19.5,50.4,17.9,54.1,69.4c2.9-44.6,41.9-42.3,56-66.4
				c-41.8-58.3-26.2-234.4-26.2-234.4l-75.5-6.5C3166.1,945.8,3205.6,1093.3,3157.7,1183.7"/></defs><clipPath id="al"><use overflow="visible" xlink:href="#ak"/></clipPath><linearGradient id="am" x1="1841.253" x2="1845.194" y1="2784.448" y2="2784.448" gradientTransform="scale(-64.2573 64.2573) rotate(-86.82 -565.707 2401.815)" gradientUnits="userSpaceOnUse"><stop offset="0" stop-color="#ffc7d0"/><stop offset=".118" stop-color="#e65e75"/><stop offset=".599" stop-color="#f291a1"/><stop offset=".65" stop-color="#f08a9b"/><stop offset=".723" stop-color="#ec778b"/><stop offset=".796" stop-color="#e65e75"/><stop offset="1" stop-color="#e65e75"/></linearGradient><polygon fill="url(#am)" points="3158.1 1259.1 3140.7 946.7 3267.5 939.7 3284.9 1252.1" clip-path="url(#al)"/></g><g><defs><path id="an" d="M3119.6,896c0,0-2.1,171.4,95.5,164.7c97.6-6.7,75.4-211.7,72.8-218.9c-1.4-3.9-53.2-30.1-99-30.1
				C3150.3,811.7,3116,830.2,3119.6,896"/></defs><clipPath id="ao"><use overflow="visible" xlink:href="#an"/></clipPath><radialGradient id="ap" cx="1811.418" cy="2780.402" r="3.941" gradientTransform="matrix(12.5941 47.2852 47.2871 -12.5936 -151089.328 -49732.707)" gradientUnits="userSpaceOnUse"><stop offset="0" stop-color="#ffadbb"/><stop offset=".144" stop-color="#fca4b3"/><stop offset=".38" stop-color="#f58c9d"/><stop offset=".676" stop-color="#e9647a"/><stop offset=".878" stop-color="#e0455f"/><stop offset="1" stop-color="#e0455f"/></radialGradient><polygon fill="url(#ap)" points="3299.6 762.8 3376.2 1050.5 3129 1116.3 3052.4 828.7" clip-path="url(#ao)"/></g><g><path fill="#6f93c9" d="M4531.7,2532.5l96.7,160.5l301.5-153.9l-114.2-185.2L4531.7,2532.5z M4917.1,2525.1c5.3,8.5,3,18.8-5.1,23
			c-7.9,4.1-18.5,0.8-23.8-7.4l-243,126.3c3.5,7.1,1.9,14.8-3.8,17.8c-6.1,3.2-14.8-0.2-19.2-7.6c-4.2-7-3.3-15,1.9-18.7l-63-104.5
			c-0.2,0.2-0.5,0.3-0.7,0.5c-5.8,3.6-14.2,0.6-18.6-6.7c-4.4-7.3-3.4-16.2,2.4-19.9c5.1-3.3,12.2-1.4,17,4.2l235.1-145.6
			c-4-8-1.9-17.7,5.2-22.2c7.6-4.9,18.1-2,23.4,6.4c5.3,8.4,3.2,19.1-4.5,23.9c-0.3,0.2-0.6,0.3-0.9,0.5l75,121.7
			C4902.1,2513.6,4912.1,2517,4917.1,2525.1"/><path fill="#fff" d="M4797,2388.1c-0.3-0.5-0.6-1-0.9-1.6L4561,2532.1c0.6,0.8,1.2,1.6,1.8,2.5c4.3,7.1,3.4,15.6-1.8,19.5
			l63,104.5c0.3-0.2,0.6-0.4,1-0.6c6.1-3.3,14.8,0,19.4,7.5c0.3,0.5,0.6,1,0.9,1.6l243-126.3c-0.1-0.1-0.1-0.2-0.2-0.3
			c-5.2-8.4-3-18.6,4.9-22.9c0.4-0.2,0.9-0.5,1.4-0.6l-75-121.7C4811.7,2399.1,4802,2396.1,4797,2388.1 M4881.2,2523l-247,130.9
			l-64.8-107.5l237.4-144.4L4881.2,2523z"/><path fill="#aecff1" d="M4634.2,2653.9l247-130.9l-74.5-121l-237.4,144.4L4634.2,2653.9z M4796.8,2469c7.5-4.4,17.7-1.3,22.8,7
			c5.1,8.3,3.1,18.5-4.4,22.7c-7.5,4.2-17.6,1-22.7-7.1C4787.6,2483.5,4789.4,2473.4,4796.8,2469 M4686,2489.3
			c22.2-13.5,53.7-3.5,69.9,22.7c16.2,26.3,10.4,58-12.5,70.5c-22.4,12.2-52.8,1.4-68.3-23.8
			C4659.6,2533.5,4664.3,2502.6,4686,2489.3 M4623.9,2570.5c6.2-3.7,15.1-0.5,19.7,7.1c4.6,7.6,3.3,16.7-3,20.2
			c-6.3,3.5-15,0.3-19.6-7.2C4616.4,2583.1,4617.7,2574.1,4623.9,2570.5"/><path fill="#6f93c9" d="M4735.6 2548.2c-.2-1.5-.7-3-1.6-4.4-1.3-2.1-3.1-3.7-5.2-4.7-2.1-1-4.4-1.4-6.7-1.1-.7.1-1.4.2-2.1.5l12 19.7c1.1-1 2-2.1 2.7-3.4C4735.6 2552.7 4736 2550.4 4735.6 2548.2M4695.2 2522.9c.2 1.5.7 3 1.6 4.4 1.3 2.1 3.1 3.6 5.1 4.6 2.1 1 4.4 1.4 6.6 1.1.7-.1 1.4-.2 2.1-.5l-12-19.7c-1.1 1-2 2.2-2.6 3.5C4695.2 2518.4 4694.9 2520.7 4695.2 2522.9"/><path fill="#6f93c9" d="M4743.4,2582.6c23-12.5,28.8-44.2,12.5-70.5c-16.2-26.2-47.7-36.3-69.9-22.7c-21.7,13.2-26.4,44.2-11,69.4
			C4690.5,2584,4720.9,2594.8,4743.4,2582.6 M4705.9,2542c-0.5,0-1.1-0.1-1.6-0.2c-3.4-0.5-6.7-1.9-9.5-4c-2.2-1.6-4.1-3.7-5.6-6.1
			c-2.2-3.6-3.2-7.7-3-11.6c0.2-3.9,1.5-7.7,3.8-10.9c1.1-1.5,2.4-2.9,4-4.1l-5.2-8.6l4.2-2.5l5.2,8.6c3.1-1.3,6.4-1.9,9.6-1.7
			c4,0.3,8,1.7,11.3,4.1c2.2,1.6,4.2,3.7,5.7,6.2l-3.9,2.3l-3.9,2.3c-1.3-2.1-3.1-3.7-5.2-4.7c-2.1-1-4.4-1.4-6.7-1.1
			c-0.7,0.1-1.4,0.3-2.1,0.5l12.2,20.1c3.1-1.3,6.4-1.8,9.7-1.6c0.6,0,1.1,0.1,1.6,0.2c3.5,0.5,6.8,1.9,9.8,4
			c2.2,1.6,4.2,3.7,5.7,6.2c2.3,3.7,3.2,7.9,3,11.8c-0.2,4-1.6,7.8-4.1,10.9c-1.2,1.5-2.5,2.8-4.1,4l5.2,8.6l-4.3,2.3l-5.2-8.6
			c-3.1,1.2-6.4,1.7-9.7,1.4c-4-0.4-7.9-1.8-11.2-4.3c-2.2-1.6-4.1-3.7-5.6-6.1l7.7-4.3c1.3,2.1,3.1,3.7,5.1,4.7
			c2.1,1,4.4,1.4,6.7,1.2c0.7-0.1,1.4-0.2,2.1-0.4l-12.2-20.1C4712.4,2541.7,4709.1,2542.2,4705.9,2542"/><path fill="#2d65af" d="M4708.5 2533.1c-2.3.3-4.6-.1-6.6-1.1-2.1-1-3.8-2.5-5.1-4.6-.9-1.4-1.4-2.9-1.6-4.4-.3-2.2 0-4.5.9-6.5.6-1.3 1.5-2.5 2.6-3.5l-4.8-7.9c-1.5 1.2-2.9 2.6-4 4.1-2.3 3.2-3.6 7-3.8 10.9-.2 3.9.8 8 3 11.6 1.5 2.4 3.4 4.5 5.6 6.1 2.8 2.1 6.1 3.4 9.5 4 .5.1 1.1.1 1.6.2 3.2.3 6.5-.2 9.6-1.5l-4.8-7.8C4710 2532.8 4709.2 2533 4708.5 2533.1M4705 2509.9c2.3-.3 4.6.1 6.7 1.1 2.1 1 3.9 2.5 5.2 4.7l3.9-2.3 3.9-2.3c-1.5-2.5-3.5-4.6-5.7-6.2-3.3-2.4-7.3-3.8-11.3-4.1-3.2-.2-6.5.4-9.6 1.7l4.8 7.8C4703.6 2510.2 4704.3 2510 4705 2509.9M4725.5 2561c-2.3.2-4.6-.2-6.7-1.2-2.1-1-3.9-2.6-5.1-4.7l-7.7 4.3c1.5 2.4 3.4 4.5 5.6 6.1 3.3 2.4 7.2 3.9 11.2 4.3 3.2.3 6.6-.2 9.7-1.4l-4.8-7.9C4727 2560.7 4726.3 2560.9 4725.5 2561M4722.1 2537.9c2.3-.3 4.6.1 6.7 1.1 2.1 1 3.9 2.6 5.2 4.7.9 1.4 1.4 2.9 1.6 4.4.3 2.2 0 4.5-1 6.5-.6 1.3-1.5 2.5-2.7 3.4l4.8 7.9c1.6-1.1 3-2.5 4.1-4 2.4-3.2 3.8-7 4.1-10.9s-.7-8.1-3-11.8c-1.5-2.5-3.5-4.6-5.7-6.2-2.9-2.1-6.3-3.5-9.8-4-.5-.1-1.1-.1-1.6-.2-3.3-.2-6.6.3-9.7 1.6l4.8 7.9C4720.6 2538.2 4721.4 2538 4722.1 2537.9"/><polygon fill="#2d65af" points="4732.5 2568.4 4737.7 2577 4742 2574.7 4736.8 2566 4732 2558.1 4719.9 2538.4 4715.2 2530.5 4702.9 2510.4 4698.1 2502.6 4692.9 2494 4688.7 2496.5 4693.9 2505.1 4698.7 2512.9 4710.7 2532.6 4715.4 2540.4 4727.7 2560.5"/><path fill="#6f93c9" d="M4815.3 2498.8c7.5-4.3 9.5-14.5 4.4-22.7-5.1-8.3-15.4-11.4-22.8-7-7.4 4.3-9.3 14.5-4.2 22.6C4797.7 2499.8 4807.8 2503 4815.3 2498.8M4888 2540.4c.1.1.1.2.2.3 5.3 8.2 15.8 11.5 23.8 7.4 8.1-4.2 10.4-14.5 5.1-23-5-8-14.9-11.5-22.8-8.2-.5.2-.9.4-1.4.6C4884.9 2521.8 4882.7 2532 4888 2540.4M4819.3 2395.1c.3-.2.6-.3.9-.5 7.7-4.8 9.8-15.5 4.5-23.9-5.2-8.4-15.7-11.3-23.4-6.4-7.1 4.5-9.2 14.2-5.2 22.2.3.5.6 1.1.9 1.6C4802 2396.1 4811.7 2399.1 4819.3 2395.1M4562.8 2534.6c-.5-.9-1.1-1.7-1.8-2.5-4.7-5.5-11.8-7.4-17-4.2-5.8 3.7-6.9 12.6-2.4 19.9 4.4 7.3 12.8 10.3 18.6 6.7.3-.1.5-.3.7-.5C4566.2 2550.1 4567.1 2541.6 4562.8 2534.6M4624.9 2657.9c-.3.2-.7.4-1 .6-5.2 3.6-6.1 11.7-1.9 18.7 4.5 7.4 13.1 10.8 19.2 7.6 5.8-3 7.3-10.7 3.8-17.8-.3-.5-.5-1-.9-1.6C4639.8 2658 4631.1 2654.6 4624.9 2657.9M4640.6 2597.8c6.3-3.6 7.7-12.6 3-20.2-4.6-7.6-13.5-10.7-19.7-7.1-6.2 3.6-7.5 12.6-2.9 20.1C4625.6 2598.1 4634.4 2601.4 4640.6 2597.8M1553 2976.6l-7.4 187 337 36 21-135.2L1553 2976.6zM1882 3188.5c-.9 6-6.4 10.3-12.5 9.7-6-.6-10.3-5.9-9.6-12l-272.2-32c-1.3 7-9.3 11.7-18.8 10.7-10.4-1.1-18.7-8.5-18.4-16.6.3-7.7 8.2-13.1 17.8-12.6l5.6-118.7c-.4-.1-.9-.1-1.3-.2-10.9-2.4-19.6-11.6-19.3-20.6.3-9 9.6-14.2 20.6-11.5 9.5 2.3 17.1 9.7 18.5 17.4l286.4 68.1c1.4-5.9 7-9.5 12.8-8.1 6.2 1.5 10.3 8 9.3 14.4-1 6.4-6.7 10.6-12.8 9.2-.2-.1-.5-.1-.7-.2l-13.7 90.7C1879.2 3177.6 1882.8 3182.8 1882 3188.5"/><path fill="#fff" d="M1878.5,3071.5c0.1-0.4,0.1-0.8,0.2-1.2l-286.4-68.1c0.2,1,0.3,2.1,0.2,3.2c-0.4,8.3-8.5,13.4-18.6,11.7
			l-5.6,118.7c0.6,0,1.2,0.1,1.7,0.1c10.3,1.3,18.2,8.8,17.9,16.7c0,0.5-0.1,1.1-0.2,1.6l272.2,32c0-0.1,0-0.1,0-0.2
			c0.9-6.1,6.6-10.5,12.7-9.8c0.3,0,0.7,0.1,1,0.2l13.7-90.7C1881.6,3084,1877.6,3077.9,1878.5,3071.5 M1864,3174.8l-279.3-36.2
			l6.3-119.8l286.5,64.4L1864,3174.8z"/><path fill="#aecff1" d="M1584.7,3138.6l279.3,36.2l13.6-91.7l-286.5-64.4L1584.7,3138.6z M1840.3,3112c6.6,1.2,11.2,7.5,10.4,14
			c-0.9,6.5-6.9,10.9-13.5,9.8c-6.7-1.1-11.5-7.3-10.7-13.9C1827.4,3115.3,1833.6,3110.8,1840.3,3112 M1750.4,3064.3
			c25.6,5.4,43.4,28.3,40.8,51.1c-2.6,22.4-24.1,37.8-49.2,34.4c-26.3-3.5-46.8-26-44.8-50.5
			C1699.1,3074.4,1723.5,3058.7,1750.4,3064.3 M1636.8,3074.9c9.5,1.7,16.7,9.5,16.2,17.4c-0.5,7.8-8.5,12.9-17.9,11.4
			c-9.6-1.5-17.1-9.3-16.7-17.3C1618.8,3078.3,1627.1,3073.2,1636.8,3074.9"/><path fill="#6f93c9" d="M1755.8 3125.8c.7-1 1.1-2.1 1.3-3.4.2-1.9-.3-3.7-1.4-5.4-1.1-1.7-2.7-3.1-4.7-4.2-.6-.3-1.3-.6-2-.9l-1.9 17.8c1.5 0 2.9-.2 4.1-.7C1753.1 3128.4 1754.7 3127.3 1755.8 3125.8M1737.7 3089.3c-.7 1-1.2 2.2-1.3 3.5-.2 2 .4 3.9 1.5 5.6 1.1 1.7 2.8 3.2 4.9 4.3.6.3 1.3.6 2 .9l1.9-18.2c-1.5 0-3 .1-4.2.6C1740.5 3086.7 1738.8 3087.8 1737.7 3089.3"/><path fill="#6f93c9" d="M1741.9,3149.8c25.1,3.3,46.7-12,49.2-34.4c2.6-22.8-15.2-45.7-40.8-51.1c-26.8-5.6-51.2,10.1-53.3,35
			C1695.1,3123.8,1715.7,3146.3,1741.9,3149.8 M1735.1,3106.5c-0.4-0.3-0.8-0.7-1.2-1c-2.6-2.2-4.6-4.8-5.7-7.7
			c-0.9-2.2-1.3-4.5-1-6.8c0.3-3.5,2-6.5,4.6-8.7c2.6-2.2,6-3.7,10-4.2c1.8-0.2,3.8-0.2,5.8,0l0.8-8l5,1l-0.8,8
			c3.3,1,6.3,2.6,8.7,4.5c3,2.4,5.3,5.4,6.5,8.6c0.8,2.1,1.1,4.4,0.9,6.6l-4.4-0.8l-4.4-0.8c0.2-1.9-0.3-3.8-1.4-5.5
			c-1.1-1.7-2.7-3.2-4.7-4.4c-0.6-0.4-1.3-0.7-2-0.9l-2,18.4c3.3,0.9,6.2,2.4,8.7,4.2c0.4,0.3,0.8,0.6,1.2,1
			c2.4,2.1,4.3,4.6,5.3,7.3c0.8,2.1,1.1,4.3,0.9,6.4c-0.4,3.3-2,6.1-4.4,8.3c-2.4,2.2-5.7,3.7-9.5,4.4c-1.8,0.3-3.7,0.4-5.6,0.3
			l-0.8,7.6l-4.9-0.7l0.8-7.7c-3.3-0.8-6.3-2.2-8.9-4c-3.2-2.3-5.6-5.2-6.9-8.3c-0.9-2.1-1.3-4.4-1-6.7l9.2,1.5
			c-0.2,1.9,0.4,3.8,1.5,5.5c1.1,1.7,2.8,3.1,4.8,4.1c0.6,0.3,1.3,0.6,2,0.8l1.9-18.2C1740.7,3109.9,1737.7,3108.4,1735.1,3106.5"/><path fill="#2d65af" d="M1742.8 3102.7c-2-1.1-3.7-2.6-4.9-4.3-1.1-1.7-1.7-3.6-1.5-5.6.1-1.3.6-2.5 1.3-3.5 1.1-1.5 2.7-2.7 4.7-3.3 1.3-.4 2.7-.6 4.2-.6l.8-7.3c-2-.2-3.9-.2-5.8 0-3.9.5-7.4 2-10 4.2-2.6 2.2-4.3 5.2-4.6 8.7-.2 2.3.2 4.6 1 6.8 1.1 2.8 3.1 5.5 5.7 7.7.4.3.8.7 1.2 1 2.5 1.9 5.6 3.4 8.9 4.3l.8-7.2C1744.1 3103.4 1743.4 3103.1 1742.8 3102.7M1753.7 3087.3c2 1.1 3.6 2.6 4.7 4.4 1.1 1.7 1.6 3.6 1.4 5.5l4.4.8 4.4.8c.3-2.2-.1-4.5-.9-6.6-1.2-3.2-3.5-6.2-6.5-8.6-2.5-1.9-5.4-3.5-8.7-4.5l-.8 7.3C1752.4 3086.7 1753 3087 1753.7 3087.3M1740.1 3128.2c-2-1-3.7-2.5-4.8-4.1-1.1-1.7-1.7-3.5-1.5-5.5l-9.2-1.5c-.2 2.3.2 4.5 1 6.7 1.3 3.2 3.7 6.1 6.9 8.3 2.5 1.8 5.6 3.2 8.9 4l.7-7.1C1741.4 3128.8 1740.7 3128.5 1740.1 3128.2M1750.9 3112.9c2 1 3.6 2.5 4.7 4.2 1.1 1.7 1.6 3.5 1.4 5.4-.1 1.3-.6 2.4-1.3 3.4-1 1.5-2.6 2.6-4.6 3.3-1.3.4-2.7.7-4.1.7l-.8 7.1c1.9.1 3.8 0 5.6-.3 3.8-.7 7-2.2 9.5-4.4 2.4-2.2 4-5 4.4-8.3.2-2.2-.1-4.4-.9-6.4-1-2.7-2.9-5.2-5.3-7.3-.4-.3-.8-.7-1.2-1-2.4-1.9-5.4-3.3-8.7-4.2l-.8 7.1C1749.6 3112.2 1750.3 3112.5 1750.9 3112.9"/><polygon fill="#2d65af" points="1741.4 3136.1 1740.6 3143.8 1745.5 3144.5 1746.3 3136.8 1747 3129.8 1748.9 3112 1749.7 3104.8 1751.7 3086.4 1752.4 3079.1 1753.3 3071.1 1748.3 3070.1 1747.5 3078.1 1746.7 3085.4 1744.8 3103.6 1744 3110.8 1742.1 3129"/><path fill="#6f93c9" d="M1837.2 3135.9c6.6 1 12.6-3.3 13.5-9.8.9-6.5-3.7-12.8-10.4-14-6.7-1.2-12.9 3.2-13.8 9.9C1825.7 3128.6 1830.5 3134.8 1837.2 3135.9M1860 3186c0 .1 0 .1 0 .2-.7 6 3.5 11.4 9.6 12 6 .6 11.6-3.7 12.5-9.7.8-5.7-2.8-10.9-8.3-12.1-.3-.1-.7-.1-1-.2C1866.5 3175.5 1860.8 3179.9 1860 3186M1887.4 3085.7c.2.1.5.1.7.2 6.1 1.3 11.8-2.8 12.8-9.2 1-6.5-3.2-12.9-9.3-14.4-5.8-1.4-11.4 2.1-12.8 8.1-.1.4-.2.8-.2 1.2C1877.6 3077.9 1881.6 3084 1887.4 3085.7M1592.5 3005.4c.1-1.1 0-2.1-.2-3.2-1.4-7.7-9-15.1-18.5-17.4-11-2.7-20.3 2.5-20.6 11.5-.3 9 8.4 18.2 19.3 20.6.5.1.9.2 1.3.2C1584 3018.7 1592.2 3013.7 1592.5 3005.4M1570.1 3135.9c-.6-.1-1.2-.1-1.7-.1-9.7-.5-17.6 4.9-17.8 12.5-.3 8.1 8 15.5 18.4 16.6 9.5 1 17.5-3.7 18.8-10.7.1-.5.2-1 .2-1.6C1588.3 3144.7 1580.4 3137.2 1570.1 3135.9M1635 3103.8c9.4 1.5 17.4-3.6 17.9-11.4.5-7.9-6.6-15.7-16.2-17.4-9.7-1.8-18 3.4-18.4 11.5C1617.9 3094.5 1625.4 3102.3 1635 3103.8M1821.4 1212.1l-104.3 123.2 208.9 203.6 119.6-144.3L1821.4 1212.1zM1933.9 1524.6c-5.5 6.7-14.6 7.6-20.2 2.2-5.6-5.4-5.8-14.9-.5-21.5l-170.2-163.5c-4.8 4.8-11.6 5.7-15.6 1.8-4.3-4.1-3.9-12.1.9-17.8 4.5-5.4 11.4-6.9 15.8-3.6l67.9-80.3c-.2-.1-.4-.3-.6-.4-4.6-3.8-4.4-11.4.4-17.1 4.7-5.6 12.3-7.2 16.9-3.5 4.1 3.3 4.5 9.6 1.3 15l183.7 151.7c5.4-5.5 13.9-6.4 19.6-1.9 6.1 4.9 6.7 14.2 1.2 20.8-5.4 6.6-14.7 7.9-20.8 2.9-.2-.2-.4-.4-.7-.6l-78.7 94.8C1939.1 1509.2 1939 1518.3 1933.9 1524.6"/><path fill="#fff" d="M2012.5,1388.8c0.3-0.4,0.7-0.8,1-1.2l-183.7-151.7c-0.4,0.7-0.9,1.5-1.5,2.1c-4.6,5.5-11.8,7.1-16.4,3.9
			l-67.9,80.3c0.3,0.2,0.5,0.4,0.8,0.6c4.4,4.1,4.1,12.1-0.8,17.9c-0.3,0.4-0.7,0.8-1,1.1l170.2,163.5c0.1-0.1,0.1-0.2,0.2-0.2
			c5.4-6.6,14.4-7.6,20.1-2.3c0.3,0.3,0.6,0.6,0.9,0.9l78.7-94.8C2007.6,1403.9,2007.4,1395.1,2012.5,1388.8 M1925.6,1494.8
			l-175-165.5l69.8-82.6l183.4,153.9L1925.6,1494.8z"/><path fill="#aecff1" d="M1750.6,1329.3l175,165.5l78.2-94.2l-183.4-153.9L1750.6,1329.3z M1946.4,1411c5.6,4.9,5.9,14.1,0.6,20.6
			c-5.3,6.5-14.2,7.7-19.8,2.7c-5.5-4.9-5.7-14.1-0.4-20.5C1932,1407.4,1940.8,1406.2,1946.4,1411 M1899.2,1326.1
			c17.2,14.4,17.7,42.9,0.8,63.3c-17,20.5-44.5,24.5-61,9.2c-16.2-14.9-15.7-42.7,0.6-62.4
			C1855.9,1316.8,1882.4,1312.1,1899.2,1326.1 M1815.8,1297.9c4.7,4.1,4.6,12.2-0.3,18.1c-4.9,5.9-12.7,7.3-17.4,3.1
			c-4.6-4.1-4.4-12.2,0.4-18C1803.5,1295.3,1811.2,1293.8,1815.8,1297.9"/><path fill="#6f93c9" d="M1864.9 1382.9c1.2-.6 2.2-1.4 3.2-2.5 1.4-1.6 2.2-3.6 2.4-5.5.2-2-.1-4-.9-5.8-.3-.6-.6-1.1-1-1.6l-12.8 15.3c1.1.6 2.3 1.1 3.5 1.2C1861.2 1384.1 1863.2 1383.8 1864.9 1382.9M1874.3 1342.9c-1.2.6-2.2 1.4-3.1 2.5-1.4 1.6-2.1 3.5-2.4 5.5-.2 2 .1 3.9.9 5.7.3.6.6 1.1 1 1.6l12.7-15.2c-1.1-.6-2.3-1-3.6-1.1C1878 1341.7 1876.1 1342 1874.3 1342.9"/><path fill="#6f93c9" d="M1839,1398.7c16.5,15.3,44,11.3,61-9.2c16.9-20.5,16.4-48.9-0.8-63.3c-16.8-14.1-43.3-9.4-59.7,10.2
			C1823.2,1356,1822.8,1383.8,1839,1398.7 M1861.7,1356.9c-0.1-0.5-0.2-0.9-0.3-1.4c-0.5-2.9-0.3-6,0.6-8.9c0.7-2.2,1.9-4.3,3.4-6.2
			c2.4-2.8,5.4-4.7,8.7-5.7c3.3-0.9,6.7-0.9,10,0.1c1.5,0.5,3,1.2,4.4,2.1l5.5-6.6l3.2,2.7l-5.6,6.6c1.9,2.1,3.3,4.7,4,7.4
			c0.9,3.4,0.9,7-0.2,10.4c-0.7,2.3-1.9,4.4-3.5,6.3l-2.9-2.6l-2.9-2.6c1.4-1.6,2.1-3.5,2.4-5.5c0.2-2-0.1-4-1-5.7
			c-0.3-0.6-0.6-1.1-1-1.6l-13,15.5c1.9,2.2,3.3,4.7,4,7.5c0.1,0.5,0.2,0.9,0.3,1.4c0.5,3,0.4,6.1-0.6,9.1c-0.7,2.3-1.9,4.5-3.5,6.4
			c-2.4,2.9-5.5,4.8-8.8,5.7c-3.3,0.9-6.8,0.8-10-0.3c-1.5-0.5-3-1.3-4.4-2.3l-5.6,6.7l-3.1-2.9l5.6-6.6c-1.9-2.2-3.2-4.8-3.8-7.5
			c-0.8-3.4-0.7-7,0.4-10.3c0.7-2.2,1.9-4.4,3.5-6.3l5.6,5.1c-1.4,1.6-2.1,3.5-2.4,5.5c-0.3,2,0,4,0.9,5.8c0.3,0.6,0.6,1.1,1,1.6
			l13-15.5C1863.7,1362.1,1862.4,1359.6,1861.7,1356.9"/><path fill="#2d65af" d="M1869.8 1356.6c-.8-1.8-1.2-3.8-.9-5.7.2-2 1-3.8 2.4-5.5.9-1.1 2-1.9 3.1-2.5 1.7-.9 3.7-1.3 5.6-1 1.2.1 2.4.5 3.6 1.1l5.1-6.1c-1.4-.9-2.9-1.7-4.4-2.1-3.3-1-6.7-1-10-.1-3.2.9-6.3 2.9-8.7 5.7-1.6 1.9-2.7 4-3.4 6.2-.9 2.9-1.1 5.9-.6 8.9.1.5.2.9.3 1.4.7 2.7 2 5.2 3.9 7.4l5.1-6.1C1870.4 1357.7 1870 1357.2 1869.8 1356.6M1887.7 1347.4c.9 1.8 1.2 3.8 1 5.7-.2 2-1 3.9-2.4 5.5l2.9 2.6 2.9 2.6c1.6-1.9 2.8-4.1 3.5-6.4 1.1-3.4 1.1-7 .2-10.4-.7-2.7-2.1-5.2-4-7.4l-5.1 6.1C1887.1 1346.3 1887.4 1346.8 1887.7 1347.4M1851.7 1378.2c-.8-1.8-1.1-3.8-.9-5.8.3-2 1-3.9 2.4-5.5l-5.6-5.1c-1.6 1.9-2.7 4-3.5 6.3-1.1 3.4-1.2 6.9-.4 10.3.7 2.7 2 5.3 3.8 7.5l5.1-6.1C1852.2 1379.3 1851.9 1378.8 1851.7 1378.2M1869.5 1369c.8 1.8 1.2 3.8.9 5.8-.2 2-1 3.9-2.4 5.5-.9 1.1-2 1.9-3.2 2.5-1.7.9-3.7 1.2-5.6 1-1.2-.2-2.4-.6-3.5-1.2l-5.1 6.1c1.4 1 2.8 1.8 4.4 2.3 3.3 1.1 6.7 1.2 10 .3 3.3-.9 6.4-2.8 8.8-5.7 1.6-1.9 2.8-4.1 3.5-6.4.9-3 1.1-6.1.6-9.1-.1-.5-.2-.9-.3-1.4-.7-2.7-2-5.3-4-7.5l-5.1 6.1C1868.9 1367.9 1869.3 1368.5 1869.5 1369"/><polygon fill="#2d65af" points="1847.5 1385.9 1841.9 1392.5 1845.1 1395.4 1850.6 1388.8 1855.8 1382.7 1868.6 1367.4 1873.7 1361.3 1886.7 1345.8 1891.8 1339.7 1897.3 1333.1 1894.1 1330.3 1888.6 1336.9 1883.5 1343 1870.7 1358.2 1865.6 1364.3 1852.6 1379.8"/><path fill="#6f93c9" d="M1927.2 1434.3c5.6 5 14.4 3.8 19.8-2.7 5.3-6.5 5-15.7-.6-20.6-5.6-4.8-14.4-3.6-19.6 2.8C1921.5 1420.2 1921.7 1429.3 1927.2 1434.3M1913.3 1505.1c-.1.1-.1.2-.2.2-5.2 6.6-5 16.1.5 21.5 5.7 5.5 14.7 4.5 20.2-2.2 5.2-6.3 5.2-15.4.4-20.9-.3-.3-.6-.7-.9-.9C1927.7 1497.5 1918.7 1498.5 1913.3 1505.1M2012.9 1408.9c.2.2.4.4.7.6 6 5 15.3 3.7 20.7-2.9 5.4-6.6 4.8-16-1.2-20.8-5.7-4.6-14.1-3.6-19.6 1.9-.4.4-.7.7-1 1.2C2007.4 1395.1 2007.6 1403.9 2012.9 1408.9M1828.3 1238.1c.6-.7 1.1-1.4 1.5-2.1 3.2-5.4 2.8-11.7-1.3-15-4.6-3.7-12.2-2.1-16.9 3.5-4.7 5.6-4.9 13.3-.3 17.1.2.2.4.3.6.4C1816.5 1245.2 1823.7 1243.5 1828.3 1238.1M1744.7 1322.9c-.2-.2-.5-.4-.8-.6-4.4-3.3-11.3-1.8-15.8 3.6-4.8 5.7-5.2 13.7-.9 17.8 4 3.9 10.8 3 15.6-1.8.4-.4.7-.7 1-1.1C1748.8 1335 1749.1 1326.9 1744.7 1322.9M1798.2 1319c4.7 4.2 12.4 2.8 17.4-3.1 4.9-5.9 5-14 .3-18.1-4.7-4.1-12.4-2.6-17.2 3.2C1793.7 1306.9 1793.5 1314.9 1798.2 1319"/><path fill="#ff9725" d="M3743.6,2544.9c32.6-30.8,44.9-71.5,44.9-71.5s-53.8,2.8-64.8,20.6c-23.1,17.8-61.5,20.6-61.5,20.6
			l20.8,33.6C3703.7,2549.8,3723.8,2548.3,3743.6,2544.9"/><path fill="#e65e75" d="M3743.6,2544.9c-19.8,3.5-39.9,4.9-60.5,3.2l4.7,7.5c0,0-0.8,0.5-2.4,1.6c8.7,3.6,18.1,5.4,27.6,5.8
			c13.4,0.6,27,1.4,40.4,1.1c-7.7-2.7-15.7-5.2-24-7.5C3734.6,2552.9,3739.3,2549,3743.6,2544.9"/><path fill="#ff8333" d="M3567.9,2864.7c74.9,82.8,193.1,74.9,295.6,55.2c89.9-15.5,128.6-101.7,135.2-189.6
			c-66.2-75-179.3-143.1-245.3-166.2c-13.5,0.3-27.1-0.5-40.4-1.1c-9.5-0.4-18.9-2.1-27.6-5.8c-13.8,9.2-94.3,82.3-154.6,166.2
			C3525.9,2775.6,3528.6,2825.4,3567.9,2864.7"/><path fill="#ffca75" d="M3998.7,2730.3c-6.7,87.9-45.4,174.1-135.2,189.6c-102.5,19.7-220.7,27.6-295.6-55.2
			c-39.3-39.3-42-89.1-37.1-141.3c-71.5,99.6-114.5,214.5,16.7,255.9c254.4,80.3,490.3,51.6,502.9-130.5
			C4055.3,2811.1,4033.5,2769.7,3998.7,2730.3"/><path fill="#172c51" d="M3739.6 2724.8c-6.4-2.4-11.9-6.4-15.8-11.4-3.9-5-6.1-11-6-17.4 0-4.3 1.1-8.4 2.9-12.1 2.7-5.6 7.4-10.3 13.1-13.6 3.7-2.2 8-3.6 12.5-4.5l.1-24.3c-6 .6-11.8 1.9-17.2 3.8-11.4 4.1-21.2 11.1-28.1 19.8-6.9 8.7-11 19.4-11 30.8 0 7.6 1.7 14.9 4.9 21.5 4.1 8.6 10.7 16.1 18.9 21.8 1.3.9 2.6 1.8 4 2.6 8.1 4.8 17.7 8 27.9 9.2l.1-24.3C3743.7 2726.1 3741.6 2725.5 3739.6 2724.8M3767.8 2667.5c6.4 2.4 11.9 6.4 15.8 11.4 3.9 5 6.1 11 6 17.4l13.8.1 13.8.1c0-7.6-1.7-14.9-4.9-21.5-4.8-9.9-12.8-18.4-22.9-24.4-8.1-4.8-17.7-8-27.9-9.2l-.1 24.3C3763.7 2666.1 3765.8 2666.7 3767.8 2667.5M3739.1 2811.1c-6.4-2.4-11.9-6.4-15.8-11.4-3.9-5-6.1-11-6-17.4l-27.6-.2c0 7.6 1.7 14.9 4.9 21.5 4.8 9.9 12.8 18.4 22.9 24.4 8.1 4.8 17.7 8 27.9 9.2l.1-24.3C3743.2 2812.4 3741.1 2811.8 3739.1 2811.1M3767.4 2753.8c6.4 2.4 11.9 6.4 15.8 11.4 3.9 5 6.1 11 6 17.4 0 4.3-1.1 8.4-2.9 12.1-2.7 5.6-7.4 10.3-13.1 13.6-3.7 2.2-8 3.6-12.5 4.5l-.1 24.3c6-.6 11.8-1.9 17.2-3.8 11.4-4.1 21.2-11 28.1-19.8 6.9-8.7 11-19.4 11-30.8 0-7.6-1.7-14.9-4.9-21.5-4.1-8.6-10.7-16.1-18.9-21.8-1.3-.9-2.6-1.8-4-2.6-8.1-4.8-17.7-8-27.9-9.2l-.1 24.3C3763.2 2752.4 3765.3 2753 3767.4 2753.8"/><polygon fill="#172c51" points="3745.3 2837.1 3745.2 2863.6 3760.4 2863.7 3760.5 2837.2 3760.6 2812.8 3761 2752 3761.1 2727.8 3761.5 2665.7 3761.6 2641.5 3761.8 2615 3746.6 2614.9 3746.4 2641.4 3746.3 2665.7 3745.9 2726.5 3745.8 2750.8 3745.4 2812.8"/><path fill="#6f93c9" d="M3537.5,2829.1l-55,179.1l315.9,121.7l61.6-208.7L3537.5,2829.1z M3800.3,3111c-2.8,9.6-12,14.8-20.6,11.6
			c-8.4-3.2-12.9-13.2-10.4-22.6l-256.3-96.6c-2.9,7.3-9.8,11.3-15.8,9c-6.5-2.4-9.7-11.1-7.2-19.4c2.4-7.8,9-12.5,15.2-11.1
			l35.7-116.7c-0.3-0.1-0.6-0.1-0.8-0.2c-6.6-1.9-9.9-10.2-7.4-18.4c2.5-8.2,9.8-13.3,16.4-11.5c5.9,1.6,9.2,8.2,8.2,15.4
			l265.4,77.8c3.3-8.4,11.9-13.2,20-10.9c8.7,2.4,13.6,12.1,10.9,21.7c-2.8,9.5-12.1,15.2-20.8,12.6c-0.3-0.1-0.7-0.2-1-0.3
			l-40.6,137.1C3798.9,3092.2,3803,3101.9,3800.3,3111"/><path fill="#fff" d="M3822.2,2930.2c0.2-0.6,0.4-1.2,0.6-1.7l-265.4-77.9c-0.1,1-0.3,2-0.6,3c-2.4,7.9-9.3,13-15.7,11.7
			l-35.7,116.7c0.4,0.1,0.7,0.2,1.1,0.3c6.6,2.4,9.9,11.1,7.3,19.4c-0.2,0.6-0.4,1.1-0.6,1.7l256.3,96.6c0-0.1,0-0.2,0.1-0.3
			c2.8-9.5,11.8-14.7,20.3-11.6c0.5,0.2,0.9,0.4,1.4,0.6l40.6-137.1C3823.8,2948.5,3819.5,2939.2,3822.2,2930.2 M3777.9,3083
			l-262.4-96.5l36.7-120l266,80.3L3777.9,3083z"/><path fill="#aecff1" d="M3515.5,2986.5l262.4,96.5l40.4-136.2l-266-80.3L3515.5,2986.5z M3761.8,2984.1c8.2,2.6,12.8,12.3,10,21.7
			c-2.7,9.3-11.6,14.7-19.9,11.9c-8.2-2.7-12.5-12.4-9.8-21.6C3744.8,2986.9,3753.6,2981.5,3761.8,2984.1 M3672.6,2915.2
			c24.9,7.5,38.5,37.6,29.8,67.2c-8.7,29.6-36.2,46.5-60.9,37.8c-24.1-8.5-36.3-38.4-27.9-66.8
			C3622.1,2925,3648.3,2907.9,3672.6,2915.2 M3570.8,2923.2c6.9,2.2,10.4,10.9,7.9,19.4c-2.6,8.5-10.2,13.6-17.1,11.2
			c-6.8-2.3-10.3-11-7.7-19.4C3556.4,2926,3564,2921,3570.8,2923.2"/><path fill="#6f93c9" d="M3662 2991.4c1-1.2 1.7-2.5 2.2-4.1.7-2.4.7-4.8 0-7-.7-2.2-1.9-4.2-3.6-5.8-.5-.5-1.1-.9-1.8-1.3l-6.7 22.1c1.5.2 2.9.1 4.3-.3C3658.6 2994.4 3660.5 2993.1 3662 2991.4M3653.8 2944.5c-1 1.2-1.7 2.5-2.2 4.1-.7 2.3-.7 4.7 0 6.9.6 2.2 1.9 4.2 3.6 5.7.5.5 1.1.9 1.8 1.3l6.6-22c-1.5-.1-2.9 0-4.3.4C3657.1 2941.4 3655.2 2942.7 3653.8 2944.5"/><path fill="#6f93c9" d="M3641.6,3020.1c24.6,8.7,52.1-8.1,60.9-37.8c8.7-29.6-4.9-59.7-29.8-67.2c-24.3-7.3-50.5,9.8-59,38.2
			C3605.2,2981.7,3617.5,3011.6,3641.6,3020.1 M3646.7,2965.1c-0.3-0.4-0.6-0.9-0.9-1.3c-1.9-2.9-3.1-6.2-3.4-9.7
			c-0.3-2.7,0-5.5,0.8-8.2c1.2-4.1,3.6-7.5,6.6-10c3-2.5,6.7-4.1,10.7-4.5c1.9-0.2,3.8-0.1,5.7,0.2l2.9-9.6l4.7,1.5l-2.9,9.6
			c3.1,1.4,5.7,3.5,7.7,6c2.5,3.2,4.1,7,4.5,11.1c0.3,2.7,0,5.6-0.8,8.4l-4.3-1.4l-4.3-1.4c0.7-2.4,0.7-4.8,0-7
			c-0.7-2.2-1.9-4.2-3.7-5.7c-0.5-0.5-1.1-0.9-1.8-1.3l-6.8,22.5c3,1.4,5.7,3.6,7.6,6.2c0.3,0.4,0.7,0.9,1,1.3
			c1.9,2.9,3.2,6.3,3.5,9.9c0.3,2.8,0,5.6-0.8,8.4c-1.2,4.2-3.7,7.7-6.8,10.1c-3.1,2.5-6.9,4-10.8,4.3c-1.9,0.1-3.8,0-5.7-0.4
			l-2.9,9.7l-4.6-1.7l2.9-9.6c-3-1.5-5.6-3.7-7.5-6.3c-2.4-3.2-3.9-7.1-4.3-11.2c-0.3-2.7,0-5.5,0.8-8.3l8.4,2.9
			c-0.7,2.4-0.7,4.7,0,6.9c0.6,2.2,1.9,4.2,3.6,5.8c0.5,0.5,1.1,0.9,1.8,1.3l6.8-22.5C3651.3,2969.8,3648.7,2967.6,3646.7,2965.1"/><path fill="#2d65af" d="M3655.2 2961.1c-1.7-1.5-3-3.5-3.6-5.7-.6-2.2-.7-4.6 0-6.9.5-1.6 1.2-2.9 2.2-4.1 1.4-1.7 3.4-3 5.5-3.7 1.4-.4 2.8-.6 4.3-.4l2.7-8.8c-1.9-.4-3.8-.4-5.7-.2-3.9.4-7.6 2-10.7 4.5-3 2.5-5.4 5.9-6.6 10-.8 2.7-1.1 5.5-.8 8.2.3 3.5 1.5 6.8 3.4 9.7.3.5.6.9.9 1.3 2 2.6 4.5 4.7 7.5 6.1l2.7-8.8C3656.3 2962 3655.7 2961.6 3655.2 2961.1M3670 2943.1c1.7 1.5 3 3.5 3.7 5.7.7 2.2.7 4.6 0 7l4.3 1.4 4.3 1.4c.8-2.8 1.1-5.6.8-8.4-.4-4.1-2-8-4.5-11.1-2-2.5-4.6-4.6-7.7-6l-2.7 8.8C3668.9 2942.2 3669.5 2942.6 3670 2943.1M3645.7 2992.4c-1.7-1.5-2.9-3.6-3.6-5.8-.6-2.2-.7-4.6 0-6.9l-8.4-2.9c-.8 2.7-1.1 5.5-.8 8.3.4 4.1 1.9 8 4.3 11.2 1.9 2.6 4.5 4.8 7.5 6.3l2.7-8.8C3646.9 2993.3 3646.3 2992.9 3645.7 2992.4M3660.6 2974.5c1.7 1.5 3 3.5 3.6 5.8s.7 4.6 0 7c-.5 1.6-1.2 3-2.2 4.1-1.5 1.7-3.4 3-5.5 3.6-1.4.4-2.8.5-4.3.3l-2.7 8.9c1.9.4 3.8.6 5.7.4 4-.3 7.7-1.8 10.8-4.3 3.1-2.5 5.5-6 6.8-10.1.8-2.8 1.1-5.6.8-8.4-.4-3.6-1.6-7-3.5-9.9-.3-.5-.6-.9-1-1.3-2-2.6-4.6-4.7-7.6-6.2l-2.7 8.8C3659.4 2973.6 3660 2974 3660.6 2974.5"/><polygon fill="#2d65af" points="3644.8 3002.5 3641.9 3012.2 3646.6 3013.8 3649.5 3004.2 3652.1 2995.3 3658.8 2973.2 3661.5 2964.4 3668.3 2941.8 3670.9 2933 3673.8 2923.4 3669.1 2922 3666.2 2931.6 3663.6 2940.4 3656.9 2962.4 3654.3 2971.2 3647.5 2993.7"/><path fill="#6f93c9" d="M3752 3017.7c8.2 2.8 17.1-2.6 19.9-11.9 2.7-9.3-1.8-19.1-10-21.7-8.2-2.6-17 2.7-19.7 12C3739.4 3005.3 3743.8 3015 3752 3017.7M3769.5 3099.6c0 .1-.1.2-.1.3-2.6 9.4 2 19.5 10.4 22.6 8.5 3.2 17.8-2 20.6-11.6 2.6-9.1-1.4-18.8-9.1-22.4-.5-.2-.9-.4-1.4-.6C3781.3 3084.9 3772.2 3090.1 3769.5 3099.6M3831.8 2951.5c.3.1.6.2 1 .3 8.7 2.6 18-3.1 20.8-12.6 2.8-9.5-2.1-19.2-10.9-21.7-8.1-2.3-16.7 2.6-20 10.9-.2.6-.4 1.1-.6 1.7C3819.5 2939.3 3823.8 2948.5 3831.8 2951.5M3556.7 2853.6c.3-1 .5-2 .6-3 1-7.2-2.4-13.8-8.2-15.4-6.6-1.8-13.9 3.3-16.4 11.5-2.5 8.2.8 16.4 7.4 18.4.3.1.6.1.8.2C3547.4 2866.6 3554.3 2861.6 3556.7 2853.6M3506.4 2982.3c-.4-.1-.7-.2-1.1-.3-6.2-1.5-12.8 3.3-15.2 11.1-2.5 8.3.7 17 7.2 19.4 6.1 2.3 12.9-1.7 15.8-9 .2-.5.4-1.1.6-1.7C3516.2 2993.4 3512.9 2984.6 3506.4 2982.3M3561.6 2953.8c6.9 2.3 14.5-2.7 17.1-11.2 2.5-8.5-1-17.2-7.9-19.4-6.8-2.2-14.4 2.9-16.9 11.3C3551.3 2942.8 3554.8 2951.5 3561.6 2953.8"/><path fill="#242459" d="M3134.7,915.8c0,0,30.2,80.1-23.9,79.4c-54.1-0.7-58.8-72.5-35.4-100.9c-23.6-14.3-32.8-93.7,36.1-87.3
			c0,0,17.6-91.3,143.3-33.7c0,0,36.4,25.3,49.4,18.2c13.1-7,65.7-16.1,70,18.3c4.2,34.4-19.7,36.9-27,33.7
			c10.5,9.1,27.7,45-2.5,54.1c-30.2,9.1-64.3,11.6-70.2-18.6c0,0-42.8,24.2-41.8-14.8c1.1-39-65-29.8-73.4-27
			c14,10.5,12.6,48.2-19.2,45.9C3154.2,892.4,3150.9,921.9,3134.7,915.8"/><path fill="#ff9725" d="M3220.7 1284.4c0 3.9-3.2 7.1-7.1 7.1-3.9 0-7.1-3.2-7.1-7.1 0-3.9 3.2-7.1 7.1-7.1C3217.5 1277.3 3220.7 1280.4 3220.7 1284.4M3217.2 1319.5c0 3.4-2.8 6.2-6.2 6.2-3.4 0-6.2-2.8-6.2-6.2 0-3.4 2.8-6.2 6.2-6.2C3214.4 1313.3 3217.2 1316.1 3217.2 1319.5M3217.6 1358.9c0 3.5-3.3 6.3-7.4 6.3-4.1 0-7.4-2.8-7.4-6.3 0-3.5 3.3-6.3 7.4-6.3C3214.2 1352.5 3217.6 1355.4 3217.6 1358.9"/></g></svg>