<svg xmlns="http://www.w3.org/2000/svg" xmlns:xlink="http://www.w3.org/1999/xlink" enable-background="new 0 0 6000 4000" viewBox="0 0 6000 4000"><path fill="#91b9ec" d="M1038,3603c149.5-4.4,298.9-79.1,444-39.6c307.7,83.5,606.6,96.7,914.3,13.2c171.4-44,356.1,48.4,523.1-8.8
			c109.9-39.6,219.8-96.7,329.7-61.5c263.7,83.5,527.5,57.1,795.6,65.9c26.4,0,57.1,17.6,83.5,22c114.3,13.2,219.8-30.8,325.3-26.4
			c96.7,4.4,193.4-26.4,276.9-65.9c44-22,118.7,13.2,180.2,0c30.8-8.8,70.3-30.8,74.7-57.1c3.7-45.1,9-90.6,17.9-135.1
			c-167.8-34.2-404.7-61.7-671.7-89.1c-1455.2-149.4-3634.7-234-3780.2,115.4c-48.2,115.9,84.8,196.2,290.7,277.9
			C909,3613.6,977.1,3606.3,1038,3603"/><path fill="#bfdaef" d="M5260.4,3426.8c-6.1-48.3-102.1-85.6-257.2-117.2c-8.8,44.5-14.2,90-17.9,135.1c-4.4,26.4-44,48.4-74.7,57.1
			c-61.5,13.2-136.3-22-180.2,0c-83.5,39.6-180.2,70.3-276.9,65.9c-105.5-4.4-211,39.6-325.3,26.4c-26.4-4.4-57.1-22-83.5-22
			c-268.1-8.8-531.9,17.6-795.6-65.9c-109.9-35.2-219.8,22-329.7,61.5c-167,57.1-351.7-35.2-523.1,8.8
			c-307.7,83.5-606.6,70.3-914.3-13.2c-145.1-39.6-294.5,35.2-444,39.6c-60.9,3.4-128.9,10.6-195.9,10.8
			c34.1,13.5,70.2,27.1,107.8,40.9c127.6,46.7,241.9,56.1,297.5,60.2c595,43.5,1143.2-36.6,1578.5-51.6
			c758.6-26.1,775.9,159.3,1432.8,90.3C4740.7,3702.9,5275.6,3545.9,5260.4,3426.8"/><defs><path id="a" d="M1428.9,2252.8c-66.8,49.8-43.4,242.8-57.1,293.2c-6.1,22.7-21.7,20.1-37.5,17.5c-19.4-3.2-39-6.4-41.8,37
				c-5.1,78.8-41.2,221.5,34.5,342.1c75.7,120.6,392.3,91.2,409.2-17.9c16.9-109.2-64.5-55.9-107.6-116.7
				c-43.1-60.9,43.6-79.3,14-131.2c-29.6-51.9-62.7-26-62.7-26s10.3-10.6,18.3-43.6c8-33-12.2-76-58.5-101.9
				c-46.3-25.9,8.2-150.3,5.8-180.7c-3-37.1-30.4-88.4-73-88.4C1459.3,2236.1,1444.7,2241,1428.9,2252.8"/></defs><clipPath id="b"><use overflow="visible" xlink:href="#a"/></clipPath><linearGradient id="c" x1="1828.402" x2="1832.798" y1="2774.595" y2="2774.595" gradientTransform="matrix(83.0953 230.1886 227.9317 -87.5977 -783054.938 -175754.031)" gradientUnits="userSpaceOnUse"><stop offset="0" stop-color="#b6f2f0"/><stop offset=".13" stop-color="#b6f2f0"/><stop offset=".258" stop-color="#90dbd9"/><stop offset=".402" stop-color="#6dc6c4"/><stop offset=".548" stop-color="#52b5b4"/><stop offset=".696" stop-color="#3ea9a8"/><stop offset=".845" stop-color="#33a2a1"/><stop offset="1" stop-color="#2fa09f"/></linearGradient><polygon fill="url(#c)" points="1692 2066.7 2015.3 2962.4 1312.4 3232.5 989.1 2336.8" clip-path="url(#b)"/><g opacity=".38"><defs><rect id="d" width="778.1" height="1107.7" x="1119.5" y="2074"/></defs><clipPath id="e"><use overflow="visible" xlink:href="#d"/></clipPath><g clip-path="url(#e)"><defs><rect id="f" width="778.1" height="1107.7" x="1119.5" y="2074"/></defs><clipPath id="g"><use overflow="visible" xlink:href="#f"/></clipPath></g></g><defs><path id="h" d="M1428.9,2252.8c-66.8,49.8-43.4,242.8-57.1,293.2c-6.1,22.7-21.7,20.1-37.5,17.5c-19.4-3.2-39-6.4-41.8,37
				c-5.1,78.8-41.2,221.5,34.5,342.1c75.7,120.6,392.3,91.2,409.2-17.9c16.9-109.2-64.5-55.9-107.6-116.7
				c-43.1-60.9,43.6-79.3,14-131.2c-29.6-51.9-62.7-26-62.7-26s10.3-10.6,18.3-43.6c8-33-12.2-76-58.5-101.9
				c-46.3-25.9,29.6-139.4,29.6-178.3c0-24.3-46.6-88.5-99.3-88.5C1456.4,2238.4,1442.5,2242.6,1428.9,2252.8"/></defs><clipPath id="i"><use overflow="visible" xlink:href="#h"/></clipPath><path fill="#2d65af" d="M1642.6,2927.4c-42.4-3.5-67.8-46.1-86.4-79.4c-19.6-35.1-36.8-71.5-51.8-108.7
			c-30.5-75.7-51.7-155.1-64.1-235.8c-7.2-46.9-11.2-94.2-12.4-141.6c-0.1-2.3-3.6-2.3-3.6,0c2,85.6,13.8,171,35.5,253.8
			c20.9,79.9,51.1,157.6,91,230c19.7,35.8,46.2,81.5,91.7,85.3C1644.9,2931.2,1644.9,2927.6,1642.6,2927.4" clip-path="url(#i)"/><path fill="#2d65af" d="M1402.4 2620.9c13.4 15.8 25.9 32.3 37.6 49.5 2.8 4.1 5.6 8.2 8.3 12.4 2 3.2 4 7.2 7.3 9.3 3.1 2 7.3 1.5 10.9 1.5 5.4.1 10.8.2 16.2.3 2.3 0 2.3-3.5 0-3.6-4.7-.1-9.3-.2-14-.2-5.2-.1-10.4.8-13.9-3.9-5.6-7.7-10.4-16-15.9-23.7-10.6-15.2-22-29.9-34-44.1C1403.5 2616.6 1400.9 2619.2 1402.4 2620.9M1512 2754.4c1-9.5 5.3-18.8 7.7-28 2.4-9 4.4-18 5.9-27.2 3.1-18.2 4.6-36.6 4.5-55 0-2.3-3.6-2.3-3.6 0 .1 19.5-1.5 38.9-5.1 58.1-1.7 9.1-3.8 18.1-6.3 27.1-2.3 8.3-5.8 16.4-6.8 25C1508.2 2756.7 1511.8 2756.7 1512 2754.4M1450.6 2762.5c15.1 9.1 29.3 19.8 42.2 31.8 5.8 5.4 11 12.3 17.7 16.6 6.9 4.4 15.8 2.4 22.6 7 1.9 1.3 3.7-1.8 1.8-3.1-6.7-4.5-15.3-2.6-22.1-6.6-3.9-2.3-6.9-6-10.1-9.2-3.1-3.1-6.3-6.2-9.6-9.1-12.6-11.4-26.2-21.6-40.7-30.4C1450.4 2758.2 1448.6 2761.3 1450.6 2762.5M1575.7 2852.1c1.6-31.6-3.4-62.9-8.5-93.9-.4-2.3-3.8-1.3-3.4.9 5.1 30.8 9.9 61.7 8.3 93C1572 2854.3 1575.5 2854.3 1575.7 2852.1M1494 2893.6c12.1 4.3 23.5 10 34.5 16.5 9.7 5.8 19.6 11.9 30.9 14 2.2.4 3.2-3 .9-3.4-11.8-2.2-21.9-8.8-32-14.8-10.6-6.3-21.8-11.5-33.4-15.7C1492.8 2889.4 1491.9 2892.9 1494 2893.6M1460.7 2560.8c4.2-1.8 5.7-6.7 7.2-10.6 2.1-5.6 4.1-11.3 5.7-17.1 3.3-11.5 5.7-23.1 7.3-35 .3-2.3-3.3-2.2-3.6 0-1.4 10.7-3.6 21.4-6.5 31.8-1.4 5.1-3 10.1-4.8 15.1-1.4 4-2.8 10.8-7.1 12.7C1456.8 2558.6 1458.6 2561.7 1460.7 2560.8" clip-path="url(#i)"/><g><path fill="#80dbda" d="M1470.9,2119.7c-4.1-15.6,6.4-63.2-9.7-71.2c-12.4-6.1-20.6,10.1-24.7,19.8
			C1409.1,2117.7,1483.9,2175.2,1470.9,2119.7"/></g><g><defs><path id="j" d="M4973,1998.1c9.6,46.9-52.9,266.3-130.9,299c-78,32.8-117.7,96.5-111,149.1c6.7,52.6,21.1,70.8,21.1,70.8
				s-47.7-45.6-103.9,30.4c-56.2,76.1,77.6,118.7-1.6,206.5c-79.3,87.7-198.3-8.3-191.3,164.3c7,172.6,307.5,201.2,449.1,25.7
				c141.6-175.5,305.5-335.2,311.7-458.6c3.4-68-28.3-66.2-59.5-64.4c-25.4,1.5-50.5,3-56.1-33.3c-12.5-80.7,59.4-377.2-37.3-465.5
				c-25.2-23-44-32-57.9-32C4965.6,1890.1,4965.9,1963.4,4973,1998.1"/></defs><clipPath id="k"><use overflow="visible" xlink:href="#j"/></clipPath><linearGradient id="l" x1="1822.812" x2="1827.208" y1="2784.279" y2="2784.279" gradientTransform="scale(-195.6846 195.6846) rotate(19.863 8815.623 -3890.799)" gradientUnits="userSpaceOnUse"><stop offset="0" stop-color="#b6f2f0"/><stop offset=".304" stop-color="#b6f2f0"/><stop offset=".406" stop-color="#90dbd9"/><stop offset=".522" stop-color="#6dc6c4"/><stop offset=".639" stop-color="#52b5b4"/><stop offset=".757" stop-color="#3ea9a8"/><stop offset=".876" stop-color="#33a2a1"/><stop offset="1" stop-color="#2fa09f"/></linearGradient><polygon fill="url(#l)" points="5612.2 2977.5 4537.3 3365.8 4055.5 2032.1 5130.4 1643.7" clip-path="url(#k)"/></g><g><g opacity=".38"><defs><rect id="m" width="1081.4" height="1490.2" x="4293.7" y="1731.5"/></defs><clipPath id="n"><use overflow="visible" xlink:href="#m"/></clipPath><g clip-path="url(#n)"><defs><rect id="o" width="1081.4" height="1490.2" x="4293.7" y="1731.5"/></defs><clipPath id="p"><use overflow="visible" xlink:href="#o"/></clipPath></g></g></g><g><defs><path id="q" d="M4973,1998.1c9.6,46.9-52.9,266.3-130.9,299c-78,32.8-117.7,96.5-111,149.1c6.7,52.6,21.1,70.8,21.1,70.8
				s-47.7-45.6-103.9,30.4c-56.2,76.1,77.6,118.7-1.6,206.5c-79.3,87.7-198.3-8.3-191.3,164.3c7,172.6,307.5,201.2,449.1,25.7
				c141.6-175.5,305.5-335.2,311.7-458.6c3.4-68-28.3-66.2-59.5-64.4c-25.4,1.5-50.5,3-56.1-33.3c-12.5-80.7,59.4-377.2-37.3-465.5
				c-25.2-23-44-32-57.9-32C4965.6,1890.1,4965.9,1963.4,4973,1998.1"/></defs><clipPath id="r"><use overflow="visible" xlink:href="#q"/></clipPath><path fill="#2d65af" d="M4602.6,2943.3c67.2,1.7,115.9-57.4,152-106.5c37.7-51.5,72-105.5,102.9-161.3
			c31.4-56.7,59.2-115.3,83.7-175.3c24.8-60.9,46-123.3,63.5-186.6c17.8-64.3,31.8-129.6,42-195.5c1.3-8.3,2.5-16.5,3.7-24.8
			c0.5-3.5-4.9-5.1-5.4-1.5c-9.1,64.8-21.9,129.1-38.3,192.5c-16.2,62.5-35.9,124.1-59.1,184.4c-23.1,60.2-49.8,119-79.8,176
			c-29.4,55.7-62.1,109.7-98.1,161.4c-19,27.2-38.4,54.7-61.5,78.6c-22.5,23.4-50,44.1-82.3,50.9c-7.7,1.6-15.4,2.3-23.2,2.1
			C4599,2937.5,4599,2943.2,4602.6,2943.3" clip-path="url(#r)"/><path fill="#2d65af" d="M5034.6 2495.2c-21.6 20.2-42.3 41.4-61.9 63.4-9.7 10.9-18.7 22.3-28.3 33.2-2.6 2.9-5.3 5.3-9.4 5.5-4 .2-8.3-.6-12.4-.9-8-.7-15.9-1.3-23.9-2-3.6-.3-3.6 5.3 0 5.6l26.1 2.2c6.1.5 12.6 1.9 18.1-1.5 5.8-3.6 10-10.3 14.3-15.5 5.1-6.1 10.2-12.1 15.4-18 20.9-23.7 42.9-46.5 66-68.1C5041.3 2496.7 5037.3 2492.7 5034.6 2495.2M4846.4 2689.8c.2-13.9-4.3-27.8-6.5-41.5-2.4-14.9-4-29.9-5-44.9-1.8-29.3-.8-58.8 2.7-88 .4-3.6-5.2-3.6-5.6 0-3.6 29.2-4.5 58.6-2.7 88 .9 13.8 2.3 27.6 4.4 41.2 1.1 7.2 2.3 14.4 3.7 21.5 1.6 7.9 3.5 15.6 3.4 23.6C4840.7 2693.4 4846.4 2693.4 4846.4 2689.8M4934 2707c-25.2 11.5-49.2 25.6-71.6 42-5.3 3.9-10.5 7.8-15.6 11.9-5.5 4.4-10.7 9.4-17.2 12.2-11.6 5-24.6.8-36.1 6.8-3.2 1.7-.4 6.5 2.8 4.9 11.1-5.9 24.3-1.5 35.8-6.6 5.8-2.6 10.7-6.8 15.6-10.7 5.7-4.7 11.6-9.2 17.6-13.6 22.4-16.3 46.4-30.4 71.6-42C4940.1 2710.4 4937.2 2705.5 4934 2707M4728.1 2831.5c3.1-49 16.5-96.4 30.1-143.3 1-3.5-4.4-5-5.4-1.5-13.7 47.4-27.1 95.3-30.3 144.8C4722.2 2835.1 4727.9 2835.1 4728.1 2831.5M4842.9 2903.6c-18.3 4.4-36.2 10.5-53.4 18.2-17.7 7.8-35.3 17.1-54.9 18.7-3.6.3-3.6 5.9 0 5.6 18.6-1.5 35.5-9.4 52.3-17 18.6-8.4 37.7-15.2 57.5-20C4848 2908.2 4846.5 2902.8 4842.9 2903.6M4960.2 2391.7c-6-3.4-7-13.8-8.5-19.8-2-8.2-3.7-16.5-5.1-24.9-2.8-16.9-4.3-34-4.6-51.1-.1-3.6-5.7-3.6-5.6 0 .4 18.9 2.2 37.7 5.4 56.3 1.6 9.2 3.6 18.4 6 27.5 1.6 6.3 3.4 13.4 9.4 16.8C4960.5 2398.3 4963.4 2393.5 4960.2 2391.7" clip-path="url(#r)"/></g><g><path fill="#41acab" d="M5213.5 1880.8c5.3-16.5-2.3-70.6 14.8-76.8 13.1-4.7 20.5 14.6 24.1 25.9C5277.3 1888.8 5196.5 1939.8 5213.5 1880.8M5308.4 2279c0 0 54.8-152.9 123.8-163.1C5501.2 2105.7 5322.9 2355.4 5308.4 2279"/><path fill="#143e6d" d="M2784.8,3215.6c56.8,81.7,203.2,106.8,374.6,108.7c371.2-3.5,1709.4,59.9,1767.3,0
			c57.9-59.9-46.6-163.3-244.7-163.3c-198,0-1727.4-136.5-1808.3-103.3C2792.7,3090.9,2728,3133.9,2784.8,3215.6"/><path fill="#143e6d" d="M2588.6,3175.3c0,0,131.5,47.7,233.5,43c102-4.7,262.1,29.5,236.7-8.9c-25.4-38.4-192.9-66.1-388.7-58.3
			C2651.3,3151.9,2575.7,3165.7,2588.6,3175.3"/><path fill="#aa7d0b" d="M3002.5,2722.9c-22-92.3-39.6-184.6-65.9-276.9c-12.3-41-20.8-85.9-39.8-127.4c-2.1,188.1,6.5,551,6.5,551
			h112.9C3017.9,2820.6,3015.8,2771.8,3002.5,2722.9"/><path fill="#f9be13" d="M3029.8,2208.4c-14.2-14.7-111.2-12-126.5,0c-3.9,3-5.8,46.6-6.5,110.1c19,41.5,27.4,86.4,39.8,127.4
			c26.4,92.3,44,184.6,65.9,276.9c13.3,48.9,15.4,97.8,13.7,146.6h13.7C3029.8,2869.5,3044,2223.1,3029.8,2208.4"/><path fill="#1a1383" d="M3067,2194c-13.6,5.6-169.6-0.3-183.5-2.1c-14-1.7-26-41.6-15.8-51.7c10.2-10.1,188.9-26.2,203.5-13.4
			C3085.8,2139.7,3080.7,2188.5,3067,2194"/><path fill="#1a1383" d="M2990.8,2518.7L2990.8,2518.7c11.5,0,25.6-14.1,25.6-25.6l-4.8-305.5c0-11.5-9.3-20.7-20.7-20.7
			c-11.5,0-20.7,9.3-20.7,20.7l-13.3,303.9C2956.8,2503,2979.3,2518.7,2990.8,2518.7"/><path fill="#75afe8" d="M3192.7,2155.2c-15.5,0-15.5-0.9-29.9,16.8c14.6,3.4,29.2,5.4,43.8,6.9
			C3204.3,2164.8,3200,2155.2,3192.7,2155.2"/><path fill="#e65e75" d="M3162.9,2172c-8.9,10.9-23.2,28.8-50.1,58.4c-0.5,0.5-0.9,1.2-1.4,1.7c32.4-4.3,65.4-5.9,97.9-4
			c0.2-17.3-0.3-35.4-2.6-49.3C3192.1,2177.4,3177.5,2175.3,3162.9,2172"/><path fill="#224884" d="M3111.4,2232.1c-10.4,12.4-20.3,34.9-29.8,64.4c41.3-0.7,82.3-2.7,120.9,8.2c2.9-12.7,4.6-20.5,4.6-21.9
			c0-5.6,1.9-29.3,2.2-54.7C3176.8,2226.2,3143.8,2227.8,3111.4,2232.1"/><path fill="#5991ce" d="M3163.8,2297.7c-26.8-2.7-54.4-1.6-82.2-1.2c-54,169.1-90.7,566.3-87,582c2.7,11.5,9,18.1,16.7,21.3
			c44.9-152.8,85.4-306.3,114.3-471.4C3133.5,2386,3139.9,2334.2,3163.8,2297.7"/><path fill="#215d9e" d="M3125.6,2428.4c-28.9,165.1-69.4,318.6-114.3,471.4c9.1,3.7,20.2,2.4,29.9-2.2
			c16-7.5,136.4-483.9,161.4-592.8c-12.7-3.6-25.6-5.8-38.7-7.1C3139.9,2334.2,3133.5,2386,3125.6,2428.4"/><path fill="#3784d1" d="M2990.7,2820.9c-38.1,40.3-118.6,105-147.2,49.8c-28.6-55.2-295.3-722.3-271.2-760.7
			c24.1-38.4,59.6-135.5,180.6-63.5C2822.1,2087.8,3028.8,2780.7,2990.7,2820.9"/><path fill="#fff" d="M2698.2 2103.9l-101.2 38c-1.7.7-3.7-.2-4.3-2-.7-1.7.2-3.7 2-4.3l101.2-38c1.7-.7 3.7.2 4.3 2C2700.8 2101.3 2699.9 2103.2 2698.2 2103.9M2652.5 2145.5l-47.4 17.8c-1.7.6-3.7-.2-4.3-2-.7-1.7.2-3.7 2-4.3l47.5-17.8c1.7-.7 3.7.2 4.3 2C2655.2 2142.9 2654.3 2144.9 2652.5 2145.5M2661.5 2169.5l-47.5 17.8c-1.7.7-3.7-.2-4.3-2-.7-1.7.2-3.7 2-4.3l47.4-17.8c1.7-.7 3.7.2 4.3 2C2664.1 2166.9 2663.3 2168.8 2661.5 2169.5M2670.5 2193.4l-47.4 17.8c-1.7.6-3.7-.2-4.3-2-.7-1.7.2-3.7 2-4.3l47.5-17.8c1.7-.6 3.7.2 4.3 2C2673.1 2190.8 2672.2 2192.7 2670.5 2193.4M2679.5 2217.3l-47.5 17.8c-1.7.7-3.7-.2-4.3-2-.7-1.7.2-3.7 2-4.3l47.4-17.8c1.7-.7 3.7.2 4.3 2C2682.1 2214.7 2681.2 2216.6 2679.5 2217.3M2688.5 2241.2L2641 2259c-1.7.6-3.7-.2-4.3-2-.7-1.7.2-3.7 2-4.3l47.5-17.8c1.7-.6 3.7.2 4.3 2C2691.1 2238.6 2690.2 2240.6 2688.5 2241.2M2751.1 2244.7l-101.2 38c-1.7.6-3.7-.2-4.3-2-.7-1.7.2-3.7 2-4.3l101.2-38c1.7-.6 3.7.2 4.3 2C2753.7 2242.1 2752.8 2244 2751.1 2244.7M2705.4 2286.3l-47.4 17.8c-1.7.7-3.7-.2-4.3-2-.7-1.7.2-3.7 2-4.3l47.5-17.8c1.7-.7 3.7.2 4.3 2C2708 2283.7 2707.1 2285.7 2705.4 2286.3M2714.4 2310.2l-47.5 17.8c-1.7.6-3.7-.2-4.3-2-.7-1.7.2-3.7 2-4.3l47.5-17.8c1.7-.6 3.7.2 4.3 2C2717 2307.6 2716.1 2309.6 2714.4 2310.2M2723.3 2334.2l-47.4 17.8c-1.7.7-3.7-.2-4.3-2-.7-1.7.2-3.7 2-4.3l47.5-17.8c1.7-.7 3.7.2 4.3 2C2726 2331.6 2725.1 2333.5 2723.3 2334.2M2732.3 2358.1l-47.5 17.8c-1.7.6-3.7-.2-4.3-2-.7-1.7.2-3.7 2-4.3l47.5-17.8c1.7-.6 3.7.2 4.3 2C2734.9 2355.5 2734.1 2357.4 2732.3 2358.1M2741.3 2382l-47.4 17.8c-1.7.7-3.7-.2-4.3-2-.7-1.7.2-3.7 2-4.3l47.4-17.8c1.7-.7 3.7.2 4.3 2C2743.9 2379.4 2743 2381.3 2741.3 2382M2803.9 2385.5l-101.2 38c-1.7.6-3.7-.2-4.3-2-.7-1.7.2-3.7 2-4.3l101.2-38c1.7-.6 3.7.2 4.3 2C2806.5 2382.9 2805.6 2384.8 2803.9 2385.5M2758.2 2427.1l-47.5 17.8c-1.7.7-3.7-.2-4.3-2-.7-1.7.2-3.7 2-4.3l47.4-17.8c1.7-.6 3.7.2 4.3 2C2760.8 2424.5 2760 2426.4 2758.2 2427.1M2767.2 2451l-47.5 17.8c-1.7.6-3.7-.2-4.3-2-.7-1.7.2-3.7 2-4.3l47.5-17.8c1.7-.7 3.7.2 4.3 2C2769.8 2448.4 2768.9 2450.4 2767.2 2451M2776.2 2474.9l-47.5 17.8c-1.7.7-3.7-.2-4.3-2-.7-1.7.2-3.7 2-4.3l47.4-17.8c1.7-.6 3.7.2 4.3 2C2778.8 2472.4 2777.9 2474.3 2776.2 2474.9M2785.2 2498.9l-47.5 17.8c-1.7.6-3.7-.2-4.3-2-.7-1.7.2-3.7 2-4.3l47.5-17.8c1.7-.7 3.7.2 4.3 2C2787.8 2496.3 2786.9 2498.2 2785.2 2498.9M2794.1 2522.8l-47.5 17.8c-1.7.7-3.7-.2-4.3-2-.7-1.7.2-3.7 2-4.3l47.4-17.8c1.7-.6 3.7.2 4.3 2C2796.8 2520.2 2795.9 2522.1 2794.1 2522.8M2856.7 2526.2l-101.2 38c-1.7.7-3.7-.2-4.3-2-.7-1.7.2-3.7 2-4.3l101.2-38c1.7-.7 3.7.2 4.3 2h0C2859.3 2523.7 2858.5 2525.6 2856.7 2526.2M2811.1 2567.9l-47.5 17.8c-1.7.6-3.7-.2-4.3-2-.7-1.7.2-3.7 2-4.3l47.4-17.8c1.7-.7 3.7.2 4.3 2C2813.7 2565.3 2812.8 2567.2 2811.1 2567.9M2820 2591.8l-47.4 17.8c-1.7.7-3.7-.2-4.3-2-.7-1.7.2-3.7 2-4.3l47.5-17.8c1.7-.7 3.7.2 4.3 2C2822.7 2589.2 2821.8 2591.2 2820 2591.8M2829 2615.7l-47.5 17.8c-1.7.6-3.7-.2-4.3-2-.7-1.7.2-3.7 2-4.3l47.4-17.8c1.7-.6 3.7.2 4.3 2C2831.6 2613.1 2830.8 2615.1 2829 2615.7M2838 2639.6l-47.4 17.8c-1.7.7-3.7-.2-4.3-2-.7-1.7.2-3.7 2-4.3l47.5-17.8c1.7-.7 3.7.2 4.3 2C2840.6 2637.1 2839.7 2639 2838 2639.6M2847 2663.6l-47.5 17.8c-1.7.6-3.7-.2-4.3-2-.7-1.7.2-3.7 2-4.3l47.4-17.8c1.7-.6 3.7.2 4.3 2C2849.6 2661 2848.7 2662.9 2847 2663.6M2909.6 2667l-101.2 38c-1.7.6-3.7-.2-4.3-2-.7-1.7.2-3.7 2-4.3l101.2-38c1.7-.6 3.7.2 4.3 2C2912.2 2664.4 2911.3 2666.4 2909.6 2667M2863.9 2708.7l-47.5 17.8c-1.7.7-3.7-.2-4.3-2-.7-1.7.2-3.7 2-4.3l47.4-17.8c1.7-.7 3.7.2 4.3 2C2866.5 2706.1 2865.6 2708 2863.9 2708.7M2872.9 2732.6l-47.4 17.8c-1.7.6-3.7-.2-4.3-2-.7-1.7.2-3.7 2-4.3l47.5-17.8c1.7-.6 3.7.2 4.3 2C2875.5 2730 2874.6 2731.9 2872.9 2732.6M2881.9 2756.5l-47.5 17.8c-1.7.7-3.7-.2-4.3-2-.7-1.7.2-3.7 2-4.3l47.4-17.8c1.7-.7 3.7.2 4.3 2C2884.5 2753.9 2883.6 2755.9 2881.9 2756.5M2890.8 2780.4l-47.4 17.8c-1.7.6-3.7-.2-4.3-2-.7-1.7.2-3.7 2-4.3l47.5-17.8c1.7-.6 3.7.2 4.3 2C2893.4 2777.8 2892.6 2779.8 2890.8 2780.4M2899.8 2804.3l-47.5 17.8c-1.7.7-3.7-.2-4.3-2-.7-1.7.2-3.7 2-4.3l47.4-17.8c1.7-.7 3.7.2 4.3 2C2902.4 2801.8 2901.6 2803.7 2899.8 2804.3"/><path fill="#152b3f" d="M2804.1,2697.9h-83.9c0,0,54,452.2,73.5,495c15.2,33.5,59.5,26.1,101,20.8
			C2847.4,3043.9,2802.9,2874,2804.1,2697.9"/><path fill="#75afe8" d="M2932.7,2697.9h-128.5c-1.3,176.1,43.3,346,90.5,515.8c11.6-1.5,23-2.8,33.4-3c17-0.4,31.9,2.7,45.8,6.1
			c38.8-21.4,69.4-55.5,77-98.3c31.2-142.2,43.3-281.7,62.1-420.6H2932.7z"/><path fill="#87bcf1" d="M3113,2697.9c-18.8,138.9-30.9,278.4-62.1,420.6c-7.5,42.8-38.2,76.9-77,98.3c25.3,6.2,46.9,13.5,70.4,3.4
			c36.3-15.7,100.9-522.2,100.9-522.2H3113z"/><path fill="#fff" d="M3171.4,2743H2694c-19.1,0-34.6-15.5-34.6-34.6c0-19.1,15.5-34.6,34.6-34.6h477.4
			c19.1,0,34.6,15.5,34.6,34.6C3206,2727.5,3190.5,2743,3171.4,2743"/><path fill="#172c51" d="M3778.5 2537.5c-1.1-328.3-.2-702.5 4.2-722.5 6-27.3-59.2-40.4-89.5-19.1 3.5 229.4 61.8 447.2 74.6 677.4C3769.8 2491.8 3771.9 2515.1 3778.5 2537.5M4101.3 1829.3c-25.1-1.6-71-26.6-74.2 45.4-1.3 29.7-10.3 224.8-21.6 446.2 30.8-129.4 56.8-257.1 94-381.6C4104.9 1871.6 4106.3 1829.6 4101.3 1829.3"/><path fill="#304c6a" d="M4005.5,2321c-16.2,316.1-37.2,686-47.3,705.4c-17.2,32.9-167.6,25.1-173.9,6.3
			c-2.8-8.3-4.9-237.6-5.8-495.1c-6.6-22.3-8.6-45.7-10.7-64.2c-12.8-230.2-71-448-74.6-677.4c-9.4,6.6-15.5,16.5-15,30.3
			c0,0,78.5,1183.9,60.9,1208.5c-12.9,24.6-158.1,19.9-158.1,19.9s-25.1-3.1-23,18.8c2.1,21.9,492,23,539,5.2
			c47-17.8-19.9-17.8-42.8-18.8c-23-1-60.6-4.2-61.6-94c-0.8-71.9,85.3-755.2,106.9-1026.4C4062.2,2063.8,4036.2,2191.6,4005.5,2321
			"/><path fill="#304c6a" d="M2857.8,411.5c0,0-167.9,1368.7,116.2,1402.1c284.1,33.4,1867.4,140.2,1887.5-41.8
			c20.1-181.9,222-1407.1-98.9-1440.5C4441.8,297.9,2882.6,198.1,2857.8,411.5"/><path fill="#75afe8" d="M2820.4,411.5c0,0-167.9,1368.7,116.2,1402.1c284.1,33.4,1867.4,140.2,1887.5-41.8
			c20.1-181.9,222-1407.1-98.9-1440.5C4404.4,297.9,2845.2,198.1,2820.4,411.5"/><path fill="#3784d1" d="M2883.8,453.6c0,0-178.6,1306.7,87.7,1338.1c266.4,31.3,1805,125,1823.8-45.6
			c18.8-170.6,175.5-1336.3-125.4-1367.7C4369.2,347.1,2907.1,253.5,2883.8,453.6"/><path fill="#dee6ee" d="M2905.7,468.6c0,0-175.8,1286.1,86.4,1317c262.2,30.8,1776.8,123,1795.3-44.9
			c18.5-167.9,172.7-1315.2-123.4-1346.1C4367.8,363.8,2928.6,271.7,2905.7,468.6"/><g opacity=".2"><defs><rect id="s" width="2277" height="1745.1" x="2697" y="205"/></defs><clipPath id="t"><use overflow="visible" xlink:href="#s"/></clipPath><g clip-path="url(#t)"><defs><rect id="u" width="2277" height="1745.1" x="2697" y="205"/></defs><clipPath id="v"><use overflow="visible" xlink:href="#u"/></clipPath></g></g><path fill="#ff7116" d="M3941.2,586.6c16.7,17.4-59.8,142.8-143.6,119.3c-83.8-23.5-114.7-50.4-114.7-121.8
			c0-71.4,105.6-142,129.2-129.2c23.6,12.8,0,31,0,31c-54.3,0-98.3,44-98.3,98.3c0,54.3,44,98.3,98.3,98.3
			c53.4,0,96.9-42.6,98.2-95.7C3910.2,586.6,3924.5,569.2,3941.2,586.6"/><path fill="#75afe8" d="M3910.3,584.1c0,0.8,0,1.7,0,2.5c-1.3,53.1-44.8,95.7-98.2,95.7c-54.3,0-98.3-44-98.3-98.3
			c0-54.3,44-98.3,98.3-98.3C3866.3,485.8,3910.3,529.8,3910.3,584.1"/><path fill="#3784d1" d="M3446.2,686.1c0,68.5-0.3,137.1,0.2,205.6c0.1,16.1-11.6,28.5-28.3,28.2c-36.4-0.7-72.8-0.3-109.2-0.1
			c-5.2,0-7-1.2-7-6.7c0.2-56,0.2-111.9,0-167.9c0-4.9,1.3-6.2,6.2-6.1c16.4,0.3,32.9,0,49.3,0.2c3.7,0,5.5-0.6,6-4.9
			c2.5-21,5.4-42,8.3-63c0.6-4.5-2.1-4.3-5-4.3c-19.2,0-38.4-0.2-57.6,0.1c-5.4,0.1-7.4-1.1-7.2-7c0.5-12.7,0.1-25.5,0.1-38.2
			c0.1-23.5,9.7-33.2,33.4-33.4c11.1-0.1,22.2-0.2,33.2,0.1c4.1,0.1,5.8-0.7,5.8-5.4c-0.3-18.1-0.2-36.2-0.1-54.3
			c0-3.2-0.5-5-4.4-5.3c-19.1-1.6-38.3-2.9-57.5-2.1c-18.6,0.8-36.1,5.7-51.2,17c-20.6,15.4-30.1,36.8-32.8,61.6
			c-2.2,20.1-0.8,40.2-0.9,60.3c0,5-1.3,6.7-6.4,6.6c-16.1-0.3-32.1,0-48.2-0.2c-4.9-0.1-6.8,1.2-6.7,6.5c0.3,19.9,0.3,39.9,0,59.8
			c-0.1,5.1,1.6,6.1,6.3,6.1c16.6-0.3,33.2,0,49.9-0.2c3.8,0,5.1,0.9,5.1,4.9c-0.1,56.9-0.1,113.8,0,170.7c0,3.9-1.2,5.1-5.1,5.1
			c-73.1-0.1-146.3-0.2-219.4,0c-12.7,0-25.1-11.3-25-26.8c0.4-63,0.2-126,0.2-188.9c0-74.6,0.3-149.2-0.2-223.9
			c-0.1-16.6,11.5-28.8,28.9-28.7c137.2,0.4,274.5,0.4,411.7,0c15.9,0,28,11.9,27.8,28C3445.9,548.3,3446.2,617.2,3446.2,686.1"/><path fill="#ffc261" d="M3155.6 1613.9c-5.4 13.3-50.3 15.9-63.1 0-12.8-15.9-14.6-95.8 0-121.2 14.6-25.4 58.3-22.9 60.7-11.4C3155.6 1492.7 3161 1600.6 3155.6 1613.9M3265.8 1613.9c-8.3 14-59.6 11-63.1 0-3.5-11-7.8-268.3 0-283.8 7.8-15.5 63.1-25.2 63.1 0C3265.8 1355.3 3274.1 1599.9 3265.8 1613.9M3368.8 1613.9c-6.3 16.8-50.2 22-63.1 0-13-22-9.8-321.5 0-343.3 9.8-21.8 53-32.2 63.1 0C3378.9 1302.8 3375.1 1597.1 3368.8 1613.9M3471.8 1613.9c-4.4 21.1-55.5 23.6-63.1 0-7.7-23.6-17.2-468.4 0-490.8 17.2-22.4 48.1-13.4 69.1 3.7C3498.8 1143.8 3476.2 1592.8 3471.8 1613.9"/><path fill="#5851bc" d="M3941.8,963.1c-5.2,3.9-10.4,7.9-15.6,11.8C3931.3,970.9,3936.6,967,3941.8,963.1L3941.8,963.1z"/><path fill="#75afe8" d="M3943.8,1112.5c-47.3,89.3-175.8,103.9-242.5,29.2c-114.2-119.6,22.3-288.3,167.2-248.5
			c7,27.7-82.1,169.9-71.3,177.5c10.7,7.6,138.1-108,155-93.1C3969.1,992.6,3970.5,1064.1,3943.8,1112.5"/><path fill="#ff9725" d="M4049.8,864.2c2.4,21.9-150.3,114.9-226.4,171.1c44.5-85.1,114.2-247.2,134.4-254.9
			C3978,772.7,4047.4,842.3,4049.8,864.2"/><path fill="#aadaff" d="M3812,1297.6c-111.4,0-202,85.4-202,190.3c0,105,90.6,202.4,202,202.4c111.4,0,202-97.4,202-202.4
			C4014,1383,3923.4,1297.6,3812,1297.6 M3812,1638.8c-88.3,0-130.1-67.7-130.1-150.8c0-83.2,41.9-150.8,130.1-150.8
			c88.3,0,143.5,67.7,143.5,150.8C3955.5,1571.1,3900.3,1638.8,3812,1638.8"/><path fill="#75afe8" d="M3812,1337.1c-83.2,0-150.8,67.7-150.8,150.8c0,83.2,67.7,150.8,150.8,150.8c83.2,0,150.8-67.7,150.8-150.8
			C3962.8,1404.8,3895.2,1337.1,3812,1337.1 M3812,1598c-60.8,0-110-49.3-110-110s49.3-117.8,110-117.8c60.8,0,110,57,110,117.8
			S3872.7,1598,3812,1598"/><path fill="#aadaff" d="M3812,1370.2c-60.8,0-110,57-110,117.8c0,60.8,49.3,110,110,110c60.8,0,110-49.3,110-110
			C3922,1427.2,3872.7,1370.2,3812,1370.2 M3812,1557.2c-38.3,0-69.3-31-69.3-69.3c0-38.3,31-69.3,69.3-69.3
			c38.3,0,69.3,31,69.3,69.3C3881.3,1526.2,3850.2,1557.2,3812,1557.2"/><path fill="#75afe8" d="M3812,1418.7c-38.3,0-69.3,31-69.3,69.3c0,38.3,31,69.3,69.3,69.3c38.3,0,77.7-31,77.7-69.3
			C3889.7,1449.7,3850.2,1418.7,3812,1418.7"/><path fill="#ff9725" d="M3812,1453.4c-19.1,0-41.4,15.5-41.4,34.5c0,19.1,22.3,34.5,41.4,34.5c19.1,0,43.3-15.5,43.3-34.5
			C3855.2,1468.9,3831.1,1453.4,3812,1453.4"/><path fill="#fcc677" d="M4603.3,1482.6c10.7,80.4-60.5,183.1-172.9,180.3c-112.4-2.8-184.8-87.7-169.3-198.9
			c15.5-111.2,85.8-176.9,183.1-171.6C4541.5,1297.6,4592.6,1402.2,4603.3,1482.6"/><path fill="#fff" d="M4470.4,1398.2l0-4.4c-30.5,4.3-112.2-18.1-118.7,30c0.7,26.4-46.2,150.7-17.4,170.7
			c13.1,22,139.4,8.7,160.2,12.9c24.2,0.4,42.6-22.2,38.2-45.3C4520.8,1536.5,4520.8,1372.2,4470.4,1398.2c0,0-1.3,13-1.3,13
			c32.8,3.9,42.1,129.3,54.9,152.5c6.5,15.6-21,46.4-30.3,29.8c-24.2-8.1-165.5,30.1-153.5-28.6c6,0.9,19.3-134.7,20.2-139.4
			c5.2-42.8,84.6-12.6,108.8-14.3C4469.1,1411.2,4470.4,1398.2,4470.4,1398.2"/><path fill="#fff" d="M4469.1,1438c5.4-38.1,18.2-97.4-41-87.6c-50.7-12.4-32.3,60.3-37.9,86.8c0,0-4.3,6.6,9.3,3.5
			c13.6-3.1-17.7-92.2,28.9-80.3c11.8,0.6,28.1-2.1,30.9,14.1c0,0-2.3,63.9-2.3,63.9L4469.1,1438z"/><path fill="#75afe8" d="M4715.6,672.9c-33.1,16.8-637.5,16.7-679-14.6c-41.4-31.3-24.4-134.8,5.2-153.5
			c29.6-18.7,618-48.9,673.7-4.2C4771.3,545.2,4748.7,656.1,4715.6,672.9"/><path fill="#fff" d="M4670,592.3c0,33.2-53.2,64.9-81.2,58.4c-28-6.5-43.5-30.8-43.5-64c0-33.2,25-60.6,59.8-64.5
			C4640,518.4,4670,559.1,4670,592.3"/><path fill="#fff" d="M4113.5,612.2c0,0,458,9.1,472,0c14-9.1,0-50.9,0-50.9s-429.4-6.3-454.8-3.2c-25.4,3.2-42.7,14.6-42.7,28.6
			C4088.1,600.8,4099.5,612.2,4113.5,612.2"/><rect width="2.6" height="41.5" x="4120.2" y="566" fill="#1b2c49"/><rect width="3" height="6.1" x="4608.3" y="582" fill="#22559f" transform="rotate(-45.122 4609.635 585.171)"/><path fill="#22559f" d="M4577.9,593.3c11,11,28.8,10.9,39.8-0.1c10.9-11,11.6-25.1,1.9-39.2c-9.7-14.2-30.8-11.4-41.7-0.4
			C4566.8,564.5,4566.9,582.3,4577.9,593.3"/><path fill="#eef" d="M4584.7,586.4c5.1,3.7,19.7,10,27.9,1.8c8.2-8.2,8.1-23.4-1.9-29.5c-9.9-6.1-19.8-8.4-28-0.2
			C4574.6,566.7,4579.6,582.7,4584.7,586.4"/><path fill="#22559f" d="M4615.8,587.3c-1.4,0-4,2.9-3.7,3.8c0,0,18.1,26.1,24.8,28.9c6.7,2.8,7.2-2.5,6.7-5.1L4615.8,587.3z"/><path fill="#75afe8" d="M4371.3 1103.2L4371.3 1103.2c-19.9 1.3-37.2-13.8-38.5-33.8l-5.2-80.9c-1.3-19.9 13.8-37.2 33.8-38.5 20-1.3 37.2 13.8 38.5 33.8l5.2 80.9C4406.4 1084.7 4391.3 1102 4371.3 1103.2M4596.3 971.6l0 .5c-.2-.1-.4-.1-.6-.2C4595.9 971.8 4596.1 971.7 4596.3 971.6M4601.8 1056.1l0 .5c-.3-.1-.5-.1-.8-.2C4601.3 1056.3 4601.5 1056.2 4601.8 1056.1"/><path fill="#75afe8" d="M4596.3,971.6c-0.2,0.1-0.4,0.2-0.6,0.3c0.2,0.1,0.4,0.1,0.6,0.2c6.7,2.2,11.6,8.2,12.1,15.6l0.9,14.5
			c0.4,6.5-2.8,12.4-7.9,15.8c-0.7-0.4-1.5-0.7-2.3-0.9l0.1,2.1c0.7-0.3,1.5-0.7,2.1-1.2c5.5,2.7,9.4,8.1,9.8,14.7l0.4,6.5
			c0.5,7.4-3.7,14-10,17c-0.2,0.1-0.5,0.2-0.7,0.3c0.3,0,0.5,0.1,0.8,0.2c6.6,1.7,11.6,7.5,12.1,14.7c0.3,4.5-1.3,8.6-4,11.8
			c-2.7,3.1-6.7,5.2-11.2,5.5l-132,8.5c-15.3,1-28.5-10.6-29.5-25.9c-1-15.4-2-30.8-3-46.3c-0.8-11.9-1.5-23.8-2.3-35.7
			c-1-14.9-2.5-29.7-2.6-44.6c-0.1-10.9,2.6-18.6,8.5-27.6c4-5.1,8.9-10.4,11.2-16.6c0.8-2.2,1.8-4.7,2-7c0.3-3.3-0.6-7.1-0.8-10.4
			c-0.4-7-0.4-14-0.1-21c0.1-2.7,0.3-5.3,1.2-7.9c3-8.7,12.7-8.5,20.2-6.9c6.2,1.4,12,4.3,16.7,8.5c12,10.7,14.6,28.1,11.1,43.1
			c-2.2,9.3-6.9,16.4-11.5,24.6c-0.3,0.6-2.5,6.8-2.6,6.8l101.4-6.6c9.7-0.6,18,6.7,18.7,16.4l0.9,14.5
			C4606.8,962,4602.6,968.6,4596.3,971.6"/><path fill="#75afe8" d="M4601.5,1017.9c-0.7,0.5-1.4,0.9-2.1,1.2l-0.1-2.1C4600,1017.3,4600.8,1017.6,4601.5,1017.9"/><path fill="#75afe8" d="M4601.5,1017.9c-0.7,0.5-1.4,0.9-2.1,1.2l-0.1-2.1C4600,1017.3,4600.8,1017.6,4601.5,1017.9"/><path fill="#3784d1" d="M3968.4,2622.7l243.6-461.3c15.4-67.3,103.2-52.5,131.2-36.1c0,0,219.6,82,266.7,165.6
			c47.1,83.6-318.4,539.2-318.4,539.2c-8.9,13.8-37.3,11.4-51.1,2.5l-262.9-168.8C3963.5,2654.9,3959.5,2636.5,3968.4,2622.7"/><path fill="#231f20" d="M4182.8,2775c-5.7-18.1,299.6-490.4,318.7-499.4c19.1-9,50.2,19.2,52.3,43.7
			c2.1,24.6-304.4,469.8-316.8,483.2C4224.6,2815.9,4188.5,2793.1,4182.8,2775"/><path fill="#fff" d="M4196,2577.6c1.9-21.1,195.6-318.5,208.5-324.6c12.9-6.1,58.2,17.1,54.4,34.9
			c-3.9,17.8-186.5,313.7-208.5,324.6C4228.4,2623.4,4194,2598.7,4196,2577.6"/><path fill="#ffc261" d="M4300.6,2258.4c0,0,15.4-39.9,22.7-44.6c7.3-4.7,13.9-4,18.7-0.9l28.4,18.3c4.8,3.1,11.3,4.5,3.1,18.9
			c-8.1,14.5-27.3,37.8-27.3,37.8c-3.1,4.8-9.4,6.2-14.2,3.1l-28.4-18.3C4298.9,2269.5,4297.5,2263.2,4300.6,2258.4"/><path fill="#bbe0fc" d="M3874.8 2816.2v-21.5l-168.1-7.9h-274.4c0 0 5.7 8.7 12.7 22.7C3588.3 2823.9 3731.5 2814.6 3874.8 2816.2M3874.8 2875.1v-39.5c-141.7 2.3-283 15.2-422.3-10 3.9 9.2 7.8 19.6 10.9 30.8C3600.5 2859.4 3737.7 2866.9 3874.8 2875.1"/><path fill="#fff" d="M3874.8 2876.6v-1.5c-137.1-8.2-274.3-15.7-411.4-18.7 1.6 5.6 2.9 11.3 4 17.2C3603.2 2876.1 3739 2869.7 3874.8 2876.6M3470 2895.7c.3 5.7.3 11.4-.2 17.1h405v-14.1C3739.6 2899.4 3604.1 2900.5 3470 2895.7"/><path fill="#bbe0fc" d="M3467.4 2873.6c1.4 7.3 2.2 14.7 2.6 22.2 134.1 4.7 269.6 3.7 404.8 3v-22.1C3739 2869.7 3603.2 2876.1 3467.4 2873.6M3874.8 2912.8h-405c-.5 5.9-1.4 11.8-2.8 17.6h407.9V2912.8z"/><path fill="#fff" d="M3874.8 2930.4h-407.9c-1.8 7.5-4.6 14.9-8.3 22h416.2V2930.4zM3453.1 2961.6c-5.4 7.9-12.2 15.3-20.7 22.2h442.5v-14.2C3734.4 2970.9 3594.7 2972.8 3453.1 2961.6"/><path fill="#bbe0fc" d="M3458.6,2952.4c-1.6,3.1-3.5,6.2-5.6,9.2c141.6,11.2,281.4,9.3,421.7,8v-17.3H3458.6z"/><path fill="#fff" d="M3445.1,2809.5c2.4,4.8,4.9,10.2,7.5,16.1c139.3,25.1,280.5,12.3,422.3,10v-19.4
			C3731.5,2814.6,3588.3,2823.9,3445.1,2809.5"/><path fill="#5050d1" d="M3952.4,2943.6c-37,3.1-73.9-0.3-110.9,0.4c-12.7,22.7-29.7,30.9-29.7,30.9s-347.9,1-397.8,1
			c-49.9,0-21,15.8-21,15.8s1096.4,32.5,1160.9,22.9c64.5-9.6,118.8-69.8,110.5-139.3c-1.2-10-3.7-19.4-7.3-28.3
			c-25.8,16.3-54.6,26.2-84.8,26.2C4361.2,2873.3,4163.4,2912.8,3952.4,2943.6"/><path fill="#6961de" d="M4528.3,2754.6c-56.6-8.5-1094.7,24.3-1118.3,26.3c-23.6,2,10.5,14.8,10.5,14.8s351.9-1,367.6-1
			c8.4,0,26.5,5.6,41.7,21.3c5.3,5.5,10.2,12.2,14.3,20.3c5.2,10.2,8.9,22.6,10.3,37.7c0.1,0.6,0.1,1.2,0.1,1.7
			c0.2,2.7,0.4,5.3,0.5,8.2c0.1,5.3-0.1,10.3-0.5,15c-0.4,4.9-1.1,9.6-1.9,14c-1.3,6.4-3,12.3-4.9,17.6c-1.9,5-4,9.6-6.3,13.6
			c37-0.7,73.9,2.7,110.9-0.4c29.3-4.3,58.3-8.7,87.1-13.2c179-27.8,351-57.1,532.7-57.1c30.1,0,59-9.9,84.8-26.2
			C4635.8,2794.3,4576.8,2761.9,4528.3,2754.6"/><path fill="#fff" d="M3845.6 2801.1c17.9 14 29.9 34 35.9 55.8 6.6 23.9 5.5 49.2-.4 73.1-3.6 14.5-8.9 28.5-15.2 42-.9 1.9 1.9 3.6 2.9 1.7 21.4-45.3 30.6-100.3 4.4-145.7-6.5-11.2-14.9-21.2-25.1-29.2C3846.3 2797.4 3844 2799.8 3845.6 2801.1M4552.5 2793.1c23.6 14 35.8 41.2 40.2 67.3 4.6 27.9 1.3 58.7-12.5 83.7-7.2 13.2-17.6 24.5-31 31.6-1.9 1-.2 3.8 1.7 2.9 25.4-13.5 39.5-41 44.6-68.4 5.3-28.8 2.3-60.3-11.1-86.5-6.9-13.5-17-25.6-30.1-33.4C4552.4 2789.2 4550.7 2792 4552.5 2793.1M4228.6 2802.7c17.7 16.2 27.8 39.1 30.9 62.7 1.8 13.8 1.3 27.9-.7 41.7-1.7 11.8-4.1 23.9-8.9 34.9-4.5 10.3-11.6 20-22.9 23.1-2 .6-1.2 3.8.9 3.2 22.5-6.2 29.4-33.5 33-53.5 4.9-26.7 4.4-54.9-6.3-80.2-5.4-12.9-13.3-24.7-23.7-34.2C4229.4 2798.9 4227 2801.2 4228.6 2802.7M3652.2 3140.9c-136.2.4-272.4.2-407.7-3.4 1.7 11.3 2.7 22.9 3 34.6h404.7V3140.9z"/><path fill="#bbe0fc" d="M3652.2,3172.2h-404.7c0.2,5.9,0.1,11.7-0.2,17.6h404.9V3172.2z"/><path fill="#fff" d="M3652.2 3189.8h-404.9c-.4 8.9-1.4 17.7-3 26.4h407.9V3189.8zM3652.2 3229.3h-411c-2.5 9.1-5.8 18-10 26.5 140.4 1.8 280.7 2.8 421.1 3.4V3229.3z"/><path fill="#bbe0fc" d="M3231.1 3255.8c-5.5 11-12.5 21.5-21.4 31h442.5v-27.6C3511.8 3258.6 3371.5 3257.6 3231.1 3255.8M3652.2 3216.1h-407.9c-.8 4.4-1.9 8.8-3.1 13.2h411V3216.1zM3241.6 3120.9c1.1 5.4 2 11 2.9 16.7 135.3 3.6 271.5 3.8 407.7 3.4v-8.9C3514.5 3133.7 3377.4 3134.4 3241.6 3120.9"/><path fill="#fff" d="M3230.2,3076.7c4.2,13.2,8.3,28.2,11.4,44.2c135.8,13.5,272.9,12.8,410.6,11.1v-28.6
			C3510.7,3104.2,3369.7,3100.9,3230.2,3076.7"/><path fill="#bbe0fc" d="M3226.2 3064.9c1.3 3.7 2.6 7.7 3.9 11.8 139.6 24.2 280.5 27.5 422 26.7v-22.5C3510.2 3081.3 3368.2 3078.8 3226.2 3064.9M3652.2 3034.7l-168.1-10.5h-274.4c0 0 6.4 13 14 33.7h428.5V3034.7z"/><path fill="#fff" d="M3223.7,3057.9c0.8,2.3,1.7,4.6,2.5,7c142,13.9,284,16.4,426,16v-23H3223.7z"/><path fill="#643877" d="M4803.5,2967.6c-102-41.9-1592.5,46.1-1616.1,48.7c-23.6,2.6,10.5,19.7,10.5,19.7s351.9-1.3,367.6-1.3
			c15.8,0,65.7,26.3,67,118.9c0.5,38.1-6.7,65.4-15.4,84.4c45.8-0.8,91.7-8.6,137.5-8.6c307.7-8.8,606.6,4.4,923.1-61.5
			c97-21.2,166.8-75.9,238.3-133.7C4891.8,3005.5,4854.7,2988.7,4803.5,2967.6"/><path fill="#391a49" d="M3754.6,3229.3c-45.8,0-91.7,7.8-137.5,8.6c-12.5,27.1-27.9,37-27.9,37s-347.9,1.3-397.8,1.3
			s-21,21.1-21,21.1s1668.3-0.1,1676.1-0.1c7.9,0,105,7.9,105-127.4c0-67.4-11.4-107.5-35.5-135.9
			c-71.5,57.8-141.3,112.5-238.3,133.7C4361.2,3233.7,4062.3,3220.5,3754.6,3229.3"/><path fill="#fff" d="M3630.7 3041.7c20.9 18.3 35.4 43 42.4 69.8 7.3 28.3 5.8 58.2-2.7 86.1-5 16.4-12.4 31.9-21.6 46.3-1.2 1.8 1.7 3.5 2.9 1.7 16.7-26 27.3-56 29.2-86.9 1.8-28.5-4.4-57.4-18.2-82.5-7.6-13.9-17.6-26.4-29.6-36.9C3631.4 3038 3629.1 3040.3 3630.7 3041.7M4030.7 3052.8c9.5 8.1 19.3 16.5 25.8 27.4 7.5 12.5 7.6 26.9 8.1 41.1.5 15 .9 30.1.7 45.2-.2 14.2-1.4 28.5-6.3 41.9-5 13.6-13.5 25.8-24.4 35.4-1.6 1.4.7 3.7 2.3 2.3 9.8-8.7 17.8-19.5 23.1-31.5 5.7-13.1 7.8-27.2 8.4-41.4.6-15.8.1-31.7-.4-47.5-.5-14.4-.1-29.7-6.5-42.9-6.3-13.1-17.7-22.9-28.6-32.2C4031.4 3049.1 4029.1 3051.5 4030.7 3052.8M4220.4 3052.9c8.7 10.2 14.5 22.4 18.8 35 4.3 12.7 7.4 25.9 9.4 39.1 4 26.7 3.6 54.2-1.4 80.8-2.8 15-7 29.7-12.5 43.9-.8 2.1 2.5 2.9 3.3.9 20.2-51.4 22.4-110.3 5.4-162.9-4.6-14.2-10.8-27.9-20.5-39.3C4221.4 3048.8 4219 3051.2 4220.4 3052.9M4865.6 3038.9c36.4 14.8 47.5 56.9 50.7 92.3 2.9 33.1.8 67.6-11.2 98.9-6.7 17.5-16.8 33.6-30.4 46.6-1.5 1.5.8 3.8 2.3 2.3 25-24 37.5-57.4 41.8-91.3 2.3-17.6 2.4-35.4 1.1-53.1-1.6-20.1-4.7-40.4-13.3-58.8-8.2-17.5-21.9-32.7-40.1-40.1C4864.5 3034.9 4863.6 3038.1 4865.6 3038.9"/><path fill="#9bc6ee" d="M4400.2,3097.1c22.3,26.3,9.3,104.3-7.5,140.8c-13.7,29.7,347.8,32.8,355.7-11.1
			c7.8-43.9,20.4-120.6-21.9-150.4C4681.6,3044.9,4377.9,3070.8,4400.2,3097.1"/><path fill="#3784d1" d="M4475.7 3102.1c0 0-2.1 119.6-11.5 130.6-9.4 11 8.9 7 9.4 5.3.5-1.7 14.6-111.9 10.4-135.9C4479.9 3078 4473.1 3088.5 4475.7 3102.1M4535.3 3102.1c0 0-2.1 119.6-11.5 130.6-9.4 11 8.9 7 9.4 5.3.5-1.7 14.6-111.9 10.4-135.9C4539.5 3078 4532.7 3088.5 4535.3 3102.1M4594.8 3102.1c0 0-2.1 119.6-11.5 130.6-9.4 11 8.9 7 9.4 5.3.5-1.7 14.6-111.9 10.4-135.9C4599 3078 4592.2 3088.5 4594.8 3102.1M4654.4 3102.1c0 0-2.1 119.6-11.5 130.6-9.4 11 8.9 7 9.4 5.3.5-1.7 14.6-111.9 10.4-135.9C4658.5 3078 4651.7 3088.5 4654.4 3102.1M4713.9 3102.1c0 0-2.1 119.6-11.5 130.6-9.4 11 8.9 7 9.4 5.3.5-1.7 14.6-111.9 10.4-135.9C4718.1 3078 4711.3 3088.5 4713.9 3102.1"/><path fill="#fc8d15" d="M3738.1,3097.1c0,0,24.7,121.7-6.6,155.5c-3.1,24.4,64.2,11.9,64.2,11.9s20.4-5.7,20.4-12.3
			c0-6.5,25.1-140.7,0-161.4c-25.1-20.7-48.6-12.7-61.1-15.9C3742.5,3071.8,3726,3084.9,3738.1,3097.1"/><path fill="#bbe0fc" d="M3994.3 2614.8v-31.5l-119.6-7.5h-195.3c0 0 5.7 11.4 11.8 29.1C3791.3 2602.5 3893 2605.4 3994.3 2614.8M3994.3 2661.5c-96.7.3-193.9 4.3-289.7-1.5.5 3.7.9 7.4 1.2 11.1h288.6V2661.5z"/><path fill="#fff" d="M3994.3,2687.4V2671h-288.6c0.5,6,0.7,12,0.5,18C3802.3,2690.8,3898.3,2685.3,3994.3,2687.4"/><path fill="#bbe0fc" d="M3994.3,2695.8v-8.4c-96-2.1-192,3.4-288,1.6c-0.1,2.9-0.2,5.8-0.4,8.7
			C3802.9,2699.9,3898.3,2695.6,3994.3,2695.8"/><path fill="#fff" d="M3994.3,2745.6v-15.7c-98-5.9-197.6,1.5-294.6-1.5c-2,6-4.6,11.8-7.8,17.4
			C3791.8,2745.4,3893.5,2743.7,3994.3,2745.6"/><path fill="#bbe0fc" d="M3691.9 2745.7c-3.4 6-7.6 11.6-12.5 16.9h315v-17.1C3893.5 2743.7 3791.8 2745.4 3691.9 2745.7M3994.3 2729.9v-10.1c-97.3.2-194.9 2.5-291.2-3.6-.9 4.1-2 8.2-3.4 12.2C3796.7 2731.4 3896.3 2724 3994.3 2729.9"/><path fill="#fff" d="M3705.8 2697.7c-.5 6.2-1.4 12.4-2.7 18.5 96.3 6.1 193.9 3.7 291.2 3.6v-24C3898.3 2695.6 3802.9 2699.9 3705.8 2697.7M3700.2 2636.1c1.8 7.6 3.3 15.6 4.4 23.8 95.8 5.8 193 1.8 289.7 1.5v-21.7C3896.3 2641.1 3798.2 2645.4 3700.2 2636.1"/><path fill="#bbe0fc" d="M3694.5,2615.1c2,6.5,4,13.6,5.7,21c98,9.2,196.1,5,294.1,3.6v-6.5
			C3894.8,2630.3,3793.2,2635.9,3694.5,2615.1"/><path fill="#fff" d="M3691.1,2604.9c1.1,3.2,2.2,6.6,3.3,10.2c98.7,20.8,200.3,15.2,299.8,18.1v-18.4
			C3893,2605.4,3791.2,2602.5,3691.1,2604.9"/><path fill="#e65e75" d="M4093,2697.4c79.1-22,153.9-74.7,233-44c0.6,0.3,1.2,0.5,1.8,0.8c-0.8-77.8-9.1-109.6-98.6-117
			c-98.7-8.2-549,31-565.8,32.9c-16.8,1.9,7.5,14,7.5,14s250.5-0.9,261.7-0.9c11.2,0,46.7,18.7,47.7,84.6c0.2,12-0.8,22.6-2.4,31.7
			C4016.3,2702.7,4054.7,2707,4093,2697.4"/><path fill="#d34262" d="M4326,2653.5c-79.1-30.8-153.9,22-233,44c-38.4,9.6-76.8,5.2-115.2,2.1c-7.3,41-28.5,54.7-28.5,54.7
			s-247.7,0.9-283.2,0.9c-35.5,0-15,15-15,15s596.3-0.1,601.9-0.1c5.6,0,74.8,5.6,74.8-90.7c0-8.9,0-17.3-0.1-25.2
			C4327.3,2654,4326.6,2653.7,4326,2653.5"/><path fill="#fff" d="M3977.6 2577.5c20.8 12.3 26.3 37.7 26.9 60.1.6 23.9-2.3 47.9-9.2 70.8-3.9 12.9-9.1 25.3-15.6 37.1-1.4 2.5 2.4 4.7 3.8 2.2 12.2-22.1 19.8-46.4 23.2-71.4 1.7-12.3 2.4-24.8 2.2-37.2-.2-12.7-1.6-25.6-6.3-37.5-4.6-11.4-12.1-21.6-22.8-27.9C3977.4 2572.3 3975.2 2576.1 3977.6 2577.5M4132.3 2575.4c19 10 24.4 33.7 26.7 53.3 2.9 24.7 1.3 49.9-4.6 74.1-3.4 13.7-8.2 27.1-14.3 39.9-1.2 2.5 2.6 4.8 3.8 2.2 11.3-23.6 18.2-49.2 20.2-75.3 1-13 .9-26.1-.5-39-1.2-11.1-3.1-22.3-7.3-32.7-4.4-10.9-11.3-20.8-21.8-26.3C4132 2570.3 4129.8 2574.1 4132.3 2575.4M4286.8 2575.6c16.4 17.2 19.5 44.3 19.1 66.9-.5 26.6-6.4 54.2-19.2 77.7-6 11-13.8 21.5-24.5 28.2-2.4 1.5-.2 5.3 2.2 3.8 21.2-13.3 32.6-39.2 39-62.5 7.3-26.5 9.7-55.8 3.5-82.8-2.9-12.6-8-25.1-17-34.5C4288 2570.4 4284.9 2573.6 4286.8 2575.6"/><path fill="none" stroke="#ffc261" stroke-linecap="round" stroke-linejoin="round" stroke-width="3" d="M3260.4,969c0,0-2.3,10.4-2.8,26.2"/><path fill="none" stroke="#ffc261" stroke-dasharray="8.064 8.064" stroke-linecap="round" stroke-linejoin="round" stroke-width="3" d="M3259.7,1030.5c2.6,16,7.7,33.5,17.4,49.9"/><path fill="none" stroke="#ffc261" stroke-linecap="round" stroke-linejoin="round" stroke-width="3" d="M3287.2,1095.1c5.2,6.6,11.4,12.9,18.5,18.7"/><path fill="none" stroke="#ffc261" stroke-dasharray="12 12" stroke-linecap="round" stroke-linejoin="round" stroke-miterlimit="10" stroke-width="3" d="M3492.8 1140.1c0 0 178.6-34.6 83-306.5-95.6-271.9 31.3-317.4 64.2-300.1M3881.3 734.6c0 0 30.7 48.1-37.6 78.3-68.3 30.3-41.1 56.4-41.1 56.4M3827.6 1210.9c0 0-11.5 43.1 0 59.7M4038.7 1573.4c0 0 164.9 79 60.4-245.7-104.5-324.7 27.2-573.9 112.8-614.4M4552.5 713.3c0 0 78.1 30.3 33 121.9l-33 53.7M4441.8 1140.1c0 0-32.6 53-12.1 88.5"/><path fill="#4676b7" d="M1306.3,3332.5c-0.1,129.2,518.1,164.6,671.5,180.7c153.4,16.1,901.6-9,901.7-94.8
			C2879.6,3332.5,1306.4,3203.3,1306.3,3332.5"/><path fill="#1b2c49" d="M2665.3,3256.1c-1.2-36-36.9-55.1-75.5-60.6c-51.6-7.3-132.2,54.1-132.2,54.1c-30,0.5-37.5-42.2-37.5-42.2
			l-65.5,19c0,0,1.2,100.8,27,145.4C2486.7,3373.2,2600.9,3336.1,2665.3,3256.1"/><path fill="#aecff1" d="M2381.6,3371.8c8,13.8,18.3,22.2,31.7,20.6c56.7-6.6,206.4-30.8,240.4-94.4c8.5-15.9,12-29.9,11.6-41.9
			C2600.9,3336.1,2486.7,3373.2,2381.6,3371.8"/><path fill="#ffa829" d="M2096.6,1174.3c-11.5-9-29.2-6.1-77.3,38c-67.9,62.1-62.1,119.4-41.7,151.3c18.2,28.4,170.5,82.6,324.7,52.7
			C2229.7,1337.5,2077.4,1296.7,2096.6,1174.3"/><path fill="#ffc261" d="M2703.3,1097.4c0,0-225.1,182.3-390.2,180.1c-165.2-2.2-189.1-68.5-203.8-88.1c-4.3-5.7-7.9-11.4-12.6-15.1
			c-19.2,122.4,133.2,163.2,205.7,241.9c19-3.7,38.1-8.6,56.9-15.1c171.5-58.8,361.1-226.2,377.5-248.4
			C2753.2,1130.6,2703.3,1097.4,2703.3,1097.4"/><path fill="#051123" d="M1856.7,1736.6c-15.2,7-30.2,14.1-44.6,21.2c-12.2,83.7,221.3,569.5,340.9,780.1
			c-3.3-45.4-14.3-90.3-31.8-131.9C2029.4,2184.9,1910,1971.8,1856.7,1736.6"/><path fill="#051123" d="M2070.6,2139.2c4.4-30.8-4.4-70.3,35.2-57.1c12.1-141.3,13.1-282.5,30.2-423.8
			c-62.3-8.6-177.3,31.7-279.3,78.3c43.2,190.5,129.7,366.5,209.7,543.9C2063,2234.3,2061.3,2187.5,2070.6,2139.2"/><path fill="#172c51" d="M2340.6,2164.5c-45.2-265.4-159.5-469.8-159.5-469.8c-3.8-21.8-20.3-33.1-45.2-36.5
			c-17.1,141.3-18.1,282.5-30.2,423.8c-39.6-13.2-30.8,26.4-35.2,57.1c-9.3,48.3-7.6,95.1-4.2,141.3c18.8,41.7,37.3,83.4,54.7,125.5
			c17.5,41.6,28.5,86.5,31.8,131.9c11.3,20,21.7,37.5,30.7,51.9c-30.6,480.8,174.2,657.9,174.2,657.9s2.5,27,63.8-22.1
			C2427.6,3154.8,2412.6,2587.1,2340.6,2164.5"/><g opacity=".2"><defs><rect id="w" width="681.4" height="1916.6" x="1901.4" y="1497.4"/></defs><clipPath id="x"><use overflow="visible" xlink:href="#w"/></clipPath><g clip-path="url(#x)"><defs><rect id="y" width="681.4" height="1916.6" x="1901.4" y="1497.4"/></defs><clipPath id="z"><use overflow="visible" xlink:href="#y"/></clipPath></g></g><path fill="#aecff1" d="M1386.5,3252.4c-14,21.4-20,41.8-7.1,55.3c39.3,41.3,148.7,146.4,219.9,135.5c24.3-3.7,40.1-12.8,49.2-24.8
			C1537.7,3402.6,1435.5,3359,1386.5,3252.4"/><path fill="#1b2c49" d="M1642.9,3330.5c-25.2-45.6-122.7-73.1-122.7-73.1c-18.5-23.7,11.2-55.3,11.2-55.3l-54.5-40.9
			c0,0-61.7,47.5-90.3,91.3c49,106.7,151.2,150.2,262,166C1666.2,3395.1,1659.4,3360.5,1642.9,3330.5"/><path fill="#051123" d="M1776,2521.6c-26.4-202.2,0-400,8.8-602.2c3.8-64.3,20.6-128.5,39.2-190c-6.7,0.2-13.6,0.2-20.6,0.2
			c-114.5,67.1-76.9,621.5-63.8,830.9c-39.2,50.7-279.7,603.5-279.7,603.5l29.1,16.9c91.5-165.4,195.4-324.6,273.9-496.6
			C1784.8,2631.5,1780.4,2578.7,1776,2521.6"/><path fill="#172c51" d="M1824,1729.4c-18.6,61.5-35.4,125.7-39.2,190c-8.8,202.2-35.2,400-8.8,602.2c4.4,57.1,8.8,109.9-13.2,162.6
			c-78.5,171.9-182.3,331.2-273.9,496.6l55.6,32.2c0,0,237.5-307.5,376.5-475.9c139-168.5,158.6-1018.9,158.6-1018.9
			C2068.7,1645.6,2007.4,1725.1,1824,1729.4"/><g opacity=".2"><defs><rect id="A" width="909.9" height="1846.2" x="1329.9" y="1528.1"/></defs><clipPath id="B"><use overflow="visible" xlink:href="#A"/></clipPath><g clip-path="url(#B)"><defs><rect id="C" width="909.9" height="1846.2" x="1329.9" y="1528.1"/></defs><clipPath id="D"><use overflow="visible" xlink:href="#C"/></clipPath></g></g><path fill="#e24b00" d="M1798 1862.2c87.9-109.9 114.3-246.2 83.5-391.2-8-40-10.3-80.5-7.6-120.5-46.9 166.9-87.3 365.5-95.6 381.6-14.6 28.2-93 74.2-29.2 124.3 10.6 7.9 22 14.8 34.1 20.6C1788.2 1872.9 1793.1 1868.1 1798 1862.2M2140.9 1493c12.6 20.1 30.9 34.4 52.5 44.7-28-89.2-56.8-181.4-64.9-247.3-9.6-62.7-22.6-98.3-34.4-119.3C2135.6 1272.2 2071 1390.3 2140.9 1493M2053 1273.2c33-78.5-58-94.8-120.2-96.5-12.3 27.2-24.9 62.3-37.4 101.7 4.8 18.9 13.7 37 25.7 52C1965.1 1383.1 2035.4 1317.1 2053 1273.2"/><path fill="#ff7116" d="M2193.3,1537.7c-21.6-10.3-39.9-24.6-52.5-44.7c-69.8-102.7-5.3-220.8-46.8-321.9
			c-13.8-24.5-26.1-29-29.7-32.9c-6.7-7.2-43.9-23.8-84.4-19.5c-14.6-1-30.7,21.4-47.3,58c62.2,1.7,153.3,18.1,120.2,96.5
			c-17.6,44-87.9,109.9-131.9,57.1c-12-15-20.9-33.1-25.7-52c-7.2,22.9-14.4,47.1-21.4,72.2c-2.7,40-0.4,80.4,7.6,120.5
			c30.8,145.1,4.4,281.3-83.5,391.2c-4.9,5.8-9.8,10.7-14.9,14.8c157.6,76.8,425.2-14.9,463.9-62.3
			C2271.5,1784.8,2233.2,1664.3,2193.3,1537.7"/><g opacity=".2"><defs><rect id="E" width="852.8" height="1151.7" x="1576.1" y="934.7"/></defs><clipPath id="F"><use overflow="visible" xlink:href="#E"/></clipPath><g clip-path="url(#F)"><defs><rect id="G" width="852.8" height="1151.7" x="1576.1" y="934.7"/></defs><clipPath id="H"><use overflow="visible" xlink:href="#G"/></clipPath></g></g><path fill="#ffc261" d="M2032.3,1200.8c-17.7-20.4-36.1-31.7-54.5-36c-8.2-1.9-16.4-2.5-24.5-1.8c-21.5,1.7-42.7,11.6-62.2,26.1
			c-44.1,84.8-106.6,156.1-141.4,246.7c-44.5,109.2,22.6,210.9,91.8,291.5c3.8,2.7,6,4.2,6,4.2l79.3-9.8c0,0-164.8-72.8-85.9-213.4
			c23.7-42.2,56.9-79.2,89.9-112.5C2007.7,1318,2083.3,1259.8,2032.3,1200.8"/><path fill="#ffa829" d="M1749.7,1435.8c34.8-90.6,97.3-161.9,141.4-246.7c-25,18.6-47.5,44.9-64.9,71.4
			c-47.8,72.6-127.7,196.6-111.8,307c10.3,71.1,101.4,141.2,126.6,159.4c0.2,0.1,0.3,0.2,0.5,0.3
			C1772.3,1646.7,1705.2,1545,1749.7,1435.8"/></g><g><defs><path id="I" d="M2067.5,1014.8c-2,15.1-20.9,52.3-75.6,131.7c-2,11,19.6,39.3,71.1,38.4c1.6-31.1,50.3-131.7,50.3-131.7
				c0.7-17.1-29.3-42.3-41.2-42.3C2069.6,1010.9,2067.9,1012.1,2067.5,1014.8"/></defs><clipPath id="J"><use overflow="visible" xlink:href="#I"/></clipPath><linearGradient id="K" x1="1789.428" x2="1793.823" y1="2809.447" y2="2809.447" gradientTransform="matrix(27.6584 0 0 -27.6584 -47501.008 78803.195)" gradientUnits="userSpaceOnUse"><stop offset="0" stop-color="#ffc7d0"/><stop offset="1" stop-color="#e65e75"/></linearGradient><rect width="124.2" height="174.8" x="1989.8" y="1010.9" fill="url(#K)" clip-path="url(#J)"/></g><g><defs><path id="L" d="M2058.5,969c-10.6,49.5,34.8,134.1,92.4,133.7c69.1-20,52.7-154.2,52.7-154.2
				c-1.4-5.6-14.9-13.1-38.9-13.1C2140,935.5,2104.1,943.3,2058.5,969"/></defs><clipPath id="M"><use overflow="visible" xlink:href="#L"/></clipPath><linearGradient id="N" x1="1798.432" x2="1802.828" y1="2806.117" y2="2806.117" gradientTransform="matrix(33.7582 0 0 -33.7582 -58654.871 95748.758)" gradientUnits="userSpaceOnUse"><stop offset="0" stop-color="#ffc7d0"/><stop offset="1" stop-color="#e65e75"/></linearGradient><rect width="172.1" height="167.6" x="2047.9" y="935.5" fill="url(#N)" clip-path="url(#M)"/></g><g><path fill="#00000c" d="M2250.3,915.4c0,0-15.9,58.1-141.9,57.7c-27,37.6-21.2,80.6-39.7,90.8c-18.5,10.2-35.4,18.8-54.8,0
			c-19.4-18.8,31.5-61.7,16.8-96.1c-14.7-34.3-3.3-65.8,51.5-67.9C2137,897.9,2270.7,854.1,2250.3,915.4"/><path fill="#00000c" d="M2129.7,963.3c0,0-10.6,81.4,15.5,94.9c26.2,13.5,42.5,17.2,42.5,17.2s-10.2,45.8-74.4,23.3
			c-20-6.5-21.7-12.3-21.7-12.3s32.7-25.8,28.2-74.8c-4.5-49.1-16.8-53.6-16.8-53.6S2130.1,930.2,2129.7,963.3"/></g><g><defs><path id="O" d="M2777.7,1048.3c-49.5,49.2-71,118.9,26.3,80.9c17.6-13.2,40.9-36.6,34.9-60.5c-1.3-2.7-2.3-5.7-0.9-8.6
				c18.1-31.3,9.5-43.5-6.7-43.5C2814.5,1016.6,2789.6,1029.7,2777.7,1048.3"/></defs><clipPath id="P"><use overflow="visible" xlink:href="#O"/></clipPath><linearGradient id="Q" x1="1827.103" x2="1831.499" y1="2772.617" y2="2772.617" gradientTransform="scale(-109.7202 109.7202) rotate(50.933 3802.153 -555.4)" gradientUnits="userSpaceOnUse"><stop offset="0" stop-color="#ffc7d0"/><stop offset="1" stop-color="#e65e75"/></linearGradient><polygon fill="url(#Q)" points="2929.6 1076.4 2796.6 1240.2 2633 1107.4 2765.9 943.6" clip-path="url(#P)"/></g><g><path fill="#e24b00" d="M2696.6,1072.3l49.1-8.4l33.2,104c0,0-29.3,47-38.7,33.7c-9.5-13.3-25.7-101.9-36.8-104.1
			C2692.1,1095.1,2688.3,1073.7,2696.6,1072.3"/></g><g><defs><path id="R" d="M1895.1,1743.8c-4.9,4.5,1.6,16.4-12,40.5c-13.6,24.1,5.5,56.4,55.3,42.5c49.9-13.9,0-89.1,0-89.1
				c-2.3-4-6.7-5.5-11.7-5.5C1914.7,1732.1,1898.6,1740.6,1895.1,1743.8"/></defs><clipPath id="S"><use overflow="visible" xlink:href="#R"/></clipPath><linearGradient id="T" x1="1823.266" x2="1827.662" y1="2772.457" y2="2772.457" gradientTransform="scale(109.6988 -109.6988) rotate(-62.103 -1395.127 2878.227)" gradientUnits="userSpaceOnUse"><stop offset="0" stop-color="#ffc7d0"/><stop offset="1" stop-color="#e65e75"/></linearGradient><polygon fill="url(#T)" points="1962.3 1683 2033.3 1816.9 1895.5 1889.9 1824.6 1755.9" clip-path="url(#S)"/></g><g><path fill="#f47f51" d="M1951.8,1694.8l2.5,50.9l-109.8,20.9c0,0-44.2-35.6-29.4-43.5c14.7-8,106.7-13.5,110.4-24.5
			C1929.1,1687.4,1951.4,1686.2,1951.8,1694.8"/><path fill="#4a627c" d="M2806.2,1064c0-4.7,360.4-349.4,360.4-349.4s10.6-4.7,0,8.2c-10.6,12.9-333.7,370.7-353.6,361.1
			C2793.1,1074.5,2806.2,1064,2806.2,1064"/><path fill="#e65e75" d="M1559.9 3241.5c0 0-58.6 43.8-40.1 37.3 18.5-6.6 58-30.5 69.4-21.5 11.4 9-28.7 41.3-14.8 48.9 14 7.6 37.1-41.5 47.7-32.3 10.6 9.2-17.7 46.1-10.6 51.4-8.2-4.4 2.8-32.5 7.8-41.9 5-9.4-4.8-7.4-8.6-1.4-3.8 6-25.5 39.5-38.9 27.1-13.4-12.4 8.6-37.7 10.2-40.3 1.6-2.6 1.2-10.8-6.4-8.2-7.6 2.6-58.2 30.1-64.6 22.7C1504.7 3276 1543.8 3245.1 1559.9 3241.5M2495.1 3197.3c0 0-3.4 73.1 3.3 54.6 6.7-18.5 13.3-64.2 27.4-67.3s13.6 48.4 28.4 42.4c14.7-6-8.5-55 5.3-57.3 13.8-2.3 24.3 43 33 40.8-8.6 3.5-23.3-22.8-27.4-32.6-4.1-9.8-8.7-1-6.5 5.7s14.3 44.8-3.7 47.3c-18 2.5-23.7-30.6-24.7-33.4-1-2.9-7.6-7.8-10.4-.3-2.8 7.5-13.7 64.1-23.5 64.3C2486.6 3261.9 2487.6 3212.1 2495.1 3197.3"/><path fill="#fcfcfc" d="M1782.1 1925.3c-2.8 10.6-4 21.6-3.5 32.5.1 2.8 4.4 2.8 4.3 0-.4-10.6.7-21.1 3.4-31.3C1787 1923.7 1782.8 1922.6 1782.1 1925.3M1779.1 1975.4c.1 9-.4 18.1-1.6 27-.2 1.2 1.1 2.2 2.2 2.2 1.3 0 2-1 2.2-2.2 1.2-9 1.7-18 1.6-27C1783.3 1972.6 1779 1972.6 1779.1 1975.4M1777.7 2018.5c.1 7.8-.5 15.6-2.1 23.3-.5 2.7 3.6 3.9 4.2 1.1 1.6-8.1 2.3-16.3 2.2-24.5C1782 2015.7 1777.6 2015.7 1777.7 2018.5M1775.4 2058.3c-1.9 7.6-2.7 15.4-2.2 23.2.1 1.2.9 2.2 2.2 2.2 1.1 0 2.2-1 2.2-2.2-.5-7.4.2-14.9 2-22.1C1780.2 2056.7 1776 2055.6 1775.4 2058.3M1772.9 2098.2c-1.4 8.3-2.2 16.8-2.2 25.2 0 2.8 4.3 2.8 4.3 0 0-8.1.6-16.1 2-24.1.2-1.2-.3-2.3-1.5-2.7C1774.6 2096.4 1773.1 2097 1772.9 2098.2M1768.6 2138.7c-.4 6.9-1.2 13.8-2.7 20.5-.2 1.1.3 2.3 1.5 2.7 1.1.3 2.4-.4 2.7-1.5 1.5-7.1 2.5-14.4 2.8-21.7C1773.1 2135.9 1768.7 2136 1768.6 2138.7M1767.1 2176.7c-.6 6.9-1.3 13.8-1.9 20.8-.1 1.2 1.1 2.2 2.2 2.2 1.3 0 2.1-1 2.2-2.2.6-6.9 1.3-13.8 1.9-20.8.1-1.2-1.1-2.2-2.2-2.2C1768 2174.6 1767.2 2175.6 1767.1 2176.7M1764.6 2212.1c-.4 7.5-.9 15-1.3 22.4-.2 2.8 4.2 2.8 4.3 0 .4-7.5.9-15 1.3-22.4C1769.1 2209.3 1764.8 2209.3 1764.6 2212.1M1761.8 2253.4c.6 8.7.3 17.5-.8 26.1-.1 1.2 1.1 2.2 2.2 2.2 1.3 0 2-1 2.2-2.2 1.1-8.7 1.4-17.4.8-26.1C1766 2250.6 1761.6 2250.6 1761.8 2253.4M1760.7 2297.4c2.2 9.4 2.8 19 1.9 28.6-.3 2.8 4.1 2.8 4.3 0 1-10 .2-20-2.1-29.8C1764.2 2293.5 1760.1 2294.6 1760.7 2297.4"/><path fill="#75afe8" d="M1807,2011.3c20.9,3.4,42.7-2.7,58.4-17.1c8.4-7.7,14.2-17.7,19.5-27.7c6-11.2,11.1-23,13-35.6
			c0.9-6.2-8.6-8.9-9.5-2.6c-1.7,11.1-5.8,21.3-10.9,31.2c-4.8,9.2-9.8,18.6-17.2,25.9c-13,13-32.4,19.4-50.6,16.4
			C1803.4,2000.7,1800.7,2010.2,1807,2011.3"/><path fill="#9bc6ee" d="M1658.9,460.2c0-72.4,171-131.2,381.9-131.2c210.9,0,381.9,58.7,381.9,131.2c0,72.4-171,131.2-381.9,131.2
			c-10.1,0-20.1-0.1-30-0.4l39,149.2c2.5,9.5-9.4,15.9-16,8.7c-47.9-52.1-148.2-168.8-148.2-168.8
			C1752.1,559.7,1658.9,513.7,1658.9,460.2"/><path fill="#fff" d="M2175.7 470.4c0 8.5 6.9 15.4 15.3 15.4 8.5 0 15.3-6.9 15.3-15.4 0-8.5-6.9-15.3-15.3-15.3C2182.6 455.1 2175.7 461.9 2175.7 470.4M2082.6 470.4c0 8.5 6.9 15.4 15.3 15.4s15.3-6.9 15.3-15.4c0-8.5-6.9-15.3-15.3-15.3S2082.6 461.9 2082.6 470.4M1989.5 470.4c0 8.5 6.9 15.4 15.3 15.4 8.5 0 15.3-6.9 15.3-15.4 0-8.5-6.9-15.3-15.3-15.3C1996.3 455.1 1989.5 461.9 1989.5 470.4"/><path fill="#e4493c" d="M2012.3 1714.2c3.9 25.9 17 50.8 14.5 77.5-.5 5.9-1.9 12.3-5.1 17.4-3.8 6.1-10.1 8.7-16.6 11.2-12.6 4.7-25.7 8-39 9.6-4.8.6-4.8 8.2 0 7.6 14.7-1.9 29.1-5.2 42.9-10.6 12.8-5 20.9-12.6 24-26.3 6.9-30.2-9.1-59.1-13.4-88.4C2018.9 1707.4 2011.6 1709.5 2012.3 1714.2M1817.3 1709.9c20.7 4.8 42.8 1.5 61-9.5 4.2-2.5.4-9.1-3.8-6.5-16.5 9.9-36.4 13.1-55.2 8.7C1814.5 1701.5 1812.5 1708.8 1817.3 1709.9M2112.5 1213.5c9 34.1 15.6 68.8 19.7 103.9.6 4.8 8.1 4.8 7.6 0-4.1-35.7-10.8-71.1-19.9-105.9C2118.6 1206.8 2111.3 1208.8 2112.5 1213.5M2159.7 1863.3c15.5-9.3 31.2-17.9 47.5-25.6 13.2-6.3 24.4-15.4 31.8-28.3 8-14 8.9-29.3 9.5-45.1.7-17 .5-34.2-4.9-50.6-1.5-4.6-8.8-2.6-7.3 2 5.1 15.4 5.2 31.5 4.6 47.6-.6 15.3-1.2 30.2-9.3 43.7-7.6 12.5-18.9 19.8-31.9 25.8-15.1 7-29.5 15.4-43.8 23.9C2151.7 1859.3 2155.5 1865.8 2159.7 1863.3M2029.4 1188.9c9.8 2.6 20 3.7 30.1 3.3 4.3-.2 10.2-.1 12.1-4.9.9-2.3.5-4.9.6-7.3.2-2.5.8-4.9 1.5-7.3 1.5-4.7-5.8-6.7-7.3-2-1.3 4.1-1.9 8.4-1.9 12.7 0 .1 0 1.3 0 1.3 0 0 .5-.8.6-.6 0 0-2.2.4-2.3.4-2.1.2-4.3.3-6.4.3-8.5.1-16.9-.9-25.1-3.1C2026.7 1180.4 2024.7 1187.7 2029.4 1188.9M2691.2 1077.8c-1.1 5.1-.2 10.5 2.9 14.8 3.4 4.7 8 6.2 13.3 7.9 2.6.9 3.5 2.1 4.1 4.8.7 3.3 1.2 6.7 1.8 10.1 1.3 7 2.6 14.1 3.8 21.1.9 4.8 8.2 2.8 7.3-2-1.2-6.5-2.4-13-3.5-19.5-.6-3.2-1.2-6.5-1.8-9.7-.5-2.9-1.1-5.7-3-8-3.3-3.9-8.3-3.8-12.5-6-4-2.1-6.1-7-5.1-11.4C2699.6 1075.1 2692.3 1073.1 2691.2 1077.8M1780.2 1730c-2.8 10.2-7 20.5-15.4 27.4-4.5 3.7-9.3 6.8-13.4 10.9-3.7 3.8-7 8-10.1 12.2-5.8 8-13.4 17-14.4 27.1-1.1 11.1 4.8 20.9 11.1 29.5 2.8 3.9 9.4.1 6.5-3.8-6.1-8.5-13.2-19.3-8.8-30.1 1.9-4.7 5.2-9 8.1-13.1 3.1-4.6 6.3-9.1 10-13.3 6.6-7.5 15.7-12.1 21.9-19.9 5.9-7.3 9.3-16.1 11.7-25.1C1788.8 1727.3 1781.5 1725.3 1780.2 1730M1888.3 1223.8c-49.1 48.5-91.6 104.5-121.7 166.7-8.4 17.3-15.7 35.2-22 53.4-1.6 4.6 5.7 6.6 7.3 2 22.1-64.4 58.6-123.3 102.6-174.8 12.4-14.5 25.5-28.5 39.1-41.9C1897.1 1225.7 1891.8 1220.4 1888.3 1223.8"/><path fill="#206664" d="M2082.3 1231.5c8.5 0 8.5-13.2 0-13.2C2073.8 1218.3 2073.8 1231.5 2082.3 1231.5M2092.4 1259.7c8.5 0 8.5-13.2 0-13.2C2084 1246.5 2083.9 1259.7 2092.4 1259.7M2095.2 1289c8.5 0 8.5-13.2 0-13.2C2086.7 1275.9 2086.7 1289 2095.2 1289"/><path fill="#75afe8" d="M3571.7 883.7c0 0-4.6-27.4 6.7-42.7 11.3-15.3 48.1 35.7 48.1 35.7s3.5 14.9-5.5 9c-9-5.9-32.5-44.3-34.1-30.9C3585.4 868 3583 911.5 3571.7 883.7M3558.9 547.4c0 0 22.7-16.1 41.3-12.6 18.7 3.5-11.1 58.9-11.1 58.9s-11.9 9.7-10.5-1c1.4-10.7 25.6-48.6 13-44.2C3579 552.9 3538.9 569.7 3558.9 547.4M3842.7 1226.1c0 0 3.6 27.7-10.7 42.1-14.3 14.4-54.2-39.3-54.2-39.3s-3.2-15.1 7-8.6c10.2 6.6 35.3 46.7 38 33.5C3825.6 1240.7 3831.2 1197.5 3842.7 1226.1"/><path fill="#3784d1" d="M3856.1,832.8c0,0-25.3,11.9-43.3,2.7c-18-9.2,20.9-63.5,20.9-63.5s13.4-7.6,10.3,4.1
			c-3.1,11.7-33.7,47.8-20.3,46.4S3879.9,813.1,3856.1,832.8"/><path fill="#75afe8" d="M4042.6 1207.5c0 0-.1-28 15.9-40.4 16-12.5 48.8 45.8 48.8 45.8s1.2 15.4-8 7.6c-9.3-7.8-29.1-50.7-33.5-38C4061.4 1195.2 4050.4 1237.4 4042.6 1207.5M4632.5 836c0 0-19.7 19.8-39.8 17.3-20.1-2.5-2-66.9-2-66.9s10-11.7 11.1.3c1 12.1-15.4 56.4-3.3 50.5C4610.5 831.3 4648.2 809.4 4632.5 836"/><path fill="#3784d1" d="M4447.2,1205.4c0,0-12.3,14.6-27.9,9.6c-15.6-5-10.8-58.7-10.8-58.7s6-8.9,8.5,1.8
			c2.5,10.7-3.9,47.1,4.5,43.7C4429.9,1198.3,4455.4,1184.3,4447.2,1205.4"/></g></svg>